G04*
G04 #@! TF.GenerationSoftware,Altium Limited,Altium Designer,22.4.2 (48)*
G04*
G04 Layer_Color=16711935*
%FSLAX25Y25*%
%MOIN*%
G70*
G04*
G04 #@! TF.SameCoordinates,836F5DEB-E3E8-4EF0-AA83-6B4C30FB293A*
G04*
G04*
G04 #@! TF.FilePolarity,Negative*
G04*
G01*
G75*
%ADD20C,0.20485*%
%ADD21C,0.02769*%
%ADD22C,0.04737*%
%ADD23R,0.04737X0.04737*%
%ADD24C,0.12611*%
%ADD25C,0.06706*%
%ADD26R,0.06706X0.06706*%
D20*
X-110236Y330709D02*
D03*
Y-106299D02*
D03*
X330709D02*
D03*
Y330709D02*
D03*
D21*
X286332Y297554D02*
D03*
X288844Y295211D02*
D03*
X291274Y292781D02*
D03*
X293617Y290269D02*
D03*
Y158550D02*
D03*
X291274Y156038D02*
D03*
X288844Y153608D02*
D03*
X286332Y151265D02*
D03*
X154613D02*
D03*
X152101Y153608D02*
D03*
X149671Y156038D02*
D03*
X147328Y158550D02*
D03*
X154613Y297554D02*
D03*
X152101Y295211D02*
D03*
X149671Y292781D02*
D03*
X147328Y290269D02*
D03*
X286332Y77081D02*
D03*
X288844Y74738D02*
D03*
X291274Y72309D02*
D03*
X293617Y69796D02*
D03*
Y-61922D02*
D03*
X291274Y-64435D02*
D03*
X288844Y-66864D02*
D03*
X286332Y-69207D02*
D03*
X154613D02*
D03*
X152101Y-66864D02*
D03*
X149671Y-64435D02*
D03*
X147328Y-61922D02*
D03*
X154613Y77081D02*
D03*
X152101Y74738D02*
D03*
X149671Y72309D02*
D03*
X147328Y69796D02*
D03*
X-73144Y65859D02*
D03*
X-70801Y68372D02*
D03*
X-68372Y70801D02*
D03*
X-65859Y73144D02*
D03*
X-73144Y-65859D02*
D03*
X-70801Y-68372D02*
D03*
X-68372Y-70801D02*
D03*
X-65859Y-73144D02*
D03*
X65859D02*
D03*
X68372Y-70801D02*
D03*
X70801Y-68372D02*
D03*
X73144Y-65859D02*
D03*
Y65859D02*
D03*
X70801Y68372D02*
D03*
X68372Y70801D02*
D03*
X65859Y73144D02*
D03*
X-73144Y286332D02*
D03*
X-70801Y288844D02*
D03*
X-68372Y291274D02*
D03*
X-65859Y293617D02*
D03*
X-73144Y154613D02*
D03*
X-70801Y152101D02*
D03*
X-68372Y149671D02*
D03*
X-65859Y147328D02*
D03*
X65859D02*
D03*
X68372Y149671D02*
D03*
X70801Y152101D02*
D03*
X73144Y154613D02*
D03*
Y286332D02*
D03*
X70801Y288844D02*
D03*
X68372Y291274D02*
D03*
X65859Y293617D02*
D03*
D22*
X212972Y314409D02*
D03*
X217972D02*
D03*
X222972D02*
D03*
X212972Y93937D02*
D03*
X217972D02*
D03*
X222972D02*
D03*
X-7500Y90000D02*
D03*
X-2500D02*
D03*
X2500D02*
D03*
X-7500Y310472D02*
D03*
X-2500D02*
D03*
X2500D02*
D03*
D23*
X227972Y314409D02*
D03*
Y93937D02*
D03*
X7500Y90000D02*
D03*
Y310472D02*
D03*
D24*
X176148Y198819D02*
D03*
X264797D02*
D03*
X220472Y275590D02*
D03*
X176148Y-21654D02*
D03*
X264797D02*
D03*
X220472Y55118D02*
D03*
X-44324Y-25591D02*
D03*
X44324D02*
D03*
X0Y51181D02*
D03*
X-44324Y194882D02*
D03*
X44324D02*
D03*
X0Y271654D02*
D03*
D25*
X230472Y249410D02*
D03*
Y259409D02*
D03*
X260472Y249410D02*
D03*
X250472Y259409D02*
D03*
Y249410D02*
D03*
X240472Y259409D02*
D03*
Y249410D02*
D03*
X220472Y259409D02*
D03*
Y249410D02*
D03*
X210472Y259409D02*
D03*
Y249410D02*
D03*
X200472Y259409D02*
D03*
Y249410D02*
D03*
X190472Y259409D02*
D03*
Y249410D02*
D03*
X230472Y144409D02*
D03*
Y154409D02*
D03*
X260472Y144409D02*
D03*
X250472Y154409D02*
D03*
Y144409D02*
D03*
X240472Y154409D02*
D03*
Y144409D02*
D03*
X220472Y154409D02*
D03*
Y144409D02*
D03*
X210472Y154409D02*
D03*
Y144409D02*
D03*
X200472Y154409D02*
D03*
Y144409D02*
D03*
X190472Y154409D02*
D03*
Y144409D02*
D03*
X230472Y28937D02*
D03*
Y38937D02*
D03*
X260472Y28937D02*
D03*
X250472Y38937D02*
D03*
Y28937D02*
D03*
X240472Y38937D02*
D03*
Y28937D02*
D03*
X220472Y38937D02*
D03*
Y28937D02*
D03*
X210472Y38937D02*
D03*
Y28937D02*
D03*
X200472Y38937D02*
D03*
Y28937D02*
D03*
X190472Y38937D02*
D03*
Y28937D02*
D03*
X230472Y-76063D02*
D03*
Y-66063D02*
D03*
X260472Y-76063D02*
D03*
X250472Y-66063D02*
D03*
Y-76063D02*
D03*
X240472Y-66063D02*
D03*
Y-76063D02*
D03*
X220472Y-66063D02*
D03*
Y-76063D02*
D03*
X210472Y-66063D02*
D03*
Y-76063D02*
D03*
X200472Y-66063D02*
D03*
Y-76063D02*
D03*
X190472Y-66063D02*
D03*
Y-76063D02*
D03*
X10000Y25000D02*
D03*
Y35000D02*
D03*
X40000Y25000D02*
D03*
X30000Y35000D02*
D03*
Y25000D02*
D03*
X20000Y35000D02*
D03*
Y25000D02*
D03*
X0Y35000D02*
D03*
Y25000D02*
D03*
X-10000Y35000D02*
D03*
Y25000D02*
D03*
X-20000Y35000D02*
D03*
Y25000D02*
D03*
X-30000Y35000D02*
D03*
Y25000D02*
D03*
X10000Y-80000D02*
D03*
Y-70000D02*
D03*
X40000Y-80000D02*
D03*
X30000Y-70000D02*
D03*
Y-80000D02*
D03*
X20000Y-70000D02*
D03*
Y-80000D02*
D03*
X0Y-70000D02*
D03*
Y-80000D02*
D03*
X-10000Y-70000D02*
D03*
Y-80000D02*
D03*
X-20000Y-70000D02*
D03*
Y-80000D02*
D03*
X-30000Y-70000D02*
D03*
Y-80000D02*
D03*
X10000Y245472D02*
D03*
Y255472D02*
D03*
X40000Y245472D02*
D03*
X30000Y255472D02*
D03*
Y245472D02*
D03*
X20000Y255472D02*
D03*
Y245472D02*
D03*
X0Y255472D02*
D03*
Y245472D02*
D03*
X-10000Y255472D02*
D03*
Y245472D02*
D03*
X-20000Y255472D02*
D03*
Y245472D02*
D03*
X-30000Y255472D02*
D03*
Y245472D02*
D03*
X10000Y140472D02*
D03*
Y150472D02*
D03*
X40000Y140472D02*
D03*
X30000Y150472D02*
D03*
Y140472D02*
D03*
X20000Y150472D02*
D03*
Y140472D02*
D03*
X0Y150472D02*
D03*
Y140472D02*
D03*
X-10000Y150472D02*
D03*
Y140472D02*
D03*
X-20000Y150472D02*
D03*
Y140472D02*
D03*
X-30000Y150472D02*
D03*
Y140472D02*
D03*
D26*
X260472Y259409D02*
D03*
Y154409D02*
D03*
Y38937D02*
D03*
Y-66063D02*
D03*
X40000Y35000D02*
D03*
Y-70000D02*
D03*
Y255472D02*
D03*
Y150472D02*
D03*
M02*
