G04*
G04 #@! TF.GenerationSoftware,Altium Limited,Altium Designer,22.4.2 (48)*
G04*
G04 Layer_Physical_Order=1*
G04 Layer_Color=255*
%FSLAX25Y25*%
%MOIN*%
G70*
G04*
G04 #@! TF.SameCoordinates,836F5DEB-E3E8-4EF0-AA83-6B4C30FB293A*
G04*
G04*
G04 #@! TF.FilePolarity,Positive*
G04*
G01*
G75*
%ADD10C,0.19685*%
%ADD11C,0.01968*%
%ADD12C,0.03937*%
%ADD13R,0.03937X0.03937*%
%ADD14C,0.11811*%
%ADD15C,0.05906*%
%ADD16R,0.05906X0.05906*%
G36*
X346457Y-122047D02*
X-125984D01*
Y346457D01*
X346457D01*
Y-122047D01*
D02*
G37*
%LPC*%
G36*
X220472Y331758D02*
X219550Y331730D01*
X217379D01*
X217350Y331724D01*
X217320Y331728D01*
X214978Y331592D01*
X213991Y331562D01*
X213143Y331485D01*
X211144Y331368D01*
X211115Y331361D01*
X211085Y331363D01*
X208570Y331069D01*
X207533Y330975D01*
X206769Y330859D01*
X204941Y330645D01*
X204913Y330636D01*
X204883Y330636D01*
X202194Y330162D01*
X201122Y329999D01*
X200448Y329854D01*
X198790Y329562D01*
X198762Y329551D01*
X198732Y329550D01*
X195867Y328871D01*
X194782Y328638D01*
X194202Y328477D01*
X192713Y328124D01*
X192686Y328111D01*
X192656Y328108D01*
X189608Y327196D01*
X188536Y326897D01*
X188053Y326730D01*
X186730Y326334D01*
X186703Y326320D01*
X186673Y326315D01*
X183432Y325136D01*
X182406Y324782D01*
X182021Y324622D01*
X180860Y324200D01*
X180834Y324184D01*
X180805Y324178D01*
X177350Y322687D01*
X176415Y322300D01*
X176127Y322160D01*
X175125Y321728D01*
X175100Y321710D01*
X175071Y321703D01*
X171366Y319842D01*
X170585Y319461D01*
X170392Y319352D01*
X169543Y318926D01*
X169519Y318908D01*
X169491Y318898D01*
X165467Y316575D01*
X164937Y316276D01*
X164835Y316210D01*
X164134Y315805D01*
X164111Y315785D01*
X164083Y315774D01*
X159600Y312825D01*
X159492Y312755D01*
X159476Y312744D01*
X158915Y312375D01*
X158893Y312353D01*
X158866Y312341D01*
X153904Y308646D01*
X153884Y308624D01*
X153858Y308610D01*
X151201Y306380D01*
X151154Y306345D01*
X151147Y306335D01*
X151091Y306288D01*
X151008Y306184D01*
X150911Y306092D01*
X150399Y305360D01*
X150363Y305313D01*
X150358Y305302D01*
X150316Y305242D01*
X150263Y305120D01*
X150194Y305007D01*
X149888Y304166D01*
X149865Y304112D01*
X149864Y304101D01*
X149839Y304032D01*
X149819Y303900D01*
X149781Y303772D01*
X149703Y302882D01*
X149696Y302823D01*
X149697Y302812D01*
X149691Y302739D01*
X149705Y302606D01*
X149703Y302473D01*
X149858Y301593D01*
X149865Y301535D01*
X149870Y301524D01*
X149882Y301452D01*
X149931Y301327D01*
X149963Y301198D01*
X150340Y300388D01*
X150363Y300334D01*
X150370Y300324D01*
X150401Y300258D01*
X150480Y300151D01*
X150544Y300034D01*
X151118Y299349D01*
X151154Y299302D01*
X151164Y299295D01*
X151210Y299239D01*
X151314Y299156D01*
X151407Y299059D01*
X152139Y298547D01*
X152185Y298511D01*
X152196Y298506D01*
X152256Y298465D01*
X152378Y298411D01*
X152492Y298342D01*
X152647Y297991D01*
X152629Y297948D01*
Y297657D01*
X152495Y297195D01*
X152167Y297195D01*
X151706D01*
X150977Y296893D01*
X150418Y296335D01*
X150116Y295605D01*
Y295228D01*
X150071Y294811D01*
X149654Y294766D01*
X149277D01*
X148547Y294463D01*
X147989Y293905D01*
X147687Y293176D01*
Y292715D01*
X147687Y292387D01*
X147225Y292253D01*
X146934D01*
X146630Y292127D01*
X146449Y292539D01*
X146418Y292584D01*
X146371Y292696D01*
X146293Y292798D01*
X145944Y293308D01*
X145876Y293375D01*
X145823Y293454D01*
X145680Y293597D01*
X145580Y293728D01*
X145449Y293828D01*
X145275Y294002D01*
X145187Y294061D01*
X145111Y294135D01*
X144695Y294407D01*
X144548Y294519D01*
X144477Y294548D01*
X144425Y294583D01*
X144326Y294622D01*
X144237Y294679D01*
X143474Y294976D01*
X143424Y294985D01*
X143347Y295017D01*
X143291Y295024D01*
X143270Y295032D01*
X142462Y295165D01*
X142356Y295162D01*
X142251Y295178D01*
X142154Y295174D01*
X142058Y295186D01*
X141868Y295161D01*
X141433Y295142D01*
X141330Y295117D01*
X141224Y295111D01*
X140945Y295040D01*
X140770Y295017D01*
X140631Y294959D01*
X140431Y294908D01*
X140335Y294862D01*
X140233Y294834D01*
X139722Y294583D01*
X139569Y294519D01*
X139524Y294485D01*
X139498Y294472D01*
X139414Y294408D01*
X139320Y294360D01*
X138675Y293854D01*
X138623Y293794D01*
X138537Y293728D01*
X138502Y293681D01*
X136272Y291024D01*
X136258Y290998D01*
X136235Y290978D01*
X132541Y286016D01*
X132528Y285988D01*
X132507Y285967D01*
X132138Y285405D01*
X132127Y285390D01*
X132057Y285283D01*
X129108Y280799D01*
X129097Y280771D01*
X129077Y280748D01*
X128672Y280047D01*
X128606Y279945D01*
X128307Y279415D01*
X125984Y275391D01*
X125974Y275362D01*
X125956Y275339D01*
X125529Y274490D01*
X125420Y274297D01*
X125040Y273516D01*
X123179Y269811D01*
X123171Y269782D01*
X123154Y269757D01*
X122722Y268755D01*
X122582Y268466D01*
X122195Y267532D01*
X120704Y264077D01*
X120698Y264047D01*
X120682Y264022D01*
X120260Y262861D01*
X120100Y262476D01*
X119746Y261451D01*
X118567Y258209D01*
X118562Y258179D01*
X118548Y258152D01*
X118152Y256829D01*
X117985Y256346D01*
X117686Y255274D01*
X116774Y252226D01*
X116771Y252196D01*
X116758Y252169D01*
X116405Y250680D01*
X116244Y250099D01*
X116011Y249015D01*
X115332Y246149D01*
X115331Y246119D01*
X115320Y246092D01*
X115027Y244434D01*
X114883Y243759D01*
X114720Y242688D01*
X114245Y239999D01*
X114246Y239969D01*
X114237Y239941D01*
X114023Y238113D01*
X113907Y237349D01*
X113813Y236312D01*
X113519Y233797D01*
X113521Y233766D01*
X113514Y233737D01*
X113397Y231738D01*
X113320Y230891D01*
X113290Y229904D01*
X113154Y227562D01*
X113158Y227532D01*
X113152Y227502D01*
Y225332D01*
X113124Y224410D01*
X113152Y223487D01*
Y221316D01*
X113158Y221287D01*
X113154Y221257D01*
X113290Y218914D01*
X113320Y217928D01*
X113397Y217080D01*
X113514Y215082D01*
X113521Y215052D01*
X113519Y215022D01*
X113813Y212507D01*
X113907Y211470D01*
X114023Y210706D01*
X114237Y208878D01*
X114246Y208850D01*
X114245Y208820D01*
X114720Y206131D01*
X114883Y205059D01*
X115027Y204385D01*
X115320Y202727D01*
X115331Y202699D01*
X115332Y202669D01*
X116011Y199804D01*
X116244Y198719D01*
X116405Y198139D01*
X116758Y196650D01*
X116771Y196623D01*
X116774Y196593D01*
X117686Y193544D01*
X117985Y192473D01*
X118152Y191990D01*
X118548Y190666D01*
X118562Y190640D01*
X118567Y190610D01*
X119746Y187368D01*
X120100Y186343D01*
X120260Y185958D01*
X120682Y184797D01*
X120698Y184772D01*
X120704Y184742D01*
X122195Y181287D01*
X122582Y180352D01*
X122722Y180064D01*
X123154Y179062D01*
X123171Y179037D01*
X123179Y179008D01*
X125041Y175302D01*
X125420Y174522D01*
X125529Y174329D01*
X125956Y173480D01*
X125974Y173456D01*
X125984Y173428D01*
X128308Y169403D01*
X128606Y168874D01*
X128672Y168772D01*
X129077Y168071D01*
X129097Y168048D01*
X129108Y168020D01*
X132057Y163536D01*
X132127Y163429D01*
X132138Y163413D01*
X132507Y162852D01*
X132528Y162830D01*
X132541Y162803D01*
X136235Y157841D01*
X136258Y157821D01*
X136272Y157795D01*
X138502Y155138D01*
X138537Y155091D01*
X138547Y155084D01*
X138594Y155028D01*
X138698Y154945D01*
X138790Y154848D01*
X139522Y154335D01*
X139569Y154300D01*
X139579Y154295D01*
X139639Y154253D01*
X139761Y154200D01*
X139875Y154130D01*
X140716Y153825D01*
X140770Y153802D01*
X140781Y153801D01*
X140850Y153776D01*
X140982Y153756D01*
X141110Y153718D01*
X142000Y153640D01*
X142058Y153633D01*
X142070Y153634D01*
X142143Y153628D01*
X142275Y153642D01*
X142409Y153639D01*
X143289Y153795D01*
X143347Y153802D01*
X143358Y153807D01*
X143430Y153820D01*
X143554Y153868D01*
X143684Y153900D01*
X144494Y154277D01*
X144548Y154300D01*
X144558Y154307D01*
X144624Y154338D01*
X144731Y154417D01*
X144848Y154481D01*
X145533Y155055D01*
X145580Y155091D01*
X145587Y155101D01*
X145643Y155148D01*
X145726Y155252D01*
X145823Y155344D01*
X146335Y156076D01*
X146371Y156123D01*
X146376Y156133D01*
X146417Y156193D01*
X146471Y156315D01*
X146540Y156429D01*
X146891Y156584D01*
X146934Y156566D01*
X147225D01*
X147687Y156432D01*
X147687Y156104D01*
Y155643D01*
X147989Y154914D01*
X148547Y154355D01*
X149277Y154053D01*
X149654D01*
X150071Y154008D01*
X150116Y153591D01*
Y153214D01*
X150418Y152484D01*
X150977Y151926D01*
X151706Y151624D01*
X152167D01*
X152495Y151624D01*
X152629Y151162D01*
Y150871D01*
X152647Y150828D01*
X152492Y150477D01*
X152378Y150408D01*
X152256Y150354D01*
X152196Y150312D01*
X152185Y150308D01*
X152139Y150272D01*
X151407Y149759D01*
X151314Y149663D01*
X151210Y149580D01*
X151164Y149524D01*
X151154Y149517D01*
X151118Y149470D01*
X150544Y148785D01*
X150480Y148668D01*
X150401Y148561D01*
X150370Y148495D01*
X150363Y148485D01*
X150340Y148431D01*
X149963Y147621D01*
X149931Y147491D01*
X149882Y147367D01*
X149870Y147295D01*
X149865Y147284D01*
X149858Y147226D01*
X149703Y146346D01*
X149705Y146212D01*
X149691Y146080D01*
X149697Y146007D01*
X149696Y145995D01*
X149703Y145937D01*
X149781Y145047D01*
X149819Y144919D01*
X149839Y144787D01*
X149864Y144718D01*
X149865Y144707D01*
X149888Y144653D01*
X150194Y143812D01*
X150263Y143698D01*
X150316Y143576D01*
X150358Y143517D01*
X150363Y143506D01*
X150399Y143459D01*
X150911Y142727D01*
X151008Y142635D01*
X151091Y142531D01*
X151147Y142484D01*
X151154Y142474D01*
X151201Y142439D01*
X153858Y140209D01*
X153884Y140195D01*
X153904Y140172D01*
X158866Y136478D01*
X158893Y136465D01*
X158915Y136444D01*
X159476Y136075D01*
X159492Y136064D01*
X159599Y135994D01*
X164083Y133045D01*
X164111Y133034D01*
X164134Y133014D01*
X164835Y132609D01*
X164937Y132543D01*
X165466Y132245D01*
X169491Y129921D01*
X169519Y129911D01*
X169543Y129893D01*
X170392Y129466D01*
X170585Y129357D01*
X171365Y128978D01*
X175071Y127116D01*
X175100Y127108D01*
X175125Y127091D01*
X176127Y126659D01*
X176415Y126519D01*
X177349Y126132D01*
X180805Y124641D01*
X180834Y124635D01*
X180860Y124619D01*
X182021Y124197D01*
X182406Y124037D01*
X183431Y123684D01*
X186673Y122503D01*
X186703Y122499D01*
X186730Y122485D01*
X188053Y122089D01*
X188536Y121922D01*
X189608Y121623D01*
X192656Y120711D01*
X192686Y120708D01*
X192713Y120695D01*
X194202Y120342D01*
X194782Y120181D01*
X195867Y119948D01*
X198732Y119269D01*
X198762Y119268D01*
X198790Y119257D01*
X200448Y118964D01*
X201122Y118820D01*
X202194Y118657D01*
X204883Y118183D01*
X204913Y118183D01*
X204941Y118174D01*
X206769Y117960D01*
X207533Y117844D01*
X208570Y117750D01*
X211085Y117456D01*
X211115Y117458D01*
X211144Y117450D01*
X213143Y117334D01*
X213991Y117257D01*
X214978Y117227D01*
X217320Y117091D01*
X217350Y117095D01*
X217379Y117089D01*
X219550D01*
X220472Y117061D01*
X221395Y117089D01*
X223566D01*
X223595Y117095D01*
X223625Y117091D01*
X225967Y117227D01*
X226954Y117257D01*
X227801Y117334D01*
X229800Y117450D01*
X229830Y117458D01*
X229859Y117456D01*
X232375Y117750D01*
X233412Y117844D01*
X234176Y117960D01*
X236004Y118174D01*
X236032Y118183D01*
X236062Y118183D01*
X238751Y118657D01*
X239823Y118820D01*
X240497Y118964D01*
X242155Y119257D01*
X242182Y119268D01*
X242213Y119269D01*
X245078Y119948D01*
X246163Y120181D01*
X246743Y120342D01*
X248232Y120695D01*
X248259Y120708D01*
X248289Y120711D01*
X251337Y121623D01*
X252409Y121922D01*
X252892Y122089D01*
X254215Y122485D01*
X254242Y122499D01*
X254272Y122503D01*
X257513Y123683D01*
X258539Y124037D01*
X258924Y124197D01*
X260085Y124619D01*
X260110Y124635D01*
X260140Y124641D01*
X263595Y126132D01*
X264529Y126519D01*
X264818Y126659D01*
X265820Y127091D01*
X265845Y127108D01*
X265874Y127116D01*
X269579Y128978D01*
X270360Y129357D01*
X270553Y129466D01*
X271402Y129893D01*
X271426Y129911D01*
X271454Y129921D01*
X275479Y132245D01*
X276008Y132543D01*
X276110Y132609D01*
X276811Y133014D01*
X276834Y133034D01*
X276862Y133045D01*
X281346Y135994D01*
X281453Y136064D01*
X281469Y136075D01*
X282030Y136444D01*
X282051Y136465D01*
X282079Y136478D01*
X287041Y140172D01*
X287061Y140195D01*
X287087Y140209D01*
X289457Y142197D01*
X289457Y142197D01*
X289744Y142439D01*
X289791Y142474D01*
X289857Y142561D01*
X289917Y142612D01*
X290423Y143257D01*
X290471Y143351D01*
X290535Y143435D01*
X290548Y143462D01*
X290582Y143506D01*
X290646Y143659D01*
X290897Y144170D01*
X290925Y144272D01*
X290971Y144368D01*
X291022Y144568D01*
X291079Y144707D01*
X291103Y144882D01*
X291174Y145161D01*
X291180Y145267D01*
X291205Y145370D01*
X291224Y145805D01*
X291249Y145995D01*
X291237Y146091D01*
X291241Y146188D01*
X291225Y146293D01*
X291228Y146399D01*
X291095Y147207D01*
X291087Y147228D01*
X291079Y147284D01*
X291048Y147361D01*
X291039Y147411D01*
X290742Y148174D01*
X290685Y148264D01*
X290646Y148362D01*
X290611Y148415D01*
X290582Y148485D01*
X290469Y148632D01*
X290198Y149048D01*
X290124Y149124D01*
X290065Y149212D01*
X289891Y149386D01*
X289791Y149517D01*
X289660Y149617D01*
X289517Y149760D01*
X289438Y149813D01*
X289371Y149881D01*
X288861Y150230D01*
X288759Y150308D01*
X288647Y150355D01*
X288602Y150386D01*
X288190Y150567D01*
X288316Y150871D01*
Y151162D01*
X288450Y151624D01*
X288778Y151624D01*
X289239D01*
X289968Y151926D01*
X290527Y152484D01*
X290829Y153214D01*
Y153591D01*
X290874Y154008D01*
X291290Y154053D01*
X291668D01*
X292398Y154355D01*
X292956Y154914D01*
X293258Y155643D01*
Y156104D01*
X293258Y156432D01*
X293720Y156566D01*
X294011D01*
X294054Y156584D01*
X294405Y156429D01*
X294474Y156315D01*
X294528Y156193D01*
X294569Y156133D01*
X294574Y156123D01*
X294610Y156076D01*
X295122Y155344D01*
X295219Y155252D01*
X295302Y155148D01*
X295358Y155101D01*
X295365Y155091D01*
X295412Y155055D01*
X296097Y154481D01*
X296214Y154417D01*
X296321Y154338D01*
X296387Y154307D01*
X296397Y154300D01*
X296451Y154277D01*
X297261Y153900D01*
X297391Y153868D01*
X297515Y153820D01*
X297587Y153807D01*
X297598Y153802D01*
X297656Y153795D01*
X298536Y153639D01*
X298669Y153642D01*
X298802Y153628D01*
X298875Y153634D01*
X298886Y153633D01*
X298944Y153640D01*
X299835Y153718D01*
X299963Y153756D01*
X300095Y153776D01*
X300164Y153801D01*
X300175Y153802D01*
X300229Y153825D01*
X301069Y154130D01*
X301184Y154200D01*
X301306Y154253D01*
X301365Y154295D01*
X301376Y154300D01*
X301423Y154335D01*
X302155Y154848D01*
X302247Y154945D01*
X302351Y155028D01*
X302398Y155084D01*
X302408Y155091D01*
X302443Y155138D01*
X304673Y157795D01*
X304687Y157821D01*
X304710Y157841D01*
X308404Y162803D01*
X308417Y162830D01*
X308438Y162852D01*
X308807Y163413D01*
X308818Y163429D01*
X308888Y163537D01*
X311837Y168020D01*
X311848Y168048D01*
X311868Y168071D01*
X312273Y168772D01*
X312339Y168874D01*
X312638Y169404D01*
X314961Y173428D01*
X314971Y173456D01*
X314989Y173480D01*
X315415Y174329D01*
X315525Y174522D01*
X315905Y175303D01*
X317765Y179008D01*
X317774Y179037D01*
X317791Y179062D01*
X318223Y180064D01*
X318363Y180352D01*
X318750Y181287D01*
X320241Y184742D01*
X320247Y184772D01*
X320263Y184797D01*
X320685Y185958D01*
X320845Y186343D01*
X321199Y187369D01*
X322378Y190610D01*
X322383Y190640D01*
X322397Y190666D01*
X322793Y191990D01*
X322960Y192473D01*
X323259Y193545D01*
X324171Y196593D01*
X324174Y196623D01*
X324187Y196650D01*
X324539Y198139D01*
X324701Y198719D01*
X324934Y199804D01*
X325613Y202669D01*
X325614Y202699D01*
X325625Y202727D01*
X325918Y204385D01*
X326062Y205059D01*
X326225Y206131D01*
X326699Y208820D01*
X326699Y208850D01*
X326708Y208878D01*
X326922Y210706D01*
X327038Y211470D01*
X327132Y212508D01*
X327426Y215022D01*
X327424Y215052D01*
X327431Y215082D01*
X327548Y217080D01*
X327625Y217928D01*
X327655Y218915D01*
X327791Y221257D01*
X327787Y221287D01*
X327793Y221316D01*
Y223487D01*
X327821Y224410D01*
X327793Y225332D01*
Y227502D01*
X327787Y227532D01*
X327791Y227562D01*
X327655Y229904D01*
X327625Y230891D01*
X327548Y231739D01*
X327431Y233737D01*
X327424Y233766D01*
X327426Y233797D01*
X327132Y236311D01*
X327038Y237349D01*
X326922Y238113D01*
X326708Y239941D01*
X326699Y239969D01*
X326699Y239999D01*
X326225Y242688D01*
X326062Y243759D01*
X325918Y244434D01*
X325625Y246092D01*
X325614Y246119D01*
X325613Y246149D01*
X324934Y249015D01*
X324701Y250099D01*
X324539Y250680D01*
X324187Y252169D01*
X324174Y252196D01*
X324171Y252226D01*
X323259Y255274D01*
X322960Y256346D01*
X322793Y256829D01*
X322397Y258152D01*
X322383Y258179D01*
X322378Y258209D01*
X321199Y261450D01*
X320845Y262476D01*
X320685Y262861D01*
X320263Y264022D01*
X320247Y264047D01*
X320241Y264077D01*
X318751Y267531D01*
X318363Y268466D01*
X318223Y268755D01*
X317791Y269757D01*
X317774Y269782D01*
X317765Y269811D01*
X315905Y273516D01*
X315525Y274297D01*
X315415Y274490D01*
X314989Y275339D01*
X314971Y275362D01*
X314961Y275391D01*
X312638Y279415D01*
X312339Y279945D01*
X312273Y280047D01*
X311868Y280748D01*
X311848Y280771D01*
X311837Y280799D01*
X308889Y285282D01*
X308818Y285390D01*
X308807Y285406D01*
X308438Y285967D01*
X308417Y285988D01*
X308404Y286016D01*
X304710Y290978D01*
X304687Y290998D01*
X304673Y291024D01*
X302685Y293394D01*
X302667Y293408D01*
X302655Y293427D01*
X302551Y293541D01*
X302408Y293728D01*
X302277Y293828D01*
X302036Y294069D01*
X301928Y294141D01*
X301831Y294227D01*
X301514Y294413D01*
X301376Y294519D01*
X301233Y294579D01*
X300962Y294737D01*
X300839Y294780D01*
X300724Y294839D01*
X300342Y294947D01*
X300175Y295017D01*
X300032Y295035D01*
X299754Y295114D01*
X299625Y295125D01*
X299498Y295152D01*
X299072Y295162D01*
X298886Y295186D01*
X298754Y295169D01*
X298491Y295175D01*
X298363Y295152D01*
X298233Y295147D01*
X297787Y295041D01*
X297598Y295017D01*
X297485Y294970D01*
X297253Y294915D01*
X297135Y294861D01*
X297010Y294824D01*
X296575Y294593D01*
X296397Y294519D01*
X296310Y294452D01*
X296120Y294352D01*
X296019Y294270D01*
X295908Y294203D01*
X295518Y293845D01*
X295365Y293728D01*
X295306Y293651D01*
X295165Y293522D01*
X295089Y293417D01*
X294998Y293324D01*
X294689Y292846D01*
X294574Y292696D01*
X294542Y292619D01*
X294450Y292478D01*
X294011Y292253D01*
X293720D01*
X293258Y292387D01*
X293258Y292715D01*
Y293176D01*
X292956Y293905D01*
X292398Y294463D01*
X291668Y294766D01*
X291290D01*
X290874Y294811D01*
X290829Y295228D01*
Y295605D01*
X290527Y296335D01*
X289968Y296893D01*
X289239Y297195D01*
X288778D01*
X288450Y297195D01*
X288316Y297657D01*
Y297948D01*
X288541Y298387D01*
X288683Y298479D01*
X288759Y298511D01*
X288909Y298626D01*
X289387Y298935D01*
X289480Y299026D01*
X289585Y299102D01*
X289714Y299243D01*
X289791Y299302D01*
X289908Y299455D01*
X290265Y299845D01*
X290333Y299956D01*
X290415Y300057D01*
X290515Y300247D01*
X290582Y300334D01*
X290656Y300512D01*
X290887Y300947D01*
X290924Y301072D01*
X290978Y301190D01*
X291033Y301422D01*
X291079Y301535D01*
X291104Y301724D01*
X291210Y302170D01*
X291215Y302300D01*
X291237Y302428D01*
X291232Y302691D01*
X291249Y302823D01*
X291225Y303009D01*
X291215Y303435D01*
X291187Y303562D01*
X291177Y303691D01*
X291098Y303969D01*
X291079Y304112D01*
X291010Y304279D01*
X290902Y304661D01*
X290843Y304777D01*
X290800Y304899D01*
X290641Y305170D01*
X290582Y305313D01*
X290476Y305451D01*
X290290Y305768D01*
X290204Y305865D01*
X290132Y305973D01*
X289891Y306214D01*
X289791Y306345D01*
X289604Y306488D01*
X289490Y306592D01*
X289471Y306604D01*
X289457Y306622D01*
X287087Y308610D01*
X287061Y308624D01*
X287041Y308646D01*
X282079Y312341D01*
X282051Y312353D01*
X282030Y312375D01*
X281469Y312744D01*
X281453Y312755D01*
X281345Y312825D01*
X276862Y315774D01*
X276834Y315785D01*
X276811Y315805D01*
X276110Y316210D01*
X276008Y316276D01*
X275478Y316575D01*
X271454Y318898D01*
X271426Y318908D01*
X271402Y318926D01*
X270553Y319352D01*
X270360Y319461D01*
X269579Y319842D01*
X265874Y321703D01*
X265845Y321710D01*
X265820Y321728D01*
X264818Y322160D01*
X264529Y322300D01*
X263595Y322688D01*
X260140Y324178D01*
X260110Y324184D01*
X260085Y324200D01*
X258924Y324622D01*
X258539Y324782D01*
X257513Y325136D01*
X254272Y326315D01*
X254242Y326320D01*
X254215Y326334D01*
X252892Y326730D01*
X252409Y326897D01*
X251337Y327196D01*
X248289Y328108D01*
X248259Y328111D01*
X248232Y328124D01*
X246743Y328477D01*
X246163Y328638D01*
X245078Y328871D01*
X242213Y329550D01*
X242182Y329551D01*
X242155Y329562D01*
X240497Y329854D01*
X239823Y329999D01*
X238751Y330162D01*
X236062Y330636D01*
X236032Y330636D01*
X236004Y330645D01*
X234176Y330859D01*
X233412Y330975D01*
X232374Y331069D01*
X229859Y331363D01*
X229829Y331361D01*
X229800Y331368D01*
X227802Y331485D01*
X226954Y331562D01*
X225967Y331592D01*
X223625Y331728D01*
X223595Y331724D01*
X223566Y331730D01*
X221395D01*
X220472Y331758D01*
D02*
G37*
G36*
X0Y327821D02*
X-923Y327793D01*
X-3093D01*
X-3122Y327787D01*
X-3152Y327791D01*
X-5495Y327655D01*
X-6481Y327625D01*
X-7329Y327548D01*
X-9328Y327431D01*
X-9357Y327424D01*
X-9387Y327426D01*
X-11902Y327132D01*
X-12939Y327038D01*
X-13703Y326922D01*
X-15531Y326708D01*
X-15560Y326699D01*
X-15590Y326699D01*
X-18278Y326225D01*
X-19350Y326062D01*
X-20025Y325918D01*
X-21682Y325625D01*
X-21710Y325614D01*
X-21740Y325613D01*
X-24605Y324934D01*
X-25690Y324701D01*
X-26270Y324539D01*
X-27759Y324187D01*
X-27787Y324174D01*
X-27817Y324171D01*
X-30865Y323259D01*
X-31936Y322960D01*
X-32420Y322793D01*
X-33743Y322397D01*
X-33770Y322383D01*
X-33799Y322378D01*
X-37041Y321199D01*
X-38066Y320845D01*
X-38452Y320685D01*
X-39612Y320263D01*
X-39638Y320247D01*
X-39667Y320241D01*
X-43122Y318750D01*
X-44057Y318363D01*
X-44346Y318223D01*
X-45347Y317791D01*
X-45372Y317774D01*
X-45401Y317765D01*
X-49107Y315905D01*
X-49887Y315525D01*
X-50081Y315415D01*
X-50929Y314989D01*
X-50953Y314971D01*
X-50981Y314961D01*
X-55006Y312638D01*
X-55535Y312339D01*
X-55637Y312273D01*
X-56339Y311868D01*
X-56361Y311848D01*
X-56389Y311837D01*
X-60873Y308888D01*
X-60981Y308818D01*
X-60996Y308807D01*
X-61558Y308438D01*
X-61579Y308417D01*
X-61606Y308404D01*
X-66568Y304710D01*
X-66588Y304687D01*
X-66615Y304673D01*
X-69272Y302443D01*
X-69318Y302408D01*
X-69326Y302398D01*
X-69381Y302351D01*
X-69465Y302247D01*
X-69561Y302155D01*
X-70074Y301423D01*
X-70110Y301376D01*
X-70114Y301365D01*
X-70156Y301306D01*
X-70210Y301184D01*
X-70279Y301069D01*
X-70585Y300229D01*
X-70607Y300175D01*
X-70609Y300164D01*
X-70634Y300095D01*
X-70654Y299963D01*
X-70691Y299835D01*
X-70769Y298944D01*
X-70777Y298886D01*
X-70775Y298875D01*
X-70782Y298802D01*
X-70767Y298669D01*
X-70770Y298536D01*
X-70615Y297656D01*
X-70607Y297598D01*
X-70603Y297587D01*
X-70590Y297515D01*
X-70542Y297391D01*
X-70510Y297261D01*
X-70132Y296451D01*
X-70110Y296397D01*
X-70102Y296387D01*
X-70072Y296321D01*
X-69993Y296214D01*
X-69929Y296097D01*
X-69354Y295412D01*
X-69318Y295365D01*
X-69309Y295358D01*
X-69262Y295302D01*
X-69158Y295219D01*
X-69066Y295122D01*
X-68333Y294610D01*
X-68287Y294574D01*
X-68276Y294569D01*
X-68216Y294528D01*
X-68094Y294474D01*
X-67980Y294405D01*
X-67826Y294054D01*
X-67844Y294011D01*
Y293720D01*
X-67977Y293258D01*
X-68305Y293258D01*
X-68767D01*
X-69496Y292956D01*
X-70054Y292398D01*
X-70356Y291668D01*
Y291290D01*
X-70402Y290874D01*
X-70818Y290829D01*
X-71196D01*
X-71925Y290527D01*
X-72483Y289968D01*
X-72785Y289239D01*
Y288778D01*
X-72785Y288450D01*
X-73247Y288316D01*
X-73539D01*
X-73842Y288190D01*
X-74023Y288602D01*
X-74055Y288647D01*
X-74102Y288759D01*
X-74180Y288861D01*
X-74529Y289371D01*
X-74596Y289438D01*
X-74649Y289517D01*
X-74792Y289660D01*
X-74893Y289791D01*
X-75024Y289891D01*
X-75198Y290065D01*
X-75286Y290124D01*
X-75362Y290198D01*
X-75777Y290470D01*
X-75924Y290582D01*
X-75995Y290611D01*
X-76048Y290646D01*
X-76146Y290685D01*
X-76235Y290742D01*
X-76999Y291039D01*
X-77049Y291048D01*
X-77125Y291079D01*
X-77182Y291087D01*
X-77202Y291095D01*
X-78010Y291228D01*
X-78116Y291225D01*
X-78221Y291241D01*
X-78318Y291237D01*
X-78414Y291249D01*
X-78605Y291224D01*
X-79040Y291205D01*
X-79142Y291180D01*
X-79248Y291174D01*
X-79527Y291103D01*
X-79703Y291079D01*
X-79842Y291022D01*
X-80042Y290971D01*
X-80137Y290925D01*
X-80239Y290897D01*
X-80751Y290646D01*
X-80904Y290582D01*
X-80948Y290548D01*
X-80974Y290535D01*
X-81058Y290471D01*
X-81153Y290423D01*
X-81797Y289917D01*
X-81849Y289857D01*
X-81935Y289791D01*
X-81971Y289744D01*
X-84200Y287087D01*
X-84215Y287061D01*
X-84237Y287041D01*
X-87931Y282079D01*
X-87944Y282051D01*
X-87965Y282030D01*
X-88335Y281469D01*
X-88346Y281453D01*
X-88415Y281346D01*
X-91365Y276862D01*
X-91376Y276834D01*
X-91396Y276811D01*
X-91801Y276110D01*
X-91867Y276008D01*
X-92165Y275479D01*
X-94489Y271454D01*
X-94498Y271426D01*
X-94517Y271402D01*
X-94943Y270553D01*
X-95052Y270360D01*
X-95432Y269579D01*
X-97293Y265874D01*
X-97301Y265845D01*
X-97318Y265820D01*
X-97750Y264818D01*
X-97891Y264529D01*
X-98278Y263595D01*
X-99768Y260140D01*
X-99775Y260110D01*
X-99790Y260085D01*
X-100213Y258924D01*
X-100372Y258539D01*
X-100726Y257513D01*
X-101906Y254272D01*
X-101911Y254242D01*
X-101925Y254215D01*
X-102321Y252892D01*
X-102488Y252409D01*
X-102786Y251337D01*
X-103699Y248289D01*
X-103702Y248259D01*
X-103714Y248232D01*
X-104067Y246743D01*
X-104229Y246163D01*
X-104462Y245078D01*
X-105141Y242213D01*
X-105142Y242182D01*
X-105153Y242155D01*
X-105445Y240497D01*
X-105590Y239823D01*
X-105753Y238751D01*
X-106227Y236062D01*
X-106226Y236032D01*
X-106236Y236004D01*
X-106449Y234176D01*
X-106565Y233412D01*
X-106660Y232375D01*
X-106954Y229859D01*
X-106951Y229829D01*
X-106959Y229800D01*
X-107075Y227801D01*
X-107152Y226954D01*
X-107182Y225967D01*
X-107319Y223625D01*
X-107315Y223595D01*
X-107320Y223566D01*
Y221395D01*
X-107348Y220472D01*
X-107320Y219550D01*
Y217379D01*
X-107315Y217350D01*
X-107319Y217320D01*
X-107182Y214977D01*
X-107152Y213991D01*
X-107075Y213143D01*
X-106959Y211144D01*
X-106951Y211115D01*
X-106954Y211085D01*
X-106660Y208570D01*
X-106565Y207533D01*
X-106449Y206769D01*
X-106236Y204941D01*
X-106226Y204913D01*
X-106227Y204883D01*
X-105753Y202194D01*
X-105590Y201122D01*
X-105445Y200448D01*
X-105153Y198790D01*
X-105142Y198762D01*
X-105141Y198732D01*
X-104462Y195867D01*
X-104229Y194782D01*
X-104067Y194202D01*
X-103714Y192713D01*
X-103702Y192686D01*
X-103699Y192656D01*
X-102786Y189608D01*
X-102488Y188536D01*
X-102321Y188053D01*
X-101925Y186730D01*
X-101911Y186703D01*
X-101906Y186673D01*
X-100726Y183431D01*
X-100372Y182406D01*
X-100213Y182021D01*
X-99790Y180860D01*
X-99775Y180834D01*
X-99768Y180805D01*
X-98278Y177349D01*
X-97891Y176415D01*
X-97750Y176127D01*
X-97318Y175125D01*
X-97301Y175100D01*
X-97293Y175071D01*
X-95432Y171365D01*
X-95052Y170585D01*
X-94943Y170392D01*
X-94517Y169543D01*
X-94498Y169519D01*
X-94489Y169491D01*
X-92165Y165466D01*
X-91867Y164937D01*
X-91801Y164835D01*
X-91396Y164134D01*
X-91376Y164111D01*
X-91365Y164083D01*
X-88415Y159599D01*
X-88346Y159492D01*
X-88335Y159476D01*
X-87965Y158915D01*
X-87944Y158893D01*
X-87931Y158866D01*
X-84237Y153904D01*
X-84215Y153884D01*
X-84200Y153858D01*
X-81971Y151201D01*
X-81935Y151154D01*
X-81926Y151147D01*
X-81879Y151091D01*
X-81775Y151008D01*
X-81683Y150911D01*
X-80950Y150399D01*
X-80904Y150363D01*
X-80893Y150358D01*
X-80833Y150316D01*
X-80711Y150263D01*
X-80597Y150194D01*
X-79757Y149888D01*
X-79703Y149865D01*
X-79691Y149864D01*
X-79623Y149839D01*
X-79491Y149819D01*
X-79363Y149781D01*
X-78472Y149703D01*
X-78414Y149696D01*
X-78402Y149697D01*
X-78330Y149691D01*
X-78197Y149705D01*
X-78064Y149703D01*
X-77183Y149858D01*
X-77125Y149865D01*
X-77114Y149870D01*
X-77042Y149882D01*
X-76918Y149931D01*
X-76789Y149963D01*
X-75978Y150340D01*
X-75924Y150363D01*
X-75915Y150370D01*
X-75849Y150401D01*
X-75741Y150480D01*
X-75624Y150544D01*
X-74940Y151118D01*
X-74893Y151154D01*
X-74886Y151164D01*
X-74830Y151210D01*
X-74746Y151314D01*
X-74650Y151407D01*
X-74137Y152139D01*
X-74102Y152185D01*
X-74097Y152196D01*
X-74055Y152256D01*
X-74001Y152378D01*
X-73932Y152492D01*
X-73582Y152647D01*
X-73539Y152629D01*
X-73247D01*
X-72785Y152495D01*
X-72785Y152167D01*
Y151706D01*
X-72483Y150977D01*
X-71925Y150418D01*
X-71196Y150116D01*
X-70818D01*
X-70402Y150071D01*
X-70356Y149654D01*
Y149277D01*
X-70054Y148547D01*
X-69496Y147989D01*
X-68767Y147687D01*
X-68305D01*
X-67977Y147687D01*
X-67844Y147225D01*
Y146934D01*
X-67826Y146891D01*
X-67980Y146540D01*
X-68094Y146471D01*
X-68216Y146417D01*
X-68276Y146375D01*
X-68287Y146371D01*
X-68334Y146335D01*
X-69066Y145823D01*
X-69158Y145726D01*
X-69262Y145643D01*
X-69309Y145587D01*
X-69318Y145580D01*
X-69354Y145533D01*
X-69929Y144848D01*
X-69993Y144731D01*
X-70072Y144624D01*
X-70102Y144558D01*
X-70110Y144548D01*
X-70132Y144494D01*
X-70510Y143684D01*
X-70542Y143554D01*
X-70590Y143430D01*
X-70603Y143358D01*
X-70607Y143347D01*
X-70615Y143289D01*
X-70770Y142409D01*
X-70767Y142275D01*
X-70782Y142143D01*
X-70775Y142070D01*
X-70777Y142058D01*
X-70769Y142000D01*
X-70691Y141110D01*
X-70654Y140982D01*
X-70634Y140850D01*
X-70609Y140781D01*
X-70607Y140770D01*
X-70585Y140716D01*
X-70279Y139875D01*
X-70210Y139761D01*
X-70156Y139639D01*
X-70114Y139579D01*
X-70110Y139569D01*
X-70074Y139522D01*
X-69561Y138790D01*
X-69465Y138698D01*
X-69381Y138594D01*
X-69326Y138547D01*
X-69318Y138537D01*
X-69272Y138502D01*
X-66615Y136272D01*
X-66588Y136258D01*
X-66568Y136235D01*
X-61606Y132541D01*
X-61579Y132528D01*
X-61558Y132507D01*
X-60996Y132138D01*
X-60981Y132127D01*
X-60874Y132057D01*
X-56389Y129108D01*
X-56361Y129097D01*
X-56339Y129077D01*
X-55637Y128672D01*
X-55535Y128606D01*
X-55006Y128308D01*
X-50981Y125984D01*
X-50953Y125974D01*
X-50929Y125956D01*
X-50081Y125529D01*
X-49887Y125420D01*
X-49107Y125041D01*
X-45401Y123179D01*
X-45372Y123171D01*
X-45347Y123154D01*
X-44345Y122722D01*
X-44057Y122582D01*
X-43123Y122195D01*
X-39667Y120704D01*
X-39638Y120698D01*
X-39612Y120682D01*
X-38451Y120260D01*
X-38066Y120100D01*
X-37041Y119746D01*
X-33799Y118567D01*
X-33770Y118562D01*
X-33743Y118548D01*
X-32420Y118152D01*
X-31936Y117985D01*
X-30865Y117686D01*
X-27817Y116774D01*
X-27787Y116771D01*
X-27759Y116758D01*
X-26270Y116405D01*
X-25690Y116244D01*
X-24606Y116011D01*
X-21740Y115332D01*
X-21710Y115331D01*
X-21682Y115320D01*
X-20024Y115027D01*
X-19350Y114883D01*
X-18279Y114720D01*
X-15590Y114245D01*
X-15560Y114246D01*
X-15531Y114237D01*
X-13703Y114023D01*
X-12939Y113907D01*
X-11902Y113813D01*
X-9387Y113519D01*
X-9357Y113521D01*
X-9328Y113514D01*
X-7329Y113397D01*
X-6481Y113320D01*
X-5495Y113290D01*
X-3152Y113154D01*
X-3122Y113158D01*
X-3093Y113152D01*
X-923D01*
X0Y113124D01*
X923Y113152D01*
X3093D01*
X3122Y113158D01*
X3152Y113154D01*
X5495Y113290D01*
X6481Y113320D01*
X7329Y113397D01*
X9328Y113514D01*
X9357Y113521D01*
X9387Y113519D01*
X11902Y113813D01*
X12939Y113907D01*
X13703Y114023D01*
X15531Y114237D01*
X15560Y114246D01*
X15590Y114245D01*
X18279Y114720D01*
X19350Y114883D01*
X20024Y115027D01*
X21682Y115320D01*
X21710Y115331D01*
X21740Y115332D01*
X24606Y116011D01*
X25690Y116244D01*
X26270Y116405D01*
X27759Y116758D01*
X27787Y116771D01*
X27817Y116774D01*
X30865Y117686D01*
X31936Y117985D01*
X32420Y118152D01*
X33743Y118548D01*
X33770Y118562D01*
X33799Y118567D01*
X37041Y119746D01*
X38066Y120100D01*
X38452Y120260D01*
X39612Y120682D01*
X39638Y120698D01*
X39667Y120704D01*
X43123Y122195D01*
X44057Y122582D01*
X44346Y122722D01*
X45347Y123154D01*
X45372Y123171D01*
X45401Y123179D01*
X49107Y125040D01*
X49887Y125420D01*
X50081Y125529D01*
X50929Y125956D01*
X50953Y125974D01*
X50981Y125984D01*
X55006Y128307D01*
X55535Y128606D01*
X55637Y128672D01*
X56339Y129077D01*
X56361Y129097D01*
X56389Y129108D01*
X60873Y132057D01*
X60981Y132127D01*
X60996Y132138D01*
X61558Y132507D01*
X61579Y132528D01*
X61606Y132541D01*
X66568Y136235D01*
X66588Y136258D01*
X66615Y136272D01*
X68984Y138260D01*
X68984Y138260D01*
X69272Y138502D01*
X69318Y138537D01*
X69384Y138623D01*
X69445Y138675D01*
X69950Y139320D01*
X69998Y139414D01*
X70063Y139498D01*
X70076Y139524D01*
X70110Y139569D01*
X70173Y139722D01*
X70425Y140233D01*
X70452Y140335D01*
X70498Y140431D01*
X70550Y140631D01*
X70607Y140770D01*
X70630Y140945D01*
X70702Y141224D01*
X70707Y141330D01*
X70733Y141433D01*
X70752Y141868D01*
X70777Y142058D01*
X70764Y142154D01*
X70768Y142251D01*
X70752Y142356D01*
X70756Y142462D01*
X70622Y143270D01*
X70614Y143291D01*
X70607Y143347D01*
X70575Y143424D01*
X70567Y143474D01*
X70270Y144237D01*
X70213Y144326D01*
X70173Y144425D01*
X70139Y144477D01*
X70110Y144548D01*
X69997Y144695D01*
X69726Y145111D01*
X69652Y145187D01*
X69593Y145275D01*
X69419Y145449D01*
X69318Y145580D01*
X69187Y145680D01*
X69044Y145823D01*
X68965Y145876D01*
X68899Y145944D01*
X68389Y146293D01*
X68287Y146371D01*
X68174Y146418D01*
X68129Y146449D01*
X67718Y146630D01*
X67844Y146934D01*
Y147225D01*
X67977Y147687D01*
X68305Y147687D01*
X68767D01*
X69496Y147989D01*
X70054Y148547D01*
X70356Y149277D01*
Y149654D01*
X70402Y150071D01*
X70818Y150116D01*
X71196D01*
X71925Y150418D01*
X72483Y150977D01*
X72785Y151706D01*
Y152167D01*
X72785Y152495D01*
X73247Y152629D01*
X73539D01*
X73582Y152647D01*
X73932Y152492D01*
X74001Y152378D01*
X74055Y152256D01*
X74097Y152196D01*
X74102Y152185D01*
X74137Y152139D01*
X74650Y151407D01*
X74746Y151314D01*
X74830Y151210D01*
X74886Y151164D01*
X74893Y151154D01*
X74939Y151118D01*
X75624Y150544D01*
X75741Y150480D01*
X75849Y150401D01*
X75915Y150370D01*
X75924Y150363D01*
X75978Y150340D01*
X76789Y149963D01*
X76918Y149931D01*
X77042Y149882D01*
X77114Y149870D01*
X77125Y149865D01*
X77183Y149858D01*
X78064Y149703D01*
X78197Y149705D01*
X78330Y149691D01*
X78402Y149697D01*
X78414Y149696D01*
X78472Y149703D01*
X79363Y149781D01*
X79491Y149819D01*
X79623Y149839D01*
X79691Y149864D01*
X79703Y149865D01*
X79757Y149888D01*
X80597Y150194D01*
X80711Y150263D01*
X80833Y150316D01*
X80893Y150358D01*
X80904Y150363D01*
X80950Y150399D01*
X81683Y150911D01*
X81775Y151008D01*
X81879Y151091D01*
X81926Y151147D01*
X81935Y151154D01*
X81971Y151201D01*
X84200Y153858D01*
X84215Y153884D01*
X84237Y153904D01*
X87931Y158866D01*
X87944Y158893D01*
X87965Y158915D01*
X88335Y159476D01*
X88346Y159492D01*
X88416Y159600D01*
X91365Y164083D01*
X91376Y164111D01*
X91396Y164134D01*
X91800Y164835D01*
X91867Y164937D01*
X92165Y165467D01*
X94489Y169491D01*
X94498Y169519D01*
X94517Y169543D01*
X94943Y170392D01*
X95052Y170585D01*
X95432Y171366D01*
X97293Y175071D01*
X97301Y175100D01*
X97318Y175125D01*
X97750Y176127D01*
X97891Y176415D01*
X98278Y177350D01*
X99768Y180805D01*
X99775Y180834D01*
X99790Y180860D01*
X100213Y182021D01*
X100372Y182406D01*
X100726Y183432D01*
X101906Y186673D01*
X101911Y186703D01*
X101925Y186730D01*
X102321Y188053D01*
X102488Y188536D01*
X102786Y189608D01*
X103699Y192656D01*
X103702Y192686D01*
X103714Y192713D01*
X104067Y194202D01*
X104229Y194782D01*
X104462Y195867D01*
X105141Y198732D01*
X105142Y198762D01*
X105153Y198790D01*
X105445Y200448D01*
X105590Y201122D01*
X105753Y202194D01*
X106227Y204883D01*
X106226Y204913D01*
X106236Y204941D01*
X106449Y206769D01*
X106565Y207533D01*
X106660Y208570D01*
X106954Y211085D01*
X106951Y211115D01*
X106959Y211144D01*
X107075Y213143D01*
X107152Y213991D01*
X107182Y214978D01*
X107319Y217320D01*
X107314Y217350D01*
X107320Y217379D01*
Y219550D01*
X107348Y220472D01*
X107320Y221395D01*
Y223566D01*
X107315Y223595D01*
X107319Y223625D01*
X107182Y225967D01*
X107152Y226954D01*
X107075Y227802D01*
X106959Y229800D01*
X106951Y229829D01*
X106954Y229859D01*
X106660Y232374D01*
X106565Y233412D01*
X106449Y234176D01*
X106236Y236004D01*
X106226Y236032D01*
X106227Y236062D01*
X105753Y238751D01*
X105590Y239823D01*
X105445Y240497D01*
X105153Y242155D01*
X105142Y242182D01*
X105141Y242213D01*
X104462Y245078D01*
X104229Y246163D01*
X104067Y246743D01*
X103714Y248232D01*
X103702Y248259D01*
X103699Y248289D01*
X102786Y251337D01*
X102488Y252409D01*
X102321Y252892D01*
X101925Y254215D01*
X101911Y254242D01*
X101906Y254272D01*
X100726Y257513D01*
X100372Y258539D01*
X100213Y258924D01*
X99790Y260085D01*
X99775Y260110D01*
X99768Y260140D01*
X98278Y263595D01*
X97891Y264529D01*
X97750Y264818D01*
X97318Y265820D01*
X97301Y265845D01*
X97293Y265874D01*
X95432Y269579D01*
X95052Y270360D01*
X94943Y270553D01*
X94517Y271402D01*
X94498Y271426D01*
X94489Y271454D01*
X92165Y275478D01*
X91867Y276008D01*
X91800Y276110D01*
X91396Y276811D01*
X91376Y276834D01*
X91364Y276862D01*
X88416Y281345D01*
X88346Y281453D01*
X88334Y281469D01*
X87965Y282030D01*
X87944Y282051D01*
X87931Y282079D01*
X84237Y287041D01*
X84215Y287061D01*
X84200Y287087D01*
X82212Y289457D01*
X82195Y289471D01*
X82183Y289490D01*
X82078Y289604D01*
X81935Y289791D01*
X81804Y289891D01*
X81564Y290132D01*
X81456Y290204D01*
X81359Y290290D01*
X81041Y290476D01*
X80904Y290582D01*
X80760Y290641D01*
X80490Y290800D01*
X80367Y290843D01*
X80252Y290902D01*
X79870Y291010D01*
X79703Y291079D01*
X79559Y291098D01*
X79282Y291177D01*
X79153Y291187D01*
X79026Y291215D01*
X78599Y291225D01*
X78414Y291249D01*
X78281Y291232D01*
X78018Y291237D01*
X77891Y291215D01*
X77761Y291210D01*
X77315Y291104D01*
X77125Y291079D01*
X77013Y291033D01*
X76780Y290978D01*
X76662Y290924D01*
X76538Y290887D01*
X76103Y290656D01*
X75924Y290582D01*
X75837Y290515D01*
X75647Y290415D01*
X75547Y290333D01*
X75436Y290265D01*
X75046Y289908D01*
X74893Y289791D01*
X74834Y289714D01*
X74693Y289585D01*
X74616Y289480D01*
X74526Y289387D01*
X74216Y288909D01*
X74102Y288759D01*
X74070Y288683D01*
X73978Y288541D01*
X73539Y288316D01*
X73247D01*
X72785Y288450D01*
X72785Y288778D01*
Y289239D01*
X72483Y289968D01*
X71925Y290527D01*
X71196Y290829D01*
X70818D01*
X70402Y290874D01*
X70356Y291290D01*
Y291668D01*
X70054Y292398D01*
X69496Y292956D01*
X68767Y293258D01*
X68305D01*
X67977Y293258D01*
X67844Y293720D01*
Y294011D01*
X68068Y294450D01*
X68210Y294542D01*
X68287Y294574D01*
X68436Y294689D01*
X68915Y294998D01*
X69008Y295089D01*
X69112Y295165D01*
X69242Y295306D01*
X69318Y295365D01*
X69436Y295518D01*
X69793Y295908D01*
X69860Y296019D01*
X69942Y296120D01*
X70043Y296310D01*
X70110Y296397D01*
X70183Y296575D01*
X70414Y297010D01*
X70451Y297135D01*
X70505Y297253D01*
X70560Y297485D01*
X70607Y297598D01*
X70632Y297787D01*
X70738Y298233D01*
X70742Y298363D01*
X70765Y298491D01*
X70759Y298754D01*
X70777Y298886D01*
X70752Y299072D01*
X70743Y299498D01*
X70715Y299625D01*
X70705Y299754D01*
X70626Y300032D01*
X70607Y300175D01*
X70538Y300342D01*
X70430Y300724D01*
X70371Y300839D01*
X70328Y300962D01*
X70169Y301233D01*
X70110Y301376D01*
X70004Y301514D01*
X69818Y301831D01*
X69731Y301928D01*
X69659Y302036D01*
X69419Y302277D01*
X69318Y302408D01*
X69131Y302551D01*
X69018Y302655D01*
X68998Y302667D01*
X68984Y302685D01*
X66615Y304673D01*
X66588Y304687D01*
X66568Y304710D01*
X61606Y308404D01*
X61579Y308417D01*
X61558Y308438D01*
X60996Y308807D01*
X60981Y308818D01*
X60872Y308888D01*
X56389Y311837D01*
X56361Y311848D01*
X56339Y311868D01*
X55638Y312273D01*
X55535Y312339D01*
X55005Y312638D01*
X50981Y314961D01*
X50953Y314971D01*
X50929Y314989D01*
X50081Y315415D01*
X49887Y315525D01*
X49106Y315905D01*
X45401Y317765D01*
X45372Y317774D01*
X45347Y317791D01*
X44346Y318223D01*
X44057Y318363D01*
X43122Y318751D01*
X39667Y320241D01*
X39638Y320247D01*
X39612Y320263D01*
X38452Y320685D01*
X38066Y320845D01*
X37040Y321199D01*
X33799Y322378D01*
X33770Y322383D01*
X33743Y322397D01*
X32420Y322793D01*
X31936Y322960D01*
X30864Y323259D01*
X27817Y324171D01*
X27787Y324174D01*
X27759Y324187D01*
X26270Y324539D01*
X25690Y324701D01*
X24605Y324934D01*
X21740Y325613D01*
X21710Y325614D01*
X21682Y325625D01*
X20025Y325918D01*
X19350Y326062D01*
X18278Y326225D01*
X15590Y326699D01*
X15560Y326699D01*
X15531Y326708D01*
X13704Y326922D01*
X12939Y327038D01*
X11902Y327132D01*
X9387Y327426D01*
X9357Y327424D01*
X9328Y327431D01*
X7329Y327548D01*
X6481Y327625D01*
X5494Y327655D01*
X3152Y327791D01*
X3122Y327787D01*
X3093Y327793D01*
X923D01*
X0Y327821D01*
D02*
G37*
G36*
X331562Y341551D02*
X329855D01*
X328170Y341284D01*
X326547Y340757D01*
X325026Y339982D01*
X323645Y338979D01*
X322439Y337772D01*
X321435Y336391D01*
X320660Y334871D01*
X320133Y333248D01*
X319866Y331562D01*
Y329855D01*
X320133Y328170D01*
X320660Y326547D01*
X321435Y325026D01*
X322439Y323645D01*
X323645Y322439D01*
X325026Y321435D01*
X326547Y320660D01*
X328170Y320133D01*
X329855Y319866D01*
X331562D01*
X333248Y320133D01*
X334871Y320660D01*
X336391Y321435D01*
X337772Y322439D01*
X338979Y323645D01*
X339982Y325026D01*
X340757Y326547D01*
X341284Y328170D01*
X341551Y329855D01*
Y331562D01*
X341284Y333248D01*
X340757Y334871D01*
X339982Y336391D01*
X338979Y337772D01*
X337772Y338979D01*
X336391Y339982D01*
X334871Y340757D01*
X333248Y341284D01*
X331562Y341551D01*
D02*
G37*
G36*
X-109383D02*
X-111090D01*
X-112775Y341284D01*
X-114398Y340757D01*
X-115919Y339982D01*
X-117300Y338979D01*
X-118506Y337772D01*
X-119510Y336391D01*
X-120284Y334871D01*
X-120812Y333248D01*
X-121079Y331562D01*
Y329855D01*
X-120812Y328170D01*
X-120284Y326547D01*
X-119510Y325026D01*
X-118506Y323645D01*
X-117300Y322439D01*
X-115919Y321435D01*
X-114398Y320660D01*
X-112775Y320133D01*
X-111090Y319866D01*
X-109383D01*
X-107697Y320133D01*
X-106074Y320660D01*
X-104553Y321435D01*
X-103173Y322439D01*
X-101966Y323645D01*
X-100963Y325026D01*
X-100188Y326547D01*
X-99661Y328170D01*
X-99394Y329855D01*
Y331562D01*
X-99661Y333248D01*
X-100188Y334871D01*
X-100963Y336391D01*
X-101966Y337772D01*
X-103173Y338979D01*
X-104553Y339982D01*
X-106074Y340757D01*
X-107697Y341284D01*
X-109383Y341551D01*
D02*
G37*
G36*
X220472Y111285D02*
X219550Y111257D01*
X217379D01*
X217350Y111251D01*
X217320Y111256D01*
X214978Y111119D01*
X213991Y111089D01*
X213143Y111012D01*
X211144Y110896D01*
X211115Y110888D01*
X211085Y110891D01*
X208570Y110597D01*
X207533Y110503D01*
X206769Y110386D01*
X204941Y110173D01*
X204913Y110163D01*
X204883Y110164D01*
X202194Y109690D01*
X201122Y109527D01*
X200448Y109382D01*
X198790Y109090D01*
X198762Y109079D01*
X198732Y109078D01*
X195867Y108399D01*
X194782Y108166D01*
X194202Y108004D01*
X192713Y107651D01*
X192686Y107639D01*
X192656Y107636D01*
X189608Y106723D01*
X188536Y106425D01*
X188053Y106258D01*
X186730Y105862D01*
X186703Y105848D01*
X186673Y105843D01*
X183432Y104663D01*
X182406Y104309D01*
X182021Y104150D01*
X180860Y103727D01*
X180834Y103712D01*
X180805Y103705D01*
X177350Y102215D01*
X176415Y101828D01*
X176127Y101687D01*
X175125Y101255D01*
X175100Y101238D01*
X175071Y101230D01*
X171366Y99369D01*
X170585Y98989D01*
X170392Y98880D01*
X169543Y98454D01*
X169519Y98435D01*
X169491Y98426D01*
X165467Y96102D01*
X164937Y95804D01*
X164835Y95737D01*
X164134Y95333D01*
X164111Y95313D01*
X164083Y95302D01*
X159600Y92353D01*
X159492Y92283D01*
X159476Y92272D01*
X158915Y91902D01*
X158893Y91881D01*
X158866Y91868D01*
X153904Y88174D01*
X153884Y88152D01*
X153858Y88137D01*
X151201Y85908D01*
X151154Y85872D01*
X151147Y85863D01*
X151091Y85816D01*
X151008Y85712D01*
X150911Y85620D01*
X150399Y84887D01*
X150363Y84841D01*
X150358Y84830D01*
X150316Y84770D01*
X150263Y84648D01*
X150194Y84534D01*
X149888Y83694D01*
X149865Y83640D01*
X149864Y83628D01*
X149839Y83560D01*
X149819Y83428D01*
X149781Y83300D01*
X149703Y82409D01*
X149696Y82351D01*
X149697Y82339D01*
X149691Y82267D01*
X149705Y82134D01*
X149703Y82001D01*
X149858Y81120D01*
X149865Y81062D01*
X149870Y81051D01*
X149882Y80979D01*
X149931Y80855D01*
X149963Y80726D01*
X150340Y79915D01*
X150363Y79861D01*
X150370Y79852D01*
X150401Y79786D01*
X150480Y79678D01*
X150544Y79561D01*
X151118Y78877D01*
X151154Y78830D01*
X151164Y78823D01*
X151210Y78767D01*
X151314Y78683D01*
X151407Y78587D01*
X152139Y78074D01*
X152185Y78039D01*
X152196Y78034D01*
X152256Y77992D01*
X152378Y77938D01*
X152492Y77869D01*
X152647Y77519D01*
X152629Y77476D01*
Y77184D01*
X152495Y76722D01*
X152167Y76722D01*
X151706D01*
X150977Y76420D01*
X150418Y75862D01*
X150116Y75133D01*
Y74755D01*
X150071Y74339D01*
X149654Y74293D01*
X149277D01*
X148547Y73991D01*
X147989Y73433D01*
X147687Y72704D01*
Y72242D01*
X147687Y71914D01*
X147225Y71781D01*
X146934D01*
X146630Y71655D01*
X146449Y72066D01*
X146418Y72111D01*
X146371Y72224D01*
X146293Y72326D01*
X145944Y72836D01*
X145876Y72902D01*
X145823Y72981D01*
X145680Y73124D01*
X145580Y73255D01*
X145449Y73356D01*
X145275Y73530D01*
X145187Y73589D01*
X145111Y73663D01*
X144695Y73934D01*
X144548Y74047D01*
X144477Y74076D01*
X144425Y74110D01*
X144326Y74150D01*
X144237Y74207D01*
X143474Y74504D01*
X143424Y74512D01*
X143347Y74544D01*
X143291Y74551D01*
X143270Y74559D01*
X142462Y74693D01*
X142356Y74689D01*
X142251Y74705D01*
X142154Y74701D01*
X142058Y74714D01*
X141868Y74689D01*
X141433Y74670D01*
X141330Y74645D01*
X141224Y74639D01*
X140945Y74567D01*
X140770Y74544D01*
X140631Y74487D01*
X140431Y74435D01*
X140335Y74389D01*
X140233Y74362D01*
X139722Y74110D01*
X139569Y74047D01*
X139524Y74013D01*
X139498Y74000D01*
X139414Y73935D01*
X139320Y73887D01*
X138675Y73382D01*
X138623Y73321D01*
X138537Y73255D01*
X138502Y73209D01*
X136272Y70552D01*
X136258Y70525D01*
X136235Y70505D01*
X132541Y65543D01*
X132528Y65516D01*
X132507Y65495D01*
X132138Y64933D01*
X132127Y64918D01*
X132057Y64810D01*
X129108Y60326D01*
X129097Y60298D01*
X129077Y60276D01*
X128672Y59574D01*
X128606Y59472D01*
X128307Y58943D01*
X125984Y54918D01*
X125974Y54890D01*
X125956Y54866D01*
X125529Y54018D01*
X125420Y53824D01*
X125040Y53044D01*
X123179Y49338D01*
X123171Y49309D01*
X123154Y49284D01*
X122722Y48283D01*
X122582Y47994D01*
X122195Y47060D01*
X120704Y43604D01*
X120698Y43575D01*
X120682Y43549D01*
X120260Y42389D01*
X120100Y42003D01*
X119746Y40978D01*
X118567Y37736D01*
X118562Y37707D01*
X118548Y37680D01*
X118152Y36357D01*
X117985Y35873D01*
X117686Y34802D01*
X116774Y31754D01*
X116771Y31724D01*
X116758Y31696D01*
X116405Y30207D01*
X116244Y29627D01*
X116011Y28543D01*
X115332Y25677D01*
X115331Y25647D01*
X115320Y25619D01*
X115027Y23961D01*
X114883Y23287D01*
X114720Y22216D01*
X114245Y19527D01*
X114246Y19497D01*
X114237Y19468D01*
X114023Y17640D01*
X113907Y16876D01*
X113813Y15839D01*
X113519Y13324D01*
X113521Y13294D01*
X113514Y13265D01*
X113397Y11266D01*
X113320Y10419D01*
X113290Y9432D01*
X113154Y7089D01*
X113158Y7060D01*
X113152Y7030D01*
Y4860D01*
X113124Y3937D01*
X113152Y3015D01*
Y844D01*
X113158Y814D01*
X113154Y785D01*
X113290Y-1558D01*
X113320Y-2544D01*
X113397Y-3392D01*
X113514Y-5391D01*
X113521Y-5420D01*
X113519Y-5450D01*
X113813Y-7965D01*
X113907Y-9002D01*
X114023Y-9766D01*
X114237Y-11594D01*
X114246Y-11623D01*
X114245Y-11653D01*
X114720Y-14342D01*
X114883Y-15413D01*
X115027Y-16087D01*
X115320Y-17745D01*
X115331Y-17773D01*
X115332Y-17803D01*
X116011Y-20669D01*
X116244Y-21753D01*
X116405Y-22333D01*
X116758Y-23822D01*
X116771Y-23850D01*
X116774Y-23880D01*
X117686Y-26928D01*
X117985Y-27999D01*
X118152Y-28483D01*
X118548Y-29806D01*
X118562Y-29833D01*
X118567Y-29862D01*
X119746Y-33104D01*
X120100Y-34129D01*
X120260Y-34514D01*
X120682Y-35675D01*
X120698Y-35701D01*
X120704Y-35730D01*
X122195Y-39186D01*
X122582Y-40120D01*
X122722Y-40408D01*
X123154Y-41410D01*
X123171Y-41435D01*
X123179Y-41464D01*
X125041Y-45170D01*
X125420Y-45950D01*
X125529Y-46143D01*
X125956Y-46992D01*
X125974Y-47016D01*
X125984Y-47045D01*
X128308Y-51070D01*
X128606Y-51598D01*
X128672Y-51700D01*
X129077Y-52402D01*
X129097Y-52424D01*
X129108Y-52452D01*
X132057Y-56937D01*
X132127Y-57044D01*
X132138Y-57059D01*
X132507Y-57621D01*
X132528Y-57642D01*
X132541Y-57669D01*
X136235Y-62631D01*
X136258Y-62651D01*
X136272Y-62678D01*
X138502Y-65335D01*
X138537Y-65381D01*
X138547Y-65389D01*
X138594Y-65444D01*
X138698Y-65528D01*
X138790Y-65624D01*
X139522Y-66137D01*
X139569Y-66173D01*
X139579Y-66177D01*
X139639Y-66219D01*
X139761Y-66273D01*
X139875Y-66342D01*
X140716Y-66648D01*
X140770Y-66670D01*
X140781Y-66672D01*
X140850Y-66697D01*
X140982Y-66717D01*
X141110Y-66754D01*
X142000Y-66832D01*
X142058Y-66840D01*
X142070Y-66838D01*
X142143Y-66845D01*
X142275Y-66830D01*
X142409Y-66833D01*
X143289Y-66678D01*
X143347Y-66670D01*
X143358Y-66666D01*
X143430Y-66653D01*
X143554Y-66605D01*
X143684Y-66573D01*
X144494Y-66195D01*
X144548Y-66173D01*
X144558Y-66165D01*
X144624Y-66135D01*
X144731Y-66056D01*
X144848Y-65992D01*
X145533Y-65417D01*
X145580Y-65381D01*
X145587Y-65372D01*
X145643Y-65325D01*
X145726Y-65221D01*
X145823Y-65129D01*
X146335Y-64397D01*
X146371Y-64350D01*
X146376Y-64339D01*
X146417Y-64279D01*
X146471Y-64157D01*
X146540Y-64043D01*
X146891Y-63889D01*
X146934Y-63907D01*
X147225D01*
X147687Y-64040D01*
X147687Y-64368D01*
Y-64830D01*
X147989Y-65559D01*
X148547Y-66117D01*
X149277Y-66419D01*
X149654D01*
X150071Y-66465D01*
X150116Y-66881D01*
Y-67259D01*
X150418Y-67988D01*
X150977Y-68546D01*
X151706Y-68848D01*
X152167D01*
X152495Y-68848D01*
X152629Y-69310D01*
Y-69602D01*
X152647Y-69645D01*
X152492Y-69995D01*
X152378Y-70064D01*
X152256Y-70118D01*
X152196Y-70160D01*
X152185Y-70165D01*
X152139Y-70200D01*
X151407Y-70713D01*
X151314Y-70809D01*
X151210Y-70893D01*
X151164Y-70949D01*
X151154Y-70956D01*
X151118Y-71003D01*
X150544Y-71687D01*
X150480Y-71804D01*
X150401Y-71912D01*
X150370Y-71978D01*
X150363Y-71987D01*
X150340Y-72041D01*
X149963Y-72852D01*
X149931Y-72981D01*
X149882Y-73105D01*
X149870Y-73177D01*
X149865Y-73188D01*
X149858Y-73246D01*
X149703Y-74127D01*
X149705Y-74260D01*
X149691Y-74393D01*
X149697Y-74465D01*
X149696Y-74477D01*
X149703Y-74535D01*
X149781Y-75426D01*
X149819Y-75554D01*
X149839Y-75686D01*
X149864Y-75754D01*
X149865Y-75766D01*
X149888Y-75820D01*
X150194Y-76660D01*
X150263Y-76774D01*
X150316Y-76896D01*
X150358Y-76956D01*
X150363Y-76967D01*
X150399Y-77013D01*
X150911Y-77746D01*
X151008Y-77838D01*
X151091Y-77942D01*
X151147Y-77989D01*
X151154Y-77998D01*
X151201Y-78034D01*
X153858Y-80263D01*
X153884Y-80278D01*
X153904Y-80300D01*
X158866Y-83994D01*
X158893Y-84007D01*
X158915Y-84028D01*
X159476Y-84398D01*
X159492Y-84409D01*
X159599Y-84478D01*
X164083Y-87428D01*
X164111Y-87439D01*
X164134Y-87459D01*
X164835Y-87864D01*
X164937Y-87930D01*
X165466Y-88228D01*
X169491Y-90552D01*
X169519Y-90561D01*
X169543Y-90580D01*
X170392Y-91006D01*
X170585Y-91115D01*
X171365Y-91495D01*
X175071Y-93356D01*
X175100Y-93364D01*
X175125Y-93381D01*
X176127Y-93813D01*
X176415Y-93954D01*
X177349Y-94341D01*
X180805Y-95831D01*
X180834Y-95838D01*
X180860Y-95853D01*
X182021Y-96276D01*
X182406Y-96435D01*
X183431Y-96789D01*
X186673Y-97969D01*
X186703Y-97974D01*
X186730Y-97988D01*
X188053Y-98384D01*
X188536Y-98550D01*
X189608Y-98849D01*
X192656Y-99762D01*
X192686Y-99765D01*
X192713Y-99777D01*
X194202Y-100130D01*
X194782Y-100292D01*
X195867Y-100525D01*
X198732Y-101204D01*
X198762Y-101205D01*
X198790Y-101216D01*
X200448Y-101508D01*
X201122Y-101653D01*
X202194Y-101816D01*
X204883Y-102290D01*
X204913Y-102289D01*
X204941Y-102299D01*
X206769Y-102512D01*
X207533Y-102629D01*
X208570Y-102723D01*
X211085Y-103017D01*
X211115Y-103014D01*
X211144Y-103022D01*
X213143Y-103138D01*
X213991Y-103215D01*
X214978Y-103245D01*
X217320Y-103382D01*
X217350Y-103377D01*
X217379Y-103383D01*
X219550D01*
X220472Y-103411D01*
X221395Y-103383D01*
X223566D01*
X223595Y-103377D01*
X223625Y-103382D01*
X225967Y-103245D01*
X226954Y-103215D01*
X227801Y-103138D01*
X229800Y-103022D01*
X229830Y-103014D01*
X229859Y-103017D01*
X232375Y-102723D01*
X233412Y-102629D01*
X234176Y-102512D01*
X236004Y-102299D01*
X236032Y-102289D01*
X236062Y-102290D01*
X238751Y-101816D01*
X239823Y-101653D01*
X240497Y-101508D01*
X242155Y-101216D01*
X242182Y-101205D01*
X242213Y-101204D01*
X245078Y-100525D01*
X246163Y-100292D01*
X246743Y-100130D01*
X248232Y-99777D01*
X248259Y-99765D01*
X248289Y-99762D01*
X251337Y-98849D01*
X252409Y-98550D01*
X252892Y-98384D01*
X254215Y-97988D01*
X254242Y-97974D01*
X254272Y-97969D01*
X257513Y-96789D01*
X258539Y-96435D01*
X258924Y-96276D01*
X260085Y-95853D01*
X260110Y-95838D01*
X260140Y-95831D01*
X263595Y-94341D01*
X264529Y-93954D01*
X264818Y-93813D01*
X265820Y-93381D01*
X265845Y-93364D01*
X265874Y-93356D01*
X269579Y-91495D01*
X270360Y-91115D01*
X270553Y-91006D01*
X271402Y-90580D01*
X271426Y-90561D01*
X271454Y-90552D01*
X275479Y-88228D01*
X276008Y-87930D01*
X276110Y-87864D01*
X276811Y-87459D01*
X276834Y-87439D01*
X276862Y-87427D01*
X281346Y-84478D01*
X281453Y-84409D01*
X281469Y-84398D01*
X282030Y-84028D01*
X282051Y-84007D01*
X282079Y-83994D01*
X287041Y-80300D01*
X287061Y-80278D01*
X287087Y-80263D01*
X289457Y-78275D01*
X289457Y-78275D01*
X289744Y-78034D01*
X289791Y-77998D01*
X289857Y-77912D01*
X289917Y-77860D01*
X290423Y-77216D01*
X290471Y-77121D01*
X290535Y-77037D01*
X290548Y-77011D01*
X290582Y-76967D01*
X290646Y-76814D01*
X290897Y-76302D01*
X290925Y-76200D01*
X290971Y-76105D01*
X291022Y-75905D01*
X291079Y-75766D01*
X291103Y-75590D01*
X291174Y-75311D01*
X291180Y-75205D01*
X291205Y-75103D01*
X291224Y-74668D01*
X291249Y-74477D01*
X291237Y-74381D01*
X291241Y-74284D01*
X291225Y-74179D01*
X291228Y-74073D01*
X291095Y-73265D01*
X291087Y-73245D01*
X291079Y-73188D01*
X291048Y-73112D01*
X291039Y-73062D01*
X290742Y-72298D01*
X290685Y-72209D01*
X290646Y-72111D01*
X290611Y-72058D01*
X290582Y-71987D01*
X290469Y-71840D01*
X290198Y-71425D01*
X290124Y-71349D01*
X290065Y-71261D01*
X289891Y-71087D01*
X289791Y-70956D01*
X289660Y-70855D01*
X289517Y-70712D01*
X289438Y-70659D01*
X289371Y-70591D01*
X288861Y-70243D01*
X288759Y-70165D01*
X288647Y-70118D01*
X288602Y-70086D01*
X288190Y-69905D01*
X288316Y-69602D01*
Y-69310D01*
X288450Y-68848D01*
X288778Y-68848D01*
X289239D01*
X289968Y-68546D01*
X290527Y-67988D01*
X290829Y-67259D01*
Y-66881D01*
X290874Y-66465D01*
X291290Y-66419D01*
X291668D01*
X292398Y-66117D01*
X292956Y-65559D01*
X293258Y-64830D01*
Y-64368D01*
X293258Y-64040D01*
X293720Y-63907D01*
X294011D01*
X294054Y-63889D01*
X294405Y-64043D01*
X294474Y-64157D01*
X294528Y-64279D01*
X294569Y-64339D01*
X294574Y-64350D01*
X294610Y-64397D01*
X295122Y-65129D01*
X295219Y-65221D01*
X295302Y-65325D01*
X295358Y-65372D01*
X295365Y-65381D01*
X295412Y-65417D01*
X296097Y-65992D01*
X296214Y-66056D01*
X296321Y-66135D01*
X296387Y-66165D01*
X296397Y-66173D01*
X296451Y-66195D01*
X297261Y-66573D01*
X297391Y-66605D01*
X297515Y-66653D01*
X297587Y-66666D01*
X297598Y-66670D01*
X297656Y-66678D01*
X298536Y-66833D01*
X298669Y-66830D01*
X298802Y-66845D01*
X298875Y-66838D01*
X298886Y-66840D01*
X298944Y-66832D01*
X299835Y-66754D01*
X299963Y-66717D01*
X300095Y-66697D01*
X300164Y-66672D01*
X300175Y-66670D01*
X300229Y-66648D01*
X301069Y-66342D01*
X301184Y-66273D01*
X301306Y-66219D01*
X301365Y-66177D01*
X301376Y-66173D01*
X301423Y-66137D01*
X302155Y-65624D01*
X302247Y-65528D01*
X302351Y-65444D01*
X302398Y-65389D01*
X302408Y-65381D01*
X302443Y-65335D01*
X304673Y-62678D01*
X304687Y-62651D01*
X304710Y-62631D01*
X308404Y-57669D01*
X308417Y-57642D01*
X308438Y-57621D01*
X308807Y-57059D01*
X308818Y-57044D01*
X308888Y-56936D01*
X311837Y-52452D01*
X311848Y-52424D01*
X311868Y-52402D01*
X312273Y-51700D01*
X312339Y-51598D01*
X312638Y-51069D01*
X314961Y-47045D01*
X314971Y-47016D01*
X314989Y-46992D01*
X315415Y-46144D01*
X315525Y-45950D01*
X315905Y-45170D01*
X317765Y-41464D01*
X317774Y-41435D01*
X317791Y-41410D01*
X318223Y-40409D01*
X318363Y-40120D01*
X318750Y-39185D01*
X320241Y-35730D01*
X320247Y-35701D01*
X320263Y-35675D01*
X320685Y-34515D01*
X320845Y-34129D01*
X321199Y-33104D01*
X322378Y-29862D01*
X322383Y-29833D01*
X322397Y-29806D01*
X322793Y-28483D01*
X322960Y-27999D01*
X323259Y-26928D01*
X324171Y-23880D01*
X324174Y-23850D01*
X324187Y-23822D01*
X324539Y-22333D01*
X324701Y-21753D01*
X324934Y-20668D01*
X325613Y-17803D01*
X325614Y-17773D01*
X325625Y-17745D01*
X325918Y-16088D01*
X326062Y-15413D01*
X326225Y-14341D01*
X326699Y-11653D01*
X326699Y-11623D01*
X326708Y-11594D01*
X326922Y-9766D01*
X327038Y-9002D01*
X327132Y-7965D01*
X327426Y-5450D01*
X327424Y-5420D01*
X327431Y-5391D01*
X327548Y-3392D01*
X327625Y-2544D01*
X327655Y-1557D01*
X327791Y785D01*
X327787Y814D01*
X327793Y844D01*
Y3014D01*
X327821Y3937D01*
X327793Y4860D01*
Y7030D01*
X327787Y7060D01*
X327791Y7089D01*
X327655Y9432D01*
X327625Y10419D01*
X327548Y11266D01*
X327431Y13265D01*
X327424Y13294D01*
X327426Y13324D01*
X327132Y15839D01*
X327038Y16876D01*
X326922Y17641D01*
X326708Y19468D01*
X326699Y19497D01*
X326699Y19527D01*
X326225Y22215D01*
X326062Y23287D01*
X325918Y23962D01*
X325625Y25619D01*
X325614Y25647D01*
X325613Y25677D01*
X324934Y28542D01*
X324701Y29627D01*
X324539Y30207D01*
X324187Y31696D01*
X324174Y31724D01*
X324171Y31754D01*
X323259Y34801D01*
X322960Y35873D01*
X322793Y36357D01*
X322397Y37680D01*
X322383Y37707D01*
X322378Y37736D01*
X321199Y40977D01*
X320845Y42003D01*
X320685Y42389D01*
X320263Y43549D01*
X320247Y43575D01*
X320241Y43604D01*
X318751Y47059D01*
X318363Y47994D01*
X318223Y48283D01*
X317791Y49284D01*
X317774Y49309D01*
X317765Y49338D01*
X315905Y53043D01*
X315525Y53824D01*
X315415Y54018D01*
X314989Y54866D01*
X314971Y54890D01*
X314961Y54918D01*
X312638Y58943D01*
X312339Y59472D01*
X312273Y59575D01*
X311868Y60276D01*
X311848Y60298D01*
X311837Y60326D01*
X308889Y64809D01*
X308818Y64918D01*
X308807Y64933D01*
X308438Y65495D01*
X308417Y65516D01*
X308404Y65543D01*
X304710Y70505D01*
X304687Y70525D01*
X304673Y70552D01*
X302685Y72921D01*
X302667Y72935D01*
X302655Y72955D01*
X302551Y73068D01*
X302408Y73255D01*
X302277Y73356D01*
X302036Y73596D01*
X301928Y73668D01*
X301831Y73755D01*
X301514Y73941D01*
X301376Y74047D01*
X301233Y74106D01*
X300962Y74265D01*
X300839Y74308D01*
X300724Y74367D01*
X300342Y74475D01*
X300175Y74544D01*
X300032Y74563D01*
X299754Y74642D01*
X299625Y74652D01*
X299498Y74680D01*
X299072Y74689D01*
X298886Y74714D01*
X298754Y74696D01*
X298491Y74702D01*
X298363Y74679D01*
X298233Y74675D01*
X297787Y74569D01*
X297598Y74544D01*
X297485Y74497D01*
X297253Y74442D01*
X297135Y74388D01*
X297010Y74351D01*
X296575Y74120D01*
X296397Y74047D01*
X296310Y73980D01*
X296120Y73879D01*
X296019Y73797D01*
X295908Y73730D01*
X295518Y73373D01*
X295365Y73255D01*
X295306Y73179D01*
X295165Y73049D01*
X295089Y72945D01*
X294998Y72852D01*
X294689Y72373D01*
X294574Y72224D01*
X294542Y72147D01*
X294450Y72005D01*
X294011Y71781D01*
X293720D01*
X293258Y71914D01*
X293258Y72242D01*
Y72704D01*
X292956Y73433D01*
X292398Y73991D01*
X291668Y74293D01*
X291290D01*
X290874Y74339D01*
X290829Y74755D01*
Y75133D01*
X290527Y75862D01*
X289968Y76420D01*
X289239Y76722D01*
X288778D01*
X288450Y76722D01*
X288316Y77184D01*
Y77476D01*
X288541Y77915D01*
X288683Y78007D01*
X288759Y78039D01*
X288909Y78153D01*
X289387Y78463D01*
X289480Y78553D01*
X289585Y78630D01*
X289714Y78771D01*
X289791Y78830D01*
X289908Y78983D01*
X290265Y79373D01*
X290333Y79484D01*
X290415Y79584D01*
X290515Y79774D01*
X290582Y79861D01*
X290656Y80040D01*
X290887Y80475D01*
X290924Y80599D01*
X290978Y80717D01*
X291033Y80950D01*
X291079Y81062D01*
X291104Y81252D01*
X291210Y81698D01*
X291215Y81828D01*
X291237Y81955D01*
X291232Y82218D01*
X291249Y82351D01*
X291225Y82536D01*
X291215Y82963D01*
X291187Y83090D01*
X291177Y83219D01*
X291098Y83496D01*
X291079Y83640D01*
X291010Y83807D01*
X290902Y84189D01*
X290843Y84304D01*
X290800Y84427D01*
X290641Y84697D01*
X290582Y84841D01*
X290476Y84978D01*
X290290Y85296D01*
X290204Y85393D01*
X290132Y85501D01*
X289891Y85741D01*
X289791Y85872D01*
X289604Y86015D01*
X289490Y86120D01*
X289471Y86132D01*
X289457Y86149D01*
X287087Y88137D01*
X287061Y88152D01*
X287041Y88174D01*
X282079Y91868D01*
X282051Y91881D01*
X282030Y91902D01*
X281469Y92271D01*
X281453Y92283D01*
X281345Y92353D01*
X276862Y95302D01*
X276834Y95313D01*
X276811Y95333D01*
X276110Y95737D01*
X276008Y95804D01*
X275478Y96102D01*
X271454Y98426D01*
X271426Y98435D01*
X271402Y98454D01*
X270553Y98880D01*
X270360Y98989D01*
X269579Y99369D01*
X265874Y101230D01*
X265845Y101238D01*
X265820Y101255D01*
X264818Y101687D01*
X264529Y101828D01*
X263595Y102215D01*
X260140Y103705D01*
X260110Y103712D01*
X260085Y103727D01*
X258924Y104150D01*
X258539Y104309D01*
X257513Y104663D01*
X254272Y105843D01*
X254242Y105848D01*
X254215Y105862D01*
X252892Y106258D01*
X252409Y106425D01*
X251337Y106723D01*
X248289Y107636D01*
X248259Y107639D01*
X248232Y107651D01*
X246743Y108004D01*
X246163Y108166D01*
X245078Y108399D01*
X242213Y109078D01*
X242182Y109079D01*
X242155Y109090D01*
X240497Y109382D01*
X239823Y109527D01*
X238751Y109690D01*
X236062Y110164D01*
X236032Y110163D01*
X236004Y110173D01*
X234176Y110386D01*
X233412Y110503D01*
X232374Y110597D01*
X229859Y110891D01*
X229829Y110888D01*
X229800Y110896D01*
X227802Y111012D01*
X226954Y111089D01*
X225967Y111119D01*
X223625Y111256D01*
X223595Y111251D01*
X223566Y111257D01*
X221395D01*
X220472Y111285D01*
D02*
G37*
G36*
X0Y107348D02*
X-923Y107320D01*
X-3093D01*
X-3122Y107315D01*
X-3152Y107319D01*
X-5495Y107182D01*
X-6481Y107152D01*
X-7329Y107075D01*
X-9328Y106959D01*
X-9357Y106951D01*
X-9387Y106954D01*
X-11902Y106660D01*
X-12939Y106565D01*
X-13703Y106449D01*
X-15531Y106236D01*
X-15560Y106226D01*
X-15590Y106227D01*
X-18278Y105753D01*
X-19350Y105590D01*
X-20025Y105445D01*
X-21682Y105153D01*
X-21710Y105142D01*
X-21740Y105141D01*
X-24605Y104462D01*
X-25690Y104229D01*
X-26270Y104067D01*
X-27759Y103714D01*
X-27787Y103702D01*
X-27817Y103699D01*
X-30865Y102786D01*
X-31936Y102488D01*
X-32420Y102321D01*
X-33743Y101925D01*
X-33770Y101911D01*
X-33799Y101906D01*
X-37041Y100726D01*
X-38066Y100372D01*
X-38452Y100213D01*
X-39612Y99790D01*
X-39638Y99775D01*
X-39667Y99768D01*
X-43122Y98278D01*
X-44057Y97891D01*
X-44346Y97750D01*
X-45347Y97318D01*
X-45372Y97301D01*
X-45401Y97293D01*
X-49107Y95432D01*
X-49887Y95052D01*
X-50081Y94943D01*
X-50929Y94517D01*
X-50953Y94498D01*
X-50981Y94489D01*
X-55006Y92165D01*
X-55535Y91867D01*
X-55637Y91800D01*
X-56339Y91396D01*
X-56361Y91376D01*
X-56389Y91364D01*
X-60873Y88416D01*
X-60981Y88346D01*
X-60996Y88335D01*
X-61558Y87965D01*
X-61579Y87944D01*
X-61606Y87931D01*
X-66568Y84237D01*
X-66588Y84215D01*
X-66615Y84200D01*
X-69272Y81971D01*
X-69318Y81935D01*
X-69326Y81926D01*
X-69381Y81879D01*
X-69465Y81775D01*
X-69561Y81683D01*
X-70074Y80950D01*
X-70110Y80904D01*
X-70114Y80893D01*
X-70156Y80833D01*
X-70210Y80711D01*
X-70279Y80597D01*
X-70585Y79757D01*
X-70607Y79703D01*
X-70609Y79691D01*
X-70634Y79623D01*
X-70654Y79491D01*
X-70691Y79363D01*
X-70769Y78472D01*
X-70777Y78414D01*
X-70775Y78402D01*
X-70782Y78330D01*
X-70767Y78197D01*
X-70770Y78064D01*
X-70615Y77183D01*
X-70607Y77125D01*
X-70603Y77114D01*
X-70590Y77042D01*
X-70542Y76918D01*
X-70510Y76789D01*
X-70132Y75978D01*
X-70110Y75924D01*
X-70102Y75915D01*
X-70072Y75849D01*
X-69993Y75741D01*
X-69929Y75624D01*
X-69354Y74939D01*
X-69318Y74893D01*
X-69309Y74886D01*
X-69262Y74830D01*
X-69158Y74746D01*
X-69066Y74650D01*
X-68333Y74137D01*
X-68287Y74102D01*
X-68276Y74097D01*
X-68216Y74055D01*
X-68094Y74001D01*
X-67980Y73932D01*
X-67826Y73582D01*
X-67844Y73539D01*
Y73247D01*
X-67977Y72785D01*
X-68305Y72785D01*
X-68767D01*
X-69496Y72483D01*
X-70054Y71925D01*
X-70356Y71196D01*
Y70818D01*
X-70402Y70402D01*
X-70818Y70356D01*
X-71196D01*
X-71925Y70054D01*
X-72483Y69496D01*
X-72785Y68767D01*
Y68305D01*
X-72785Y67977D01*
X-73247Y67844D01*
X-73539D01*
X-73842Y67718D01*
X-74023Y68129D01*
X-74055Y68174D01*
X-74102Y68287D01*
X-74180Y68389D01*
X-74529Y68899D01*
X-74596Y68965D01*
X-74649Y69044D01*
X-74792Y69187D01*
X-74893Y69318D01*
X-75024Y69419D01*
X-75198Y69593D01*
X-75286Y69652D01*
X-75362Y69726D01*
X-75777Y69997D01*
X-75924Y70110D01*
X-75995Y70139D01*
X-76048Y70173D01*
X-76146Y70213D01*
X-76235Y70270D01*
X-76999Y70567D01*
X-77049Y70575D01*
X-77125Y70607D01*
X-77182Y70614D01*
X-77202Y70622D01*
X-78010Y70756D01*
X-78116Y70752D01*
X-78221Y70768D01*
X-78318Y70764D01*
X-78414Y70777D01*
X-78605Y70752D01*
X-79040Y70733D01*
X-79142Y70707D01*
X-79248Y70702D01*
X-79527Y70630D01*
X-79703Y70607D01*
X-79842Y70550D01*
X-80042Y70498D01*
X-80137Y70452D01*
X-80239Y70425D01*
X-80751Y70173D01*
X-80904Y70110D01*
X-80948Y70076D01*
X-80974Y70063D01*
X-81058Y69998D01*
X-81153Y69950D01*
X-81797Y69445D01*
X-81849Y69384D01*
X-81935Y69318D01*
X-81971Y69272D01*
X-84200Y66615D01*
X-84215Y66588D01*
X-84237Y66568D01*
X-87931Y61606D01*
X-87944Y61579D01*
X-87965Y61558D01*
X-88335Y60996D01*
X-88346Y60981D01*
X-88415Y60873D01*
X-91365Y56389D01*
X-91376Y56361D01*
X-91396Y56339D01*
X-91801Y55637D01*
X-91867Y55535D01*
X-92165Y55006D01*
X-94489Y50981D01*
X-94498Y50953D01*
X-94517Y50929D01*
X-94943Y50081D01*
X-95052Y49887D01*
X-95432Y49107D01*
X-97293Y45401D01*
X-97301Y45372D01*
X-97318Y45347D01*
X-97750Y44346D01*
X-97891Y44057D01*
X-98278Y43123D01*
X-99768Y39667D01*
X-99775Y39638D01*
X-99790Y39612D01*
X-100213Y38452D01*
X-100372Y38066D01*
X-100726Y37041D01*
X-101906Y33799D01*
X-101911Y33770D01*
X-101925Y33743D01*
X-102321Y32420D01*
X-102488Y31936D01*
X-102786Y30865D01*
X-103699Y27817D01*
X-103702Y27787D01*
X-103714Y27759D01*
X-104067Y26270D01*
X-104229Y25690D01*
X-104462Y24606D01*
X-105141Y21740D01*
X-105142Y21710D01*
X-105153Y21682D01*
X-105445Y20024D01*
X-105590Y19350D01*
X-105753Y18279D01*
X-106227Y15590D01*
X-106226Y15560D01*
X-106236Y15531D01*
X-106449Y13703D01*
X-106565Y12939D01*
X-106660Y11902D01*
X-106954Y9387D01*
X-106951Y9357D01*
X-106959Y9328D01*
X-107075Y7329D01*
X-107152Y6481D01*
X-107182Y5495D01*
X-107319Y3152D01*
X-107315Y3122D01*
X-107320Y3093D01*
Y923D01*
X-107348Y0D01*
X-107320Y-922D01*
Y-3093D01*
X-107315Y-3122D01*
X-107319Y-3152D01*
X-107182Y-5495D01*
X-107152Y-6481D01*
X-107075Y-7329D01*
X-106959Y-9328D01*
X-106951Y-9357D01*
X-106954Y-9387D01*
X-106660Y-11902D01*
X-106565Y-12939D01*
X-106449Y-13703D01*
X-106236Y-15531D01*
X-106226Y-15560D01*
X-106227Y-15590D01*
X-105753Y-18279D01*
X-105590Y-19350D01*
X-105445Y-20024D01*
X-105153Y-21682D01*
X-105142Y-21710D01*
X-105141Y-21740D01*
X-104462Y-24606D01*
X-104229Y-25690D01*
X-104067Y-26270D01*
X-103714Y-27759D01*
X-103702Y-27787D01*
X-103699Y-27817D01*
X-102786Y-30865D01*
X-102488Y-31936D01*
X-102321Y-32420D01*
X-101925Y-33743D01*
X-101911Y-33770D01*
X-101906Y-33799D01*
X-100726Y-37041D01*
X-100372Y-38066D01*
X-100213Y-38451D01*
X-99790Y-39612D01*
X-99775Y-39638D01*
X-99768Y-39667D01*
X-98278Y-43123D01*
X-97891Y-44057D01*
X-97750Y-44345D01*
X-97318Y-45347D01*
X-97301Y-45372D01*
X-97293Y-45401D01*
X-95432Y-49107D01*
X-95052Y-49887D01*
X-94943Y-50081D01*
X-94517Y-50929D01*
X-94498Y-50953D01*
X-94489Y-50981D01*
X-92165Y-55007D01*
X-91867Y-55535D01*
X-91801Y-55637D01*
X-91396Y-56339D01*
X-91376Y-56361D01*
X-91365Y-56389D01*
X-88415Y-60874D01*
X-88346Y-60981D01*
X-88335Y-60996D01*
X-87965Y-61558D01*
X-87944Y-61579D01*
X-87931Y-61606D01*
X-84237Y-66568D01*
X-84215Y-66588D01*
X-84200Y-66615D01*
X-81971Y-69272D01*
X-81935Y-69318D01*
X-81926Y-69326D01*
X-81879Y-69381D01*
X-81775Y-69465D01*
X-81683Y-69561D01*
X-80950Y-70074D01*
X-80904Y-70110D01*
X-80893Y-70114D01*
X-80833Y-70156D01*
X-80711Y-70210D01*
X-80597Y-70279D01*
X-79757Y-70585D01*
X-79703Y-70607D01*
X-79691Y-70609D01*
X-79623Y-70634D01*
X-79491Y-70654D01*
X-79363Y-70691D01*
X-78472Y-70769D01*
X-78414Y-70777D01*
X-78402Y-70775D01*
X-78330Y-70782D01*
X-78197Y-70767D01*
X-78064Y-70770D01*
X-77183Y-70615D01*
X-77125Y-70607D01*
X-77114Y-70603D01*
X-77042Y-70590D01*
X-76918Y-70542D01*
X-76789Y-70510D01*
X-75978Y-70132D01*
X-75924Y-70110D01*
X-75915Y-70102D01*
X-75849Y-70072D01*
X-75741Y-69993D01*
X-75624Y-69929D01*
X-74940Y-69354D01*
X-74893Y-69318D01*
X-74886Y-69309D01*
X-74830Y-69262D01*
X-74746Y-69158D01*
X-74650Y-69066D01*
X-74137Y-68334D01*
X-74102Y-68287D01*
X-74097Y-68276D01*
X-74055Y-68216D01*
X-74001Y-68094D01*
X-73932Y-67980D01*
X-73582Y-67826D01*
X-73539Y-67844D01*
X-73247D01*
X-72785Y-67977D01*
X-72785Y-68305D01*
Y-68767D01*
X-72483Y-69496D01*
X-71925Y-70054D01*
X-71196Y-70356D01*
X-70818D01*
X-70402Y-70402D01*
X-70356Y-70818D01*
Y-71196D01*
X-70054Y-71925D01*
X-69496Y-72483D01*
X-68767Y-72785D01*
X-68305D01*
X-67977Y-72785D01*
X-67844Y-73247D01*
Y-73539D01*
X-67826Y-73582D01*
X-67980Y-73932D01*
X-68094Y-74001D01*
X-68216Y-74055D01*
X-68276Y-74097D01*
X-68287Y-74102D01*
X-68334Y-74137D01*
X-69066Y-74650D01*
X-69158Y-74746D01*
X-69262Y-74830D01*
X-69309Y-74886D01*
X-69318Y-74893D01*
X-69354Y-74940D01*
X-69929Y-75624D01*
X-69993Y-75741D01*
X-70072Y-75849D01*
X-70102Y-75915D01*
X-70110Y-75924D01*
X-70132Y-75978D01*
X-70510Y-76789D01*
X-70542Y-76918D01*
X-70590Y-77042D01*
X-70603Y-77114D01*
X-70607Y-77125D01*
X-70615Y-77183D01*
X-70770Y-78064D01*
X-70767Y-78197D01*
X-70782Y-78330D01*
X-70775Y-78402D01*
X-70777Y-78414D01*
X-70769Y-78472D01*
X-70691Y-79363D01*
X-70654Y-79491D01*
X-70634Y-79623D01*
X-70609Y-79691D01*
X-70607Y-79703D01*
X-70585Y-79757D01*
X-70279Y-80597D01*
X-70210Y-80711D01*
X-70156Y-80833D01*
X-70114Y-80893D01*
X-70110Y-80904D01*
X-70074Y-80950D01*
X-69561Y-81683D01*
X-69465Y-81775D01*
X-69381Y-81879D01*
X-69326Y-81926D01*
X-69318Y-81935D01*
X-69272Y-81971D01*
X-66615Y-84200D01*
X-66588Y-84215D01*
X-66568Y-84237D01*
X-61606Y-87931D01*
X-61579Y-87944D01*
X-61558Y-87965D01*
X-60996Y-88335D01*
X-60981Y-88346D01*
X-60874Y-88415D01*
X-56389Y-91365D01*
X-56361Y-91376D01*
X-56339Y-91396D01*
X-55637Y-91801D01*
X-55535Y-91867D01*
X-55006Y-92165D01*
X-50981Y-94489D01*
X-50953Y-94498D01*
X-50929Y-94517D01*
X-50081Y-94943D01*
X-49887Y-95052D01*
X-49107Y-95432D01*
X-45401Y-97293D01*
X-45372Y-97301D01*
X-45347Y-97318D01*
X-44345Y-97750D01*
X-44057Y-97891D01*
X-43123Y-98278D01*
X-39667Y-99768D01*
X-39638Y-99775D01*
X-39612Y-99790D01*
X-38451Y-100213D01*
X-38066Y-100372D01*
X-37041Y-100726D01*
X-33799Y-101906D01*
X-33770Y-101911D01*
X-33743Y-101925D01*
X-32420Y-102321D01*
X-31936Y-102488D01*
X-30865Y-102786D01*
X-27817Y-103699D01*
X-27787Y-103702D01*
X-27759Y-103714D01*
X-26270Y-104067D01*
X-25690Y-104229D01*
X-24606Y-104462D01*
X-21740Y-105141D01*
X-21710Y-105142D01*
X-21682Y-105153D01*
X-20024Y-105445D01*
X-19350Y-105590D01*
X-18279Y-105753D01*
X-15590Y-106227D01*
X-15560Y-106226D01*
X-15531Y-106236D01*
X-13703Y-106449D01*
X-12939Y-106565D01*
X-11902Y-106660D01*
X-9387Y-106954D01*
X-9357Y-106951D01*
X-9328Y-106959D01*
X-7329Y-107075D01*
X-6481Y-107152D01*
X-5495Y-107182D01*
X-3152Y-107319D01*
X-3123Y-107315D01*
X-3093Y-107320D01*
X-922D01*
X0Y-107348D01*
X923Y-107320D01*
X3093D01*
X3122Y-107315D01*
X3152Y-107319D01*
X5495Y-107182D01*
X6481Y-107152D01*
X7329Y-107075D01*
X9328Y-106959D01*
X9357Y-106951D01*
X9387Y-106954D01*
X11902Y-106660D01*
X12939Y-106565D01*
X13703Y-106449D01*
X15531Y-106236D01*
X15560Y-106226D01*
X15590Y-106227D01*
X18279Y-105753D01*
X19350Y-105590D01*
X20024Y-105445D01*
X21682Y-105153D01*
X21710Y-105142D01*
X21740Y-105141D01*
X24606Y-104462D01*
X25690Y-104229D01*
X26270Y-104067D01*
X27759Y-103714D01*
X27787Y-103702D01*
X27817Y-103699D01*
X30865Y-102786D01*
X31936Y-102488D01*
X32420Y-102321D01*
X33743Y-101925D01*
X33770Y-101911D01*
X33799Y-101906D01*
X37041Y-100726D01*
X38066Y-100372D01*
X38452Y-100213D01*
X39612Y-99790D01*
X39638Y-99775D01*
X39667Y-99768D01*
X43123Y-98278D01*
X44057Y-97891D01*
X44346Y-97750D01*
X45347Y-97318D01*
X45372Y-97301D01*
X45401Y-97293D01*
X49107Y-95432D01*
X49887Y-95052D01*
X50081Y-94943D01*
X50929Y-94517D01*
X50953Y-94498D01*
X50981Y-94489D01*
X55006Y-92165D01*
X55535Y-91867D01*
X55637Y-91801D01*
X56339Y-91396D01*
X56361Y-91376D01*
X56389Y-91365D01*
X60873Y-88415D01*
X60981Y-88346D01*
X60996Y-88335D01*
X61558Y-87965D01*
X61579Y-87944D01*
X61606Y-87931D01*
X66568Y-84237D01*
X66588Y-84215D01*
X66615Y-84200D01*
X68984Y-82212D01*
X68984Y-82212D01*
X69272Y-81971D01*
X69318Y-81935D01*
X69384Y-81849D01*
X69445Y-81797D01*
X69950Y-81153D01*
X69998Y-81058D01*
X70063Y-80974D01*
X70076Y-80948D01*
X70110Y-80904D01*
X70173Y-80751D01*
X70425Y-80239D01*
X70452Y-80137D01*
X70498Y-80042D01*
X70550Y-79842D01*
X70607Y-79703D01*
X70630Y-79527D01*
X70702Y-79248D01*
X70707Y-79142D01*
X70733Y-79040D01*
X70752Y-78605D01*
X70777Y-78414D01*
X70764Y-78318D01*
X70768Y-78221D01*
X70752Y-78116D01*
X70756Y-78010D01*
X70622Y-77202D01*
X70614Y-77182D01*
X70607Y-77125D01*
X70575Y-77049D01*
X70567Y-76999D01*
X70270Y-76235D01*
X70213Y-76146D01*
X70173Y-76048D01*
X70139Y-75995D01*
X70110Y-75924D01*
X69997Y-75777D01*
X69726Y-75362D01*
X69652Y-75286D01*
X69593Y-75198D01*
X69419Y-75024D01*
X69318Y-74893D01*
X69187Y-74792D01*
X69044Y-74649D01*
X68965Y-74596D01*
X68899Y-74528D01*
X68389Y-74180D01*
X68287Y-74102D01*
X68174Y-74055D01*
X68129Y-74023D01*
X67718Y-73842D01*
X67844Y-73539D01*
Y-73247D01*
X67977Y-72785D01*
X68305Y-72785D01*
X68767D01*
X69496Y-72483D01*
X70054Y-71925D01*
X70356Y-71196D01*
Y-70818D01*
X70402Y-70402D01*
X70818Y-70356D01*
X71196D01*
X71925Y-70054D01*
X72483Y-69496D01*
X72785Y-68767D01*
Y-68305D01*
X72785Y-67977D01*
X73247Y-67844D01*
X73539D01*
X73582Y-67826D01*
X73932Y-67980D01*
X74001Y-68094D01*
X74055Y-68216D01*
X74097Y-68276D01*
X74102Y-68287D01*
X74137Y-68333D01*
X74650Y-69066D01*
X74746Y-69158D01*
X74830Y-69262D01*
X74886Y-69309D01*
X74893Y-69318D01*
X74939Y-69354D01*
X75624Y-69929D01*
X75741Y-69993D01*
X75849Y-70072D01*
X75915Y-70102D01*
X75924Y-70110D01*
X75978Y-70132D01*
X76789Y-70510D01*
X76918Y-70542D01*
X77042Y-70590D01*
X77114Y-70603D01*
X77125Y-70607D01*
X77183Y-70615D01*
X78064Y-70770D01*
X78197Y-70767D01*
X78330Y-70782D01*
X78402Y-70775D01*
X78414Y-70777D01*
X78472Y-70769D01*
X79363Y-70691D01*
X79491Y-70654D01*
X79623Y-70634D01*
X79691Y-70609D01*
X79703Y-70607D01*
X79757Y-70585D01*
X80597Y-70279D01*
X80711Y-70210D01*
X80833Y-70156D01*
X80893Y-70114D01*
X80904Y-70110D01*
X80950Y-70074D01*
X81683Y-69561D01*
X81775Y-69465D01*
X81879Y-69381D01*
X81926Y-69326D01*
X81935Y-69318D01*
X81971Y-69272D01*
X84200Y-66615D01*
X84215Y-66588D01*
X84237Y-66568D01*
X87931Y-61606D01*
X87944Y-61579D01*
X87965Y-61558D01*
X88335Y-60996D01*
X88346Y-60981D01*
X88416Y-60873D01*
X91365Y-56389D01*
X91376Y-56361D01*
X91396Y-56339D01*
X91800Y-55637D01*
X91867Y-55535D01*
X92165Y-55006D01*
X94489Y-50981D01*
X94498Y-50953D01*
X94517Y-50929D01*
X94943Y-50081D01*
X95052Y-49887D01*
X95432Y-49107D01*
X97293Y-45401D01*
X97301Y-45372D01*
X97318Y-45347D01*
X97750Y-44346D01*
X97891Y-44057D01*
X98278Y-43122D01*
X99768Y-39667D01*
X99775Y-39638D01*
X99790Y-39612D01*
X100213Y-38452D01*
X100372Y-38066D01*
X100726Y-37041D01*
X101906Y-33799D01*
X101911Y-33770D01*
X101925Y-33743D01*
X102321Y-32420D01*
X102488Y-31936D01*
X102786Y-30865D01*
X103699Y-27817D01*
X103702Y-27787D01*
X103714Y-27759D01*
X104067Y-26270D01*
X104229Y-25690D01*
X104462Y-24605D01*
X105141Y-21740D01*
X105142Y-21710D01*
X105153Y-21682D01*
X105445Y-20025D01*
X105590Y-19350D01*
X105753Y-18278D01*
X106227Y-15590D01*
X106226Y-15560D01*
X106236Y-15531D01*
X106449Y-13703D01*
X106565Y-12939D01*
X106660Y-11902D01*
X106954Y-9387D01*
X106951Y-9357D01*
X106959Y-9328D01*
X107075Y-7329D01*
X107152Y-6481D01*
X107182Y-5494D01*
X107319Y-3152D01*
X107314Y-3123D01*
X107320Y-3093D01*
Y-923D01*
X107348Y0D01*
X107320Y923D01*
Y3093D01*
X107315Y3122D01*
X107319Y3152D01*
X107182Y5495D01*
X107152Y6481D01*
X107075Y7329D01*
X106959Y9328D01*
X106951Y9357D01*
X106954Y9387D01*
X106660Y11902D01*
X106565Y12939D01*
X106449Y13704D01*
X106236Y15531D01*
X106226Y15560D01*
X106227Y15590D01*
X105753Y18278D01*
X105590Y19350D01*
X105445Y20025D01*
X105153Y21682D01*
X105142Y21710D01*
X105141Y21740D01*
X104462Y24605D01*
X104229Y25690D01*
X104067Y26270D01*
X103714Y27759D01*
X103702Y27787D01*
X103699Y27817D01*
X102786Y30864D01*
X102488Y31936D01*
X102321Y32420D01*
X101925Y33743D01*
X101911Y33770D01*
X101906Y33799D01*
X100726Y37040D01*
X100372Y38066D01*
X100213Y38452D01*
X99790Y39612D01*
X99775Y39638D01*
X99768Y39667D01*
X98278Y43122D01*
X97891Y44057D01*
X97750Y44346D01*
X97318Y45347D01*
X97301Y45372D01*
X97293Y45401D01*
X95432Y49106D01*
X95052Y49887D01*
X94943Y50081D01*
X94517Y50929D01*
X94498Y50953D01*
X94489Y50981D01*
X92165Y55006D01*
X91867Y55535D01*
X91800Y55638D01*
X91396Y56339D01*
X91376Y56361D01*
X91364Y56389D01*
X88416Y60872D01*
X88346Y60981D01*
X88334Y60996D01*
X87965Y61558D01*
X87944Y61579D01*
X87931Y61606D01*
X84237Y66568D01*
X84215Y66588D01*
X84200Y66615D01*
X82212Y68984D01*
X82195Y68998D01*
X82183Y69018D01*
X82078Y69131D01*
X81935Y69318D01*
X81804Y69419D01*
X81564Y69659D01*
X81456Y69731D01*
X81359Y69818D01*
X81041Y70004D01*
X80904Y70110D01*
X80760Y70169D01*
X80490Y70328D01*
X80367Y70371D01*
X80252Y70430D01*
X79870Y70538D01*
X79703Y70607D01*
X79559Y70626D01*
X79282Y70705D01*
X79153Y70715D01*
X79026Y70743D01*
X78599Y70752D01*
X78414Y70777D01*
X78281Y70759D01*
X78018Y70765D01*
X77891Y70742D01*
X77761Y70738D01*
X77315Y70632D01*
X77125Y70607D01*
X77013Y70560D01*
X76780Y70505D01*
X76662Y70451D01*
X76538Y70414D01*
X76103Y70183D01*
X75924Y70110D01*
X75837Y70043D01*
X75647Y69942D01*
X75547Y69860D01*
X75436Y69793D01*
X75046Y69436D01*
X74893Y69318D01*
X74834Y69242D01*
X74693Y69112D01*
X74616Y69008D01*
X74526Y68915D01*
X74216Y68436D01*
X74102Y68287D01*
X74070Y68210D01*
X73978Y68068D01*
X73539Y67844D01*
X73247D01*
X72785Y67977D01*
X72785Y68305D01*
Y68767D01*
X72483Y69496D01*
X71925Y70054D01*
X71196Y70356D01*
X70818D01*
X70402Y70402D01*
X70356Y70818D01*
Y71196D01*
X70054Y71925D01*
X69496Y72483D01*
X68767Y72785D01*
X68305D01*
X67977Y72785D01*
X67844Y73247D01*
Y73539D01*
X68068Y73978D01*
X68210Y74070D01*
X68287Y74102D01*
X68436Y74216D01*
X68915Y74526D01*
X69008Y74616D01*
X69112Y74693D01*
X69242Y74834D01*
X69318Y74893D01*
X69436Y75046D01*
X69793Y75436D01*
X69860Y75547D01*
X69942Y75647D01*
X70043Y75837D01*
X70110Y75924D01*
X70183Y76103D01*
X70414Y76538D01*
X70451Y76662D01*
X70505Y76780D01*
X70560Y77013D01*
X70607Y77125D01*
X70632Y77314D01*
X70738Y77761D01*
X70742Y77891D01*
X70765Y78018D01*
X70759Y78281D01*
X70777Y78414D01*
X70752Y78599D01*
X70743Y79026D01*
X70715Y79153D01*
X70705Y79282D01*
X70626Y79559D01*
X70607Y79703D01*
X70538Y79870D01*
X70430Y80252D01*
X70371Y80367D01*
X70328Y80490D01*
X70169Y80760D01*
X70110Y80904D01*
X70004Y81041D01*
X69818Y81359D01*
X69731Y81456D01*
X69659Y81564D01*
X69419Y81804D01*
X69318Y81935D01*
X69131Y82078D01*
X69018Y82183D01*
X68998Y82195D01*
X68984Y82212D01*
X66615Y84200D01*
X66588Y84215D01*
X66568Y84237D01*
X61606Y87931D01*
X61579Y87944D01*
X61558Y87965D01*
X60996Y88334D01*
X60981Y88346D01*
X60872Y88416D01*
X56389Y91365D01*
X56361Y91376D01*
X56339Y91396D01*
X55638Y91800D01*
X55535Y91867D01*
X55005Y92165D01*
X50981Y94489D01*
X50953Y94498D01*
X50929Y94517D01*
X50081Y94943D01*
X49887Y95052D01*
X49106Y95432D01*
X45401Y97293D01*
X45372Y97301D01*
X45347Y97318D01*
X44346Y97750D01*
X44057Y97891D01*
X43122Y98278D01*
X39667Y99768D01*
X39638Y99775D01*
X39612Y99790D01*
X38452Y100213D01*
X38066Y100372D01*
X37040Y100726D01*
X33799Y101906D01*
X33770Y101911D01*
X33743Y101925D01*
X32420Y102321D01*
X31936Y102488D01*
X30864Y102786D01*
X27817Y103699D01*
X27787Y103702D01*
X27759Y103714D01*
X26270Y104067D01*
X25690Y104229D01*
X24605Y104462D01*
X21740Y105141D01*
X21710Y105142D01*
X21682Y105153D01*
X20025Y105445D01*
X19350Y105590D01*
X18278Y105753D01*
X15590Y106227D01*
X15560Y106226D01*
X15531Y106236D01*
X13704Y106449D01*
X12939Y106565D01*
X11902Y106660D01*
X9387Y106954D01*
X9357Y106951D01*
X9328Y106959D01*
X7329Y107075D01*
X6481Y107152D01*
X5494Y107182D01*
X3152Y107319D01*
X3122Y107314D01*
X3093Y107320D01*
X923D01*
X0Y107348D01*
D02*
G37*
G36*
X331562Y-95457D02*
X329855D01*
X328170Y-95724D01*
X326547Y-96251D01*
X325026Y-97026D01*
X323645Y-98029D01*
X322439Y-99236D01*
X321435Y-100617D01*
X320660Y-102137D01*
X320133Y-103760D01*
X319866Y-105446D01*
Y-107152D01*
X320133Y-108838D01*
X320660Y-110461D01*
X321435Y-111982D01*
X322439Y-113363D01*
X323645Y-114569D01*
X325026Y-115573D01*
X326547Y-116347D01*
X328170Y-116875D01*
X329855Y-117142D01*
X331562D01*
X333248Y-116875D01*
X334871Y-116347D01*
X336391Y-115573D01*
X337772Y-114569D01*
X338979Y-113363D01*
X339982Y-111982D01*
X340757Y-110461D01*
X341284Y-108838D01*
X341551Y-107152D01*
Y-105446D01*
X341284Y-103760D01*
X340757Y-102137D01*
X339982Y-100617D01*
X338979Y-99236D01*
X337772Y-98029D01*
X336391Y-97026D01*
X334871Y-96251D01*
X333248Y-95724D01*
X331562Y-95457D01*
D02*
G37*
G36*
X-109383D02*
X-111090D01*
X-112775Y-95724D01*
X-114398Y-96251D01*
X-115919Y-97026D01*
X-117300Y-98029D01*
X-118506Y-99236D01*
X-119510Y-100617D01*
X-120284Y-102137D01*
X-120812Y-103760D01*
X-121079Y-105446D01*
Y-107152D01*
X-120812Y-108838D01*
X-120284Y-110461D01*
X-119510Y-111982D01*
X-118506Y-113363D01*
X-117300Y-114569D01*
X-115919Y-115573D01*
X-114398Y-116347D01*
X-112775Y-116875D01*
X-111090Y-117142D01*
X-109383D01*
X-107697Y-116875D01*
X-106074Y-116347D01*
X-104553Y-115573D01*
X-103173Y-114569D01*
X-101966Y-113363D01*
X-100963Y-111982D01*
X-100188Y-110461D01*
X-99661Y-108838D01*
X-99394Y-107152D01*
Y-105446D01*
X-99661Y-103760D01*
X-100188Y-102137D01*
X-100963Y-100617D01*
X-101966Y-99236D01*
X-103173Y-98029D01*
X-104553Y-97026D01*
X-106074Y-96251D01*
X-107697Y-95724D01*
X-109383Y-95457D01*
D02*
G37*
%LPD*%
D10*
X-110236Y330709D02*
D03*
Y-106299D02*
D03*
X330709D02*
D03*
Y330709D02*
D03*
D11*
X286332Y297554D02*
D03*
X288844Y295211D02*
D03*
X291274Y292781D02*
D03*
X293617Y290269D02*
D03*
Y158550D02*
D03*
X291274Y156038D02*
D03*
X288844Y153608D02*
D03*
X286332Y151265D02*
D03*
X154613D02*
D03*
X152101Y153608D02*
D03*
X149671Y156038D02*
D03*
X147328Y158550D02*
D03*
X154613Y297554D02*
D03*
X152101Y295211D02*
D03*
X149671Y292781D02*
D03*
X147328Y290269D02*
D03*
X286332Y77081D02*
D03*
X288844Y74738D02*
D03*
X291274Y72309D02*
D03*
X293617Y69796D02*
D03*
Y-61922D02*
D03*
X291274Y-64435D02*
D03*
X288844Y-66864D02*
D03*
X286332Y-69207D02*
D03*
X154613D02*
D03*
X152101Y-66864D02*
D03*
X149671Y-64435D02*
D03*
X147328Y-61922D02*
D03*
X154613Y77081D02*
D03*
X152101Y74738D02*
D03*
X149671Y72309D02*
D03*
X147328Y69796D02*
D03*
X-73144Y65859D02*
D03*
X-70801Y68372D02*
D03*
X-68372Y70801D02*
D03*
X-65859Y73144D02*
D03*
X-73144Y-65859D02*
D03*
X-70801Y-68372D02*
D03*
X-68372Y-70801D02*
D03*
X-65859Y-73144D02*
D03*
X65859D02*
D03*
X68372Y-70801D02*
D03*
X70801Y-68372D02*
D03*
X73144Y-65859D02*
D03*
Y65859D02*
D03*
X70801Y68372D02*
D03*
X68372Y70801D02*
D03*
X65859Y73144D02*
D03*
X-73144Y286332D02*
D03*
X-70801Y288844D02*
D03*
X-68372Y291274D02*
D03*
X-65859Y293617D02*
D03*
X-73144Y154613D02*
D03*
X-70801Y152101D02*
D03*
X-68372Y149671D02*
D03*
X-65859Y147328D02*
D03*
X65859D02*
D03*
X68372Y149671D02*
D03*
X70801Y152101D02*
D03*
X73144Y154613D02*
D03*
Y286332D02*
D03*
X70801Y288844D02*
D03*
X68372Y291274D02*
D03*
X65859Y293617D02*
D03*
D12*
X212972Y314409D02*
D03*
X217972D02*
D03*
X222972D02*
D03*
X212972Y93937D02*
D03*
X217972D02*
D03*
X222972D02*
D03*
X-7500Y90000D02*
D03*
X-2500D02*
D03*
X2500D02*
D03*
X-7500Y310472D02*
D03*
X-2500D02*
D03*
X2500D02*
D03*
D13*
X227972Y314409D02*
D03*
Y93937D02*
D03*
X7500Y90000D02*
D03*
Y310472D02*
D03*
D14*
X176148Y198819D02*
D03*
X264797D02*
D03*
X220472Y275590D02*
D03*
X176148Y-21654D02*
D03*
X264797D02*
D03*
X220472Y55118D02*
D03*
X-44324Y-25591D02*
D03*
X44324D02*
D03*
X0Y51181D02*
D03*
X-44324Y194882D02*
D03*
X44324D02*
D03*
X0Y271654D02*
D03*
D15*
X230472Y249410D02*
D03*
Y259409D02*
D03*
X260472Y249410D02*
D03*
X250472Y259409D02*
D03*
Y249410D02*
D03*
X240472Y259409D02*
D03*
Y249410D02*
D03*
X220472Y259409D02*
D03*
Y249410D02*
D03*
X210472Y259409D02*
D03*
Y249410D02*
D03*
X200472Y259409D02*
D03*
Y249410D02*
D03*
X190472Y259409D02*
D03*
Y249410D02*
D03*
X230472Y144409D02*
D03*
Y154409D02*
D03*
X260472Y144409D02*
D03*
X250472Y154409D02*
D03*
Y144409D02*
D03*
X240472Y154409D02*
D03*
Y144409D02*
D03*
X220472Y154409D02*
D03*
Y144409D02*
D03*
X210472Y154409D02*
D03*
Y144409D02*
D03*
X200472Y154409D02*
D03*
Y144409D02*
D03*
X190472Y154409D02*
D03*
Y144409D02*
D03*
X230472Y28937D02*
D03*
Y38937D02*
D03*
X260472Y28937D02*
D03*
X250472Y38937D02*
D03*
Y28937D02*
D03*
X240472Y38937D02*
D03*
Y28937D02*
D03*
X220472Y38937D02*
D03*
Y28937D02*
D03*
X210472Y38937D02*
D03*
Y28937D02*
D03*
X200472Y38937D02*
D03*
Y28937D02*
D03*
X190472Y38937D02*
D03*
Y28937D02*
D03*
X230472Y-76063D02*
D03*
Y-66063D02*
D03*
X260472Y-76063D02*
D03*
X250472Y-66063D02*
D03*
Y-76063D02*
D03*
X240472Y-66063D02*
D03*
Y-76063D02*
D03*
X220472Y-66063D02*
D03*
Y-76063D02*
D03*
X210472Y-66063D02*
D03*
Y-76063D02*
D03*
X200472Y-66063D02*
D03*
Y-76063D02*
D03*
X190472Y-66063D02*
D03*
Y-76063D02*
D03*
X10000Y25000D02*
D03*
Y35000D02*
D03*
X40000Y25000D02*
D03*
X30000Y35000D02*
D03*
Y25000D02*
D03*
X20000Y35000D02*
D03*
Y25000D02*
D03*
X0Y35000D02*
D03*
Y25000D02*
D03*
X-10000Y35000D02*
D03*
Y25000D02*
D03*
X-20000Y35000D02*
D03*
Y25000D02*
D03*
X-30000Y35000D02*
D03*
Y25000D02*
D03*
X10000Y-80000D02*
D03*
Y-70000D02*
D03*
X40000Y-80000D02*
D03*
X30000Y-70000D02*
D03*
Y-80000D02*
D03*
X20000Y-70000D02*
D03*
Y-80000D02*
D03*
X0Y-70000D02*
D03*
Y-80000D02*
D03*
X-10000Y-70000D02*
D03*
Y-80000D02*
D03*
X-20000Y-70000D02*
D03*
Y-80000D02*
D03*
X-30000Y-70000D02*
D03*
Y-80000D02*
D03*
X10000Y245472D02*
D03*
Y255472D02*
D03*
X40000Y245472D02*
D03*
X30000Y255472D02*
D03*
Y245472D02*
D03*
X20000Y255472D02*
D03*
Y245472D02*
D03*
X0Y255472D02*
D03*
Y245472D02*
D03*
X-10000Y255472D02*
D03*
Y245472D02*
D03*
X-20000Y255472D02*
D03*
Y245472D02*
D03*
X-30000Y255472D02*
D03*
Y245472D02*
D03*
X10000Y140472D02*
D03*
Y150472D02*
D03*
X40000Y140472D02*
D03*
X30000Y150472D02*
D03*
Y140472D02*
D03*
X20000Y150472D02*
D03*
Y140472D02*
D03*
X0Y150472D02*
D03*
Y140472D02*
D03*
X-10000Y150472D02*
D03*
Y140472D02*
D03*
X-20000Y150472D02*
D03*
Y140472D02*
D03*
X-30000Y150472D02*
D03*
Y140472D02*
D03*
D16*
X260472Y259409D02*
D03*
Y154409D02*
D03*
Y38937D02*
D03*
Y-66063D02*
D03*
X40000Y35000D02*
D03*
Y-70000D02*
D03*
Y255472D02*
D03*
Y150472D02*
D03*
M02*
