M48
;Layer_Color=9474304
;FILE_FORMAT=2:5
INCH,LZ
;TYPE=PLATED
T1F00S00C0.01181
T2F00S00C0.02362
T3F00S00C0.02756
T4F00S00C0.03543
T5F00S00C0.11811
;TYPE=NON_PLATED
T6F00S00C0.01968
T7F00S00C0.15748
%
T01
X0225984Y0064567
Y0069291
X0230709
Y0064567
X0049606Y0068504
Y0073228
X0044882
Y0068504
X0048819Y0249606
Y0254331
X0053543
Y0249606
X0229921Y0250394
X0234646
Y0245669
X0229921
T02
X0329842Y0089488
Y0094488
Y0099488
X014874Y0098425
Y0093425
Y0103425
X0152677Y0274528
Y0279528
Y0284528
X033378Y0280591
Y027559
Y027059
T03
X0289843Y0109488
X0299843
X011874Y0113425
X010874
X0112677Y0294528
X0122677
X0293779Y0290591
X030378
T04
X0244843Y0119488
X0254842
X0264843
X0274843
X009374Y0123425
X008374
X007374
X006374
X0067677Y0304528
X0077677
X0087677
X0097677
X024878Y030059
X025878
X0268779
X027878
T05
X0259842Y0062992
X0291339Y0094488
X0228346
X0110236Y0098425
X007874Y0066929
X0047244Y0098425
X0082677Y0248031
X0114173Y0279528
X0051181
X0232283Y027559
X0263779Y0244094
X0295276Y027559
T06
X0205145Y0037847
X0207155Y0035973
X031253
X031454Y0037847
X0316483Y0039791
X0318358Y0041801
Y0147176
X0316483Y0149186
X031454Y0151129
X031253Y0153004
X0207155
X0205145Y0151129
X0203202Y0149186
X0201327Y0147176
Y0041801
X0203202Y0039791
X0133438Y0041784
X0131428Y003991
X0135381Y0043728
X0137256Y0045738
Y0151113
X0135381Y0153123
X0133438Y0155066
X0131428Y0156941
X0026053
X0024043Y0155066
X0022099Y0153123
X0020225Y0151113
Y0045738
X0022099Y0043728
X0024043Y0041784
X0026053Y003991
X002798Y0222887
X002999Y0221012
X0026036Y022483
X0024162Y022684
Y0332215
X0026036Y0334225
X002798Y0336169
X002999Y0338043
X0135365
X0137375Y0336169
X0139318Y0334225
X0141192Y0332215
Y022684
X0139318Y022483
X0137375Y0222887
X0135365Y0221012
X0205264Y0222903
X0207139Y0220893
X0209082Y021895
X0211092Y0217075
X0316467
X0318477Y021895
X0320421Y0220893
X0322295Y0222903
Y0328278
X0320421Y0330288
X0318477Y0332231
X0316467Y0334106
X0211092
X0209082Y0332231
X0207139Y0330288
X0205264Y0328278
T07
X0003937Y0007874
X034252Y0007874
X034252Y0358268
X0003937Y0358268
M30
