G04*
G04 #@! TF.GenerationSoftware,Altium Limited,Altium Designer,22.4.2 (48)*
G04*
G04 Layer_Physical_Order=2*
G04 Layer_Color=16711680*
%FSLAX25Y25*%
%MOIN*%
G70*
G04*
G04 #@! TF.SameCoordinates,26249B9F-D8ED-40E7-B964-7C6F937C0492*
G04*
G04*
G04 #@! TF.FilePolarity,Positive*
G04*
G01*
G75*
%ADD13C,0.15748*%
%ADD14C,0.01968*%
%ADD15R,0.03937X0.03937*%
%ADD16C,0.03937*%
%ADD17C,0.06693*%
%ADD18R,0.06693X0.06693*%
%ADD19C,0.05906*%
%ADD20R,0.05906X0.05906*%
%ADD21C,0.02362*%
G36*
X368858Y-18465D02*
X-22402D01*
X-22402Y384607D01*
X368858D01*
Y-18465D01*
D02*
G37*
%LPC*%
G36*
X82677Y367189D02*
X82010Y367167D01*
X80577Y367173D01*
X80548Y367168D01*
X80518Y367172D01*
X77885Y367032D01*
X76944Y367001D01*
X76517Y366959D01*
X75518Y366906D01*
X75489Y366898D01*
X75459Y366901D01*
X71893Y366504D01*
X71235Y366439D01*
X71076Y366412D01*
X70483Y366346D01*
X70454Y366337D01*
X70424Y366338D01*
X65488Y365497D01*
X65460Y365486D01*
X65430Y365485D01*
X60551Y364361D01*
X60524Y364348D01*
X60494Y364346D01*
X60051Y364216D01*
X59989Y364202D01*
X59656Y364101D01*
X55688Y362941D01*
X55662Y362927D01*
X55632Y362923D01*
X54823Y362635D01*
X54499Y362537D01*
X53653Y362218D01*
X50915Y361243D01*
X50889Y361227D01*
X50860Y361221D01*
X49682Y360723D01*
X49131Y360516D01*
X48288Y360134D01*
X46248Y359272D01*
X46223Y359255D01*
X46194Y359247D01*
X44634Y358478D01*
X43906Y358148D01*
X43218Y357781D01*
X41703Y357034D01*
X41679Y357016D01*
X41651Y357007D01*
X39669Y355884D01*
X38847Y355444D01*
X38368Y355146D01*
X37294Y354538D01*
X37271Y354519D01*
X37244Y354508D01*
X34725Y352882D01*
X33975Y352415D01*
X33723Y352234D01*
X33037Y351792D01*
X33016Y351771D01*
X32989Y351758D01*
X29478Y349192D01*
X29313Y349074D01*
X29286Y349052D01*
X28946Y348804D01*
X28926Y348782D01*
X28899Y348767D01*
X26566Y346846D01*
X26482Y346743D01*
X26385Y346652D01*
X25782Y345808D01*
X25727Y345686D01*
X25657Y345573D01*
X25294Y344602D01*
X25272Y344470D01*
X25234Y344342D01*
X25134Y343310D01*
X25147Y343177D01*
X25143Y343044D01*
X25313Y342021D01*
X25361Y341896D01*
X25391Y341767D01*
X25821Y340823D01*
X25899Y340714D01*
X25962Y340597D01*
X26621Y339796D01*
X26724Y339712D01*
X26816Y339615D01*
X27660Y339012D01*
X27781Y338957D01*
X27894Y338887D01*
X27996Y338653D01*
X27779Y338153D01*
X27585D01*
X26856Y337851D01*
X26298Y337293D01*
X25995Y336563D01*
Y336209D01*
X25642D01*
X24912Y335907D01*
X24354Y335349D01*
X24257Y335114D01*
X23965Y335059D01*
X23704Y335087D01*
X23660Y335150D01*
X23655Y335161D01*
X23619Y335208D01*
X23056Y336012D01*
X22944Y336119D01*
X22842Y336236D01*
X21880Y336974D01*
X21741Y337043D01*
X21608Y337123D01*
X20686Y337459D01*
X20632Y337481D01*
X20620Y337483D01*
X20469Y337538D01*
X20315Y337561D01*
X20165Y337598D01*
X19534Y337626D01*
X19343Y337651D01*
X19247Y337638D01*
X18953Y337651D01*
X18800Y337628D01*
X18645Y337617D01*
X18217Y337503D01*
X18054Y337481D01*
X17902Y337418D01*
X17474Y337304D01*
X17335Y337235D01*
X17190Y337179D01*
X16942Y337021D01*
X16853Y336984D01*
X16700Y336867D01*
X16168Y336527D01*
X16055Y336420D01*
X15934Y336323D01*
X15831Y336200D01*
X15822Y336192D01*
X15786Y336146D01*
X13935Y333941D01*
X13921Y333914D01*
X13899Y333894D01*
X13362Y333173D01*
X13131Y332892D01*
X12596Y332146D01*
X10907Y329879D01*
X10894Y329852D01*
X10873Y329831D01*
X10146Y328726D01*
X9790Y328229D01*
X9307Y327453D01*
X8119Y325649D01*
X8107Y325622D01*
X8088Y325599D01*
X7192Y324052D01*
X6760Y323358D01*
X6402Y322687D01*
X5579Y321266D01*
X5569Y321237D01*
X5551Y321214D01*
X4499Y319127D01*
X4056Y318299D01*
X3833Y317807D01*
X3297Y316743D01*
X3289Y316714D01*
X3272Y316689D01*
X2043Y313856D01*
X1689Y313074D01*
X1589Y312808D01*
X1280Y312095D01*
X1273Y312066D01*
X1258Y312041D01*
X-318Y307743D01*
X-332Y307705D01*
X-334Y307699D01*
X-466Y307339D01*
X-470Y307310D01*
X-484Y307283D01*
X-1933Y302490D01*
X-1936Y302461D01*
X-1949Y302434D01*
X-3118Y297565D01*
X-3119Y297535D01*
X-3130Y297507D01*
X-3250Y296840D01*
X-3300Y296629D01*
X-3425Y295870D01*
X-4017Y292579D01*
X-4016Y292549D01*
X-4026Y292521D01*
X-4156Y291443D01*
X-4234Y290970D01*
X-4327Y290029D01*
X-4626Y287550D01*
X-4624Y287520D01*
X-4631Y287491D01*
X-4727Y285968D01*
X-4796Y285261D01*
X-4824Y284404D01*
X-4944Y282493D01*
X-4940Y282464D01*
X-4946Y282435D01*
X-4955Y280413D01*
X-4984Y279528D01*
X-4962Y278860D01*
X-4969Y277427D01*
X-4963Y277398D01*
X-4967Y277368D01*
X-4827Y274734D01*
X-4796Y273794D01*
X-4754Y273368D01*
X-4701Y272368D01*
X-4694Y272339D01*
X-4696Y272310D01*
X-4299Y268742D01*
X-4234Y268086D01*
X-4208Y267927D01*
X-4142Y267333D01*
X-4133Y267305D01*
X-4133Y267275D01*
X-3292Y262339D01*
X-3282Y262311D01*
X-3281Y262281D01*
X-2156Y257402D01*
X-2144Y257374D01*
X-2141Y257345D01*
X-2011Y256901D01*
X-1997Y256839D01*
X-1897Y256508D01*
X-736Y252538D01*
X-722Y252512D01*
X-718Y252482D01*
X-430Y251673D01*
X-332Y251350D01*
X-14Y250504D01*
X962Y247765D01*
X977Y247740D01*
X983Y247710D01*
X1481Y246532D01*
X1689Y245981D01*
X2070Y245139D01*
X2933Y243098D01*
X2950Y243074D01*
X2957Y243045D01*
X3726Y241484D01*
X4056Y240756D01*
X4424Y240068D01*
X5170Y238553D01*
X5189Y238529D01*
X5198Y238501D01*
X6321Y236519D01*
X6760Y235697D01*
X7058Y235218D01*
X7666Y234144D01*
X7686Y234122D01*
X7697Y234094D01*
X9324Y231575D01*
X9790Y230826D01*
X9970Y230574D01*
X10413Y229888D01*
X10434Y229866D01*
X10447Y229839D01*
X13013Y226327D01*
X13131Y226163D01*
X13152Y226137D01*
X13401Y225796D01*
X13423Y225776D01*
X13437Y225750D01*
X15029Y223817D01*
X15029Y223817D01*
X15416Y223347D01*
X15536Y223249D01*
X15648Y223140D01*
X16217Y222771D01*
X16366Y222657D01*
X16442Y222625D01*
X16669Y222478D01*
X16814Y222420D01*
X16953Y222351D01*
X17408Y222225D01*
X17567Y222159D01*
X17722Y222139D01*
X18126Y222027D01*
X18282Y222016D01*
X18436Y221991D01*
X18750Y222003D01*
X18856Y221989D01*
X19048Y222015D01*
X19652Y222038D01*
X19804Y222074D01*
X19958Y222097D01*
X20124Y222156D01*
X20145Y222159D01*
X20231Y222195D01*
X21103Y222508D01*
X21237Y222588D01*
X21377Y222656D01*
X22345Y223394D01*
X22448Y223511D01*
X22561Y223618D01*
X23146Y224449D01*
X23169Y224479D01*
X23171Y224486D01*
X23261Y224613D01*
X23324Y224756D01*
X23399Y224892D01*
X23531Y224954D01*
X23767Y224856D01*
X24052D01*
Y224435D01*
X24354Y223706D01*
X24912Y223148D01*
X25642Y222846D01*
X25995D01*
Y222492D01*
X26298Y221763D01*
X26856Y221204D01*
X27099Y221104D01*
X27162Y220874D01*
X27119Y220554D01*
X27114Y220552D01*
X27054Y220510D01*
X27044Y220506D01*
X26997Y220470D01*
X26265Y219957D01*
X26173Y219861D01*
X26068Y219777D01*
X26022Y219722D01*
X26012Y219714D01*
X25976Y219668D01*
X25402Y218983D01*
X25338Y218866D01*
X25259Y218759D01*
X25228Y218692D01*
X25221Y218683D01*
X25198Y218629D01*
X24821Y217819D01*
X24789Y217689D01*
X24741Y217565D01*
X24728Y217493D01*
X24723Y217482D01*
X24716Y217424D01*
X24561Y216544D01*
X24563Y216410D01*
X24549Y216278D01*
X24555Y216205D01*
X24554Y216193D01*
X24561Y216135D01*
X24639Y215245D01*
X24677Y215117D01*
X24697Y214985D01*
X24722Y214916D01*
X24723Y214904D01*
X24746Y214851D01*
X25052Y214010D01*
X25121Y213896D01*
X25174Y213774D01*
X25216Y213714D01*
X25221Y213703D01*
X25256Y213657D01*
X25769Y212925D01*
X25866Y212832D01*
X25949Y212728D01*
X26005Y212681D01*
X26012Y212672D01*
X26059Y212636D01*
X26346Y212395D01*
X26346Y212395D01*
X28264Y210786D01*
X28290Y210771D01*
X28310Y210749D01*
X29031Y210212D01*
X29313Y209981D01*
X30059Y209446D01*
X32326Y207757D01*
X32353Y207745D01*
X32374Y207724D01*
X33478Y206996D01*
X33975Y206640D01*
X34752Y206157D01*
X36555Y204969D01*
X36583Y204958D01*
X36605Y204938D01*
X38153Y204042D01*
X38847Y203611D01*
X39518Y203252D01*
X40939Y202429D01*
X40967Y202420D01*
X40991Y202401D01*
X43078Y201349D01*
X43906Y200907D01*
X44398Y200684D01*
X45462Y200147D01*
X45491Y200139D01*
X45515Y200122D01*
X48349Y198894D01*
X49131Y198539D01*
X49396Y198439D01*
X50109Y198130D01*
X50138Y198124D01*
X50164Y198108D01*
X54461Y196533D01*
X54499Y196519D01*
X54505Y196517D01*
X54865Y196385D01*
X54895Y196380D01*
X54921Y196366D01*
X59714Y194917D01*
X59744Y194914D01*
X59771Y194902D01*
X64640Y193732D01*
X64670Y193731D01*
X64697Y193720D01*
X65364Y193600D01*
X65575Y193551D01*
X66336Y193425D01*
X69626Y192833D01*
X69656Y192834D01*
X69684Y192825D01*
X70762Y192694D01*
X71235Y192616D01*
X72176Y192524D01*
X74655Y192224D01*
X74685Y192227D01*
X74714Y192219D01*
X76236Y192124D01*
X76944Y192054D01*
X77801Y192026D01*
X79711Y191907D01*
X79741Y191911D01*
X79770Y191905D01*
X81792Y191895D01*
X82677Y191867D01*
X83345Y191888D01*
X84777Y191882D01*
X84807Y191887D01*
X84836Y191883D01*
X87470Y192023D01*
X88411Y192054D01*
X88837Y192096D01*
X89836Y192149D01*
X89865Y192157D01*
X89895Y192154D01*
X93462Y192552D01*
X94119Y192616D01*
X94278Y192643D01*
X94872Y192709D01*
X94900Y192718D01*
X94930Y192717D01*
X99866Y193558D01*
X99894Y193569D01*
X99924Y193570D01*
X104803Y194694D01*
X104830Y194707D01*
X104860Y194709D01*
X105303Y194839D01*
X105366Y194853D01*
X105698Y194954D01*
X109666Y196114D01*
X109693Y196128D01*
X109722Y196132D01*
X110531Y196420D01*
X110855Y196519D01*
X111701Y196837D01*
X114439Y197812D01*
X114465Y197828D01*
X114494Y197834D01*
X115672Y198332D01*
X116224Y198539D01*
X117066Y198921D01*
X119106Y199783D01*
X119131Y199800D01*
X119160Y199808D01*
X120720Y200577D01*
X121449Y200907D01*
X122137Y201275D01*
X123652Y202021D01*
X123675Y202039D01*
X123704Y202048D01*
X125685Y203171D01*
X126508Y203611D01*
X126987Y203909D01*
X128060Y204517D01*
X128083Y204537D01*
X128111Y204548D01*
X130629Y206173D01*
X131379Y206640D01*
X131632Y206821D01*
X132317Y207264D01*
X132339Y207284D01*
X132366Y207297D01*
X135876Y209862D01*
X136042Y209981D01*
X136068Y210003D01*
X136408Y210251D01*
X136429Y210274D01*
X136455Y210288D01*
X138388Y211879D01*
X138388Y211879D01*
X138724Y212156D01*
X138733Y212167D01*
X138757Y212185D01*
X138813Y212259D01*
X138881Y212317D01*
X139416Y213005D01*
X139467Y213106D01*
X139533Y213196D01*
X139535Y213200D01*
X139548Y213217D01*
X139584Y213303D01*
X139906Y213985D01*
X139933Y214094D01*
X139978Y214197D01*
X140007Y214325D01*
X140046Y214418D01*
X140071Y214609D01*
X140169Y215048D01*
X140172Y215160D01*
X140194Y215271D01*
Y215543D01*
X140215Y215707D01*
X140194Y215870D01*
X140194Y216266D01*
X140166Y216407D01*
X140153Y216551D01*
X140063Y216861D01*
X140046Y216995D01*
X139974Y217167D01*
X139841Y217626D01*
X139775Y217754D01*
X139723Y217888D01*
X139587Y218103D01*
X139548Y218196D01*
X139430Y218350D01*
X139124Y218834D01*
X139024Y218938D01*
X138937Y219052D01*
X138795Y219178D01*
X138757Y219228D01*
X138619Y219334D01*
X138098Y219794D01*
X137974Y219866D01*
X137858Y219951D01*
X137742Y220006D01*
X137725Y220019D01*
X137645Y220052D01*
X137208Y220278D01*
X137349Y220618D01*
Y220902D01*
X137769D01*
X138499Y221204D01*
X139057Y221763D01*
X139359Y222492D01*
Y222846D01*
X139713D01*
X140442Y223148D01*
X141000Y223706D01*
X141101Y223949D01*
X141330Y224012D01*
X141651Y223969D01*
X141653Y223965D01*
X141695Y223905D01*
X141699Y223894D01*
X141734Y223848D01*
X142247Y223115D01*
X142344Y223023D01*
X142427Y222919D01*
X142483Y222872D01*
X142490Y222863D01*
X142536Y222827D01*
X143222Y222252D01*
X143339Y222188D01*
X143446Y222109D01*
X143512Y222078D01*
X143522Y222071D01*
X143575Y222049D01*
X144386Y221671D01*
X144516Y221639D01*
X144640Y221591D01*
X144712Y221578D01*
X144723Y221574D01*
X144780Y221566D01*
X145661Y221411D01*
X145794Y221414D01*
X145927Y221399D01*
X146000Y221406D01*
X146012Y221404D01*
X146069Y221412D01*
X146960Y221490D01*
X147088Y221527D01*
X147220Y221547D01*
X147289Y221572D01*
X147300Y221574D01*
X147354Y221596D01*
X148195Y221902D01*
X148309Y221971D01*
X148431Y222025D01*
X148491Y222067D01*
X148501Y222071D01*
X148548Y222107D01*
X149280Y222620D01*
X149372Y222716D01*
X149476Y222799D01*
X149523Y222855D01*
X149533Y222863D01*
X149569Y222909D01*
X151430Y225127D01*
X151444Y225154D01*
X151467Y225174D01*
X152001Y225892D01*
X152223Y226163D01*
X152754Y226903D01*
X154476Y229217D01*
X154489Y229244D01*
X154510Y229265D01*
X155222Y230347D01*
X155565Y230826D01*
X156053Y231611D01*
X157280Y233477D01*
X157292Y233505D01*
X157311Y233527D01*
X158177Y235026D01*
X158594Y235697D01*
X158966Y236394D01*
X159832Y237893D01*
X159841Y237921D01*
X159860Y237945D01*
X160862Y239941D01*
X161298Y240756D01*
X161541Y241292D01*
X162122Y242449D01*
X162130Y242478D01*
X162147Y242503D01*
X163289Y245150D01*
X163665Y245981D01*
X163789Y246309D01*
X164144Y247131D01*
X164150Y247161D01*
X164165Y247186D01*
X165525Y250921D01*
X165686Y251350D01*
X165713Y251437D01*
X165889Y251923D01*
X165894Y251953D01*
X165908Y251979D01*
X167354Y256808D01*
X167357Y256838D01*
X167369Y256865D01*
X168531Y261770D01*
X168533Y261800D01*
X168543Y261828D01*
X168633Y262336D01*
X168654Y262426D01*
X168728Y262877D01*
X169419Y266792D01*
X169418Y266822D01*
X169427Y266850D01*
X169531Y267739D01*
X169588Y268086D01*
X169678Y268993D01*
X170012Y271857D01*
X170010Y271887D01*
X170018Y271916D01*
X170093Y273209D01*
X170151Y273794D01*
X170181Y274718D01*
X170311Y276948D01*
X170307Y276978D01*
X170312Y277007D01*
X170312Y278738D01*
X170338Y279528D01*
X170312Y280317D01*
X170312Y282015D01*
X170307Y282044D01*
X170311Y282073D01*
X170181Y284329D01*
X170151Y285261D01*
X170095Y285823D01*
X170025Y287039D01*
X170018Y287068D01*
X170020Y287097D01*
X169674Y290101D01*
X169588Y290970D01*
X169540Y291263D01*
X169450Y292038D01*
X169441Y292067D01*
X169442Y292096D01*
X168661Y296587D01*
X168654Y296629D01*
X168652Y296636D01*
X168590Y296997D01*
X168579Y297024D01*
X168578Y297054D01*
X167446Y301898D01*
X167434Y301925D01*
X167431Y301954D01*
X166023Y306725D01*
X166009Y306751D01*
X166004Y306780D01*
X165761Y307459D01*
X165686Y307705D01*
X165394Y308482D01*
X164325Y311462D01*
X164309Y311488D01*
X164303Y311517D01*
X163852Y312579D01*
X163665Y313074D01*
X163277Y313932D01*
X162358Y316094D01*
X162341Y316119D01*
X162333Y316147D01*
X161613Y317605D01*
X161298Y318299D01*
X160913Y319019D01*
X160128Y320606D01*
X160110Y320630D01*
X160101Y320658D01*
X159028Y322546D01*
X158594Y323358D01*
X158277Y323868D01*
X157644Y324982D01*
X157624Y325005D01*
X157613Y325032D01*
X156042Y327462D01*
X155565Y328229D01*
X155368Y328504D01*
X154912Y329209D01*
X154891Y329230D01*
X154879Y329257D01*
X152385Y332667D01*
X152223Y332892D01*
X152193Y332930D01*
X151942Y333272D01*
X151920Y333292D01*
X151907Y333318D01*
X150326Y335238D01*
X150326Y335238D01*
X149996Y335638D01*
X149893Y335723D01*
X149801Y335820D01*
X148957Y336422D01*
X148836Y336477D01*
X148722Y336547D01*
X147751Y336911D01*
X147619Y336933D01*
X147492Y336971D01*
X146460Y337071D01*
X146327Y337058D01*
X146194Y337062D01*
X145171Y336891D01*
X145046Y336844D01*
X144916Y336813D01*
X143972Y336384D01*
X143864Y336306D01*
X143746Y336243D01*
X142946Y335584D01*
X142862Y335480D01*
X142764Y335389D01*
X142162Y334545D01*
X142107Y334424D01*
X142037Y334310D01*
X141802Y334208D01*
X141302Y334425D01*
Y334620D01*
X141000Y335349D01*
X140442Y335907D01*
X139713Y336209D01*
X139359D01*
Y336563D01*
X139057Y337293D01*
X138499Y337851D01*
X138229Y337962D01*
X138217Y338509D01*
X138257Y338527D01*
X138311Y338549D01*
X138320Y338557D01*
X138426Y338606D01*
X138542Y338691D01*
X138667Y338763D01*
X139210Y339240D01*
X139342Y339341D01*
X139376Y339385D01*
X139513Y339505D01*
X139601Y339619D01*
X139700Y339724D01*
X140016Y340219D01*
X140134Y340372D01*
X140171Y340461D01*
X140305Y340672D01*
X140357Y340807D01*
X140424Y340935D01*
X140559Y341401D01*
X140631Y341573D01*
X140648Y341706D01*
X140738Y342014D01*
X140751Y342158D01*
X140779Y342300D01*
X140779Y342698D01*
X140801Y342862D01*
X140779Y343025D01*
Y343293D01*
X140757Y343403D01*
X140755Y343514D01*
X140656Y343960D01*
X140631Y344151D01*
X140594Y344240D01*
X140568Y344356D01*
X140523Y344458D01*
X140497Y344566D01*
X140156Y345297D01*
X140134Y345352D01*
X140065Y345441D01*
X140017Y345538D01*
X139492Y346222D01*
X139411Y346294D01*
X139342Y346383D01*
X139295Y346419D01*
X137090Y348269D01*
X137064Y348284D01*
X137044Y348306D01*
X136323Y348843D01*
X136042Y349074D01*
X135294Y349609D01*
X133029Y351298D01*
X133002Y351310D01*
X132980Y351331D01*
X131877Y352059D01*
X131379Y352415D01*
X130602Y352899D01*
X128799Y354086D01*
X128771Y354097D01*
X128749Y354117D01*
X127202Y355013D01*
X126508Y355444D01*
X125836Y355803D01*
X124415Y356626D01*
X124387Y356635D01*
X124364Y356654D01*
X122277Y357706D01*
X121449Y358148D01*
X120956Y358372D01*
X119892Y358908D01*
X119863Y358916D01*
X119839Y358933D01*
X117007Y360161D01*
X116224Y360516D01*
X115957Y360616D01*
X115245Y360925D01*
X115216Y360931D01*
X115190Y360947D01*
X110895Y362522D01*
X110855Y362537D01*
X110849Y362538D01*
X110489Y362670D01*
X110459Y362675D01*
X110433Y362689D01*
X105640Y364138D01*
X105610Y364141D01*
X105583Y364153D01*
X100715Y365323D01*
X100685Y365324D01*
X100657Y365335D01*
X99990Y365455D01*
X99779Y365504D01*
X99018Y365630D01*
X95729Y366222D01*
X95699Y366221D01*
X95670Y366230D01*
X94593Y366360D01*
X94119Y366439D01*
X93177Y366531D01*
X90699Y366831D01*
X90670Y366828D01*
X90641Y366836D01*
X89118Y366931D01*
X88411Y367001D01*
X87553Y367029D01*
X85643Y367148D01*
X85614Y367144D01*
X85584Y367150D01*
X83563Y367160D01*
X82677Y367189D01*
D02*
G37*
G36*
X263779Y363252D02*
X263112Y363230D01*
X261679Y363236D01*
X261650Y363231D01*
X261620Y363235D01*
X258987Y363095D01*
X258046Y363064D01*
X257620Y363022D01*
X256620Y362969D01*
X256591Y362961D01*
X256562Y362964D01*
X252996Y362566D01*
X252338Y362502D01*
X252179Y362475D01*
X251585Y362409D01*
X251557Y362400D01*
X251527Y362401D01*
X246591Y361560D01*
X246563Y361549D01*
X246533Y361548D01*
X241654Y360424D01*
X241626Y360411D01*
X241597Y360409D01*
X241153Y360279D01*
X241091Y360265D01*
X240758Y360164D01*
X236790Y359004D01*
X236764Y358990D01*
X236734Y358986D01*
X235925Y358698D01*
X235602Y358599D01*
X234756Y358281D01*
X232017Y357306D01*
X231992Y357290D01*
X231962Y357284D01*
X230785Y356786D01*
X230233Y356579D01*
X229391Y356197D01*
X227350Y355335D01*
X227326Y355318D01*
X227297Y355310D01*
X225736Y354541D01*
X225008Y354211D01*
X224320Y353844D01*
X222805Y353097D01*
X222781Y353079D01*
X222753Y353070D01*
X220771Y351947D01*
X219949Y351507D01*
X219470Y351209D01*
X218396Y350601D01*
X218374Y350582D01*
X218346Y350571D01*
X215828Y348945D01*
X215078Y348478D01*
X214825Y348297D01*
X214140Y347854D01*
X214118Y347834D01*
X214091Y347821D01*
X210580Y345255D01*
X210415Y345137D01*
X210389Y345115D01*
X210048Y344867D01*
X210028Y344845D01*
X210002Y344830D01*
X207669Y342909D01*
X207585Y342806D01*
X207487Y342715D01*
X206885Y341871D01*
X206830Y341749D01*
X206760Y341636D01*
X206396Y340665D01*
X206374Y340533D01*
X206336Y340405D01*
X206236Y339373D01*
X206249Y339240D01*
X206245Y339107D01*
X206416Y338084D01*
X206463Y337959D01*
X206494Y337830D01*
X206923Y336886D01*
X207001Y336777D01*
X207064Y336660D01*
X207723Y335859D01*
X207827Y335775D01*
X207918Y335678D01*
X208762Y335075D01*
X208883Y335020D01*
X208997Y334950D01*
X209099Y334716D01*
X208882Y334216D01*
X208687D01*
X207958Y333914D01*
X207400Y333355D01*
X207098Y332626D01*
Y332272D01*
X206744D01*
X206015Y331970D01*
X205456Y331412D01*
X205359Y331176D01*
X205067Y331122D01*
X204807Y331150D01*
X204762Y331213D01*
X204758Y331224D01*
X204722Y331271D01*
X204159Y332075D01*
X204047Y332182D01*
X203944Y332299D01*
X202982Y333037D01*
X202843Y333106D01*
X202711Y333186D01*
X201788Y333522D01*
X201734Y333544D01*
X201722Y333546D01*
X201571Y333601D01*
X201418Y333624D01*
X201267Y333661D01*
X200636Y333689D01*
X200445Y333714D01*
X200349Y333701D01*
X200056Y333714D01*
X199902Y333691D01*
X199747Y333681D01*
X199320Y333566D01*
X199156Y333544D01*
X199004Y333481D01*
X198576Y333367D01*
X198437Y333298D01*
X198292Y333242D01*
X198045Y333084D01*
X197955Y333047D01*
X197803Y332930D01*
X197270Y332590D01*
X197158Y332483D01*
X197037Y332386D01*
X196933Y332263D01*
X196924Y332256D01*
X196888Y332209D01*
X195038Y330003D01*
X195023Y329977D01*
X195001Y329957D01*
X194464Y329236D01*
X194233Y328955D01*
X193699Y328209D01*
X192009Y325942D01*
X191997Y325915D01*
X191976Y325894D01*
X191248Y324789D01*
X190892Y324292D01*
X190409Y323516D01*
X189221Y321712D01*
X189210Y321685D01*
X189190Y321662D01*
X188294Y320115D01*
X187863Y319421D01*
X187504Y318750D01*
X186681Y317329D01*
X186672Y317301D01*
X186653Y317277D01*
X185601Y315189D01*
X185159Y314362D01*
X184936Y313870D01*
X184399Y312806D01*
X184391Y312777D01*
X184374Y312752D01*
X183145Y309919D01*
X182791Y309137D01*
X182691Y308871D01*
X182382Y308158D01*
X182376Y308129D01*
X182360Y308104D01*
X180785Y303805D01*
X180771Y303768D01*
X180769Y303763D01*
X180637Y303402D01*
X180632Y303373D01*
X180618Y303346D01*
X179169Y298553D01*
X179166Y298524D01*
X179154Y298497D01*
X177984Y293628D01*
X177983Y293598D01*
X177972Y293570D01*
X177852Y292903D01*
X177803Y292692D01*
X177677Y291933D01*
X177085Y288642D01*
X177086Y288612D01*
X177077Y288584D01*
X176946Y287506D01*
X176868Y287033D01*
X176776Y286092D01*
X176476Y283613D01*
X176479Y283583D01*
X176471Y283554D01*
X176376Y282031D01*
X176306Y281324D01*
X176278Y280467D01*
X176159Y278556D01*
X176163Y278527D01*
X176157Y278498D01*
X176147Y276476D01*
X176118Y275590D01*
X176140Y274923D01*
X176134Y273490D01*
X176139Y273461D01*
X176135Y273431D01*
X176275Y270797D01*
X176306Y269857D01*
X176348Y269431D01*
X176401Y268431D01*
X176409Y268402D01*
X176406Y268373D01*
X176804Y264805D01*
X176868Y264148D01*
X176894Y263990D01*
X176961Y263396D01*
X176970Y263368D01*
X176969Y263338D01*
X177810Y258402D01*
X177821Y258374D01*
X177822Y258344D01*
X178946Y253465D01*
X178959Y253437D01*
X178961Y253408D01*
X179091Y252964D01*
X179105Y252902D01*
X179206Y252571D01*
X180366Y248601D01*
X180380Y248575D01*
X180384Y248545D01*
X180673Y247736D01*
X180771Y247413D01*
X181089Y246567D01*
X182064Y243828D01*
X182080Y243803D01*
X182086Y243774D01*
X182584Y242595D01*
X182791Y242044D01*
X183173Y241202D01*
X184035Y239161D01*
X184052Y239137D01*
X184060Y239108D01*
X184829Y237547D01*
X185159Y236819D01*
X185526Y236131D01*
X186273Y234616D01*
X186291Y234592D01*
X186300Y234564D01*
X187424Y232582D01*
X187863Y231760D01*
X188161Y231281D01*
X188769Y230207D01*
X188788Y230185D01*
X188799Y230157D01*
X190426Y227638D01*
X190892Y226889D01*
X191073Y226637D01*
X191516Y225951D01*
X191536Y225929D01*
X191549Y225902D01*
X194115Y222390D01*
X194233Y222226D01*
X194255Y222200D01*
X194503Y221859D01*
X194526Y221839D01*
X194540Y221813D01*
X196131Y219880D01*
X196131Y219880D01*
X196518Y219410D01*
X196639Y219312D01*
X196750Y219203D01*
X197320Y218834D01*
X197469Y218720D01*
X197544Y218688D01*
X197772Y218541D01*
X197916Y218483D01*
X198056Y218413D01*
X198510Y218288D01*
X198670Y218222D01*
X198824Y218202D01*
X199229Y218090D01*
X199384Y218079D01*
X199538Y218055D01*
X199853Y218066D01*
X199959Y218053D01*
X200150Y218078D01*
X200754Y218101D01*
X200906Y218137D01*
X201060Y218160D01*
X201226Y218219D01*
X201247Y218222D01*
X201333Y218258D01*
X202206Y218571D01*
X202339Y218651D01*
X202479Y218719D01*
X203447Y219457D01*
X203550Y219574D01*
X203663Y219681D01*
X204248Y220512D01*
X204271Y220542D01*
X204274Y220549D01*
X204364Y220676D01*
X204427Y220819D01*
X204502Y220955D01*
X204633Y221017D01*
X204870Y220919D01*
X205154D01*
Y220498D01*
X205456Y219769D01*
X206015Y219211D01*
X206744Y218909D01*
X207098D01*
Y218555D01*
X207400Y217826D01*
X207958Y217267D01*
X208201Y217167D01*
X208265Y216937D01*
X208221Y216617D01*
X208217Y216615D01*
X208157Y216573D01*
X208146Y216569D01*
X208099Y216533D01*
X207367Y216020D01*
X207275Y215924D01*
X207171Y215840D01*
X207124Y215785D01*
X207115Y215777D01*
X207079Y215731D01*
X206504Y215046D01*
X206440Y214929D01*
X206361Y214822D01*
X206330Y214755D01*
X206323Y214746D01*
X206301Y214692D01*
X205923Y213882D01*
X205891Y213752D01*
X205843Y213628D01*
X205830Y213556D01*
X205826Y213545D01*
X205818Y213487D01*
X205663Y212607D01*
X205666Y212473D01*
X205651Y212341D01*
X205658Y212268D01*
X205656Y212256D01*
X205664Y212198D01*
X205742Y211308D01*
X205779Y211179D01*
X205799Y211048D01*
X205824Y210979D01*
X205826Y210967D01*
X205848Y210914D01*
X206154Y210073D01*
X206223Y209959D01*
X206277Y209837D01*
X206319Y209777D01*
X206323Y209766D01*
X206359Y209720D01*
X206872Y208988D01*
X206968Y208895D01*
X207051Y208791D01*
X207107Y208744D01*
X207115Y208735D01*
X207161Y208699D01*
X207449Y208458D01*
X207449Y208458D01*
X209367Y206849D01*
X209393Y206834D01*
X209413Y206812D01*
X210134Y206275D01*
X210415Y206044D01*
X211161Y205509D01*
X213428Y203820D01*
X213455Y203808D01*
X213476Y203787D01*
X214581Y203059D01*
X215078Y202703D01*
X215854Y202220D01*
X217658Y201032D01*
X217685Y201021D01*
X217708Y201001D01*
X219255Y200105D01*
X219949Y199674D01*
X220620Y199315D01*
X222041Y198492D01*
X222070Y198483D01*
X222093Y198464D01*
X224181Y197412D01*
X225008Y196970D01*
X225500Y196747D01*
X226564Y196210D01*
X226593Y196202D01*
X226618Y196185D01*
X229451Y194957D01*
X230233Y194602D01*
X230499Y194502D01*
X231212Y194193D01*
X231241Y194187D01*
X231266Y194171D01*
X235564Y192596D01*
X235602Y192582D01*
X235608Y192580D01*
X235968Y192448D01*
X235997Y192443D01*
X236024Y192429D01*
X240817Y190980D01*
X240846Y190977D01*
X240874Y190965D01*
X245742Y189795D01*
X245772Y189794D01*
X245800Y189783D01*
X246467Y189663D01*
X246678Y189614D01*
X247438Y189488D01*
X250728Y188897D01*
X250758Y188897D01*
X250786Y188888D01*
X251864Y188758D01*
X252338Y188679D01*
X253279Y188587D01*
X255757Y188287D01*
X255787Y188290D01*
X255816Y188282D01*
X257339Y188187D01*
X258046Y188117D01*
X258903Y188089D01*
X260814Y187970D01*
X260843Y187974D01*
X260873Y187968D01*
X262894Y187958D01*
X263779Y187929D01*
X264447Y187951D01*
X265880Y187945D01*
X265909Y187950D01*
X265939Y187946D01*
X268572Y188086D01*
X269513Y188117D01*
X269939Y188159D01*
X270939Y188212D01*
X270968Y188220D01*
X270998Y188217D01*
X274564Y188615D01*
X275222Y188679D01*
X275380Y188706D01*
X275974Y188772D01*
X276002Y188781D01*
X276032Y188780D01*
X280968Y189621D01*
X280996Y189632D01*
X281026Y189633D01*
X285905Y190758D01*
X285933Y190770D01*
X285962Y190772D01*
X286406Y190902D01*
X286468Y190916D01*
X286800Y191017D01*
X290769Y192177D01*
X290795Y192191D01*
X290825Y192195D01*
X291634Y192483D01*
X291957Y192582D01*
X292804Y192900D01*
X295542Y193875D01*
X295567Y193891D01*
X295597Y193897D01*
X296775Y194395D01*
X297326Y194602D01*
X298168Y194984D01*
X300209Y195846D01*
X300233Y195863D01*
X300262Y195871D01*
X301823Y196640D01*
X302551Y196970D01*
X303239Y197338D01*
X304754Y198084D01*
X304778Y198102D01*
X304806Y198111D01*
X306787Y199234D01*
X307610Y199674D01*
X308089Y199972D01*
X309162Y200580D01*
X309185Y200600D01*
X309213Y200610D01*
X311731Y202236D01*
X312481Y202703D01*
X312734Y202884D01*
X313420Y203327D01*
X313441Y203347D01*
X313468Y203360D01*
X316978Y205925D01*
X317144Y206044D01*
X317171Y206066D01*
X317511Y206314D01*
X317531Y206336D01*
X317557Y206351D01*
X319490Y207942D01*
X319490Y207942D01*
X319826Y208219D01*
X319835Y208230D01*
X319859Y208248D01*
X319916Y208322D01*
X319983Y208380D01*
X320518Y209068D01*
X320569Y209169D01*
X320636Y209259D01*
X320637Y209263D01*
X320651Y209280D01*
X320686Y209366D01*
X321008Y210048D01*
X321035Y210157D01*
X321081Y210260D01*
X321109Y210388D01*
X321148Y210481D01*
X321173Y210672D01*
X321271Y211111D01*
X321274Y211223D01*
X321296Y211334D01*
Y211606D01*
X321318Y211770D01*
X321296Y211933D01*
X321296Y212330D01*
X321268Y212471D01*
X321256Y212614D01*
X321166Y212924D01*
X321148Y213058D01*
X321077Y213230D01*
X320943Y213689D01*
X320877Y213817D01*
X320826Y213951D01*
X320689Y214166D01*
X320651Y214259D01*
X320533Y214413D01*
X320226Y214897D01*
X320127Y215001D01*
X320040Y215115D01*
X319897Y215241D01*
X319859Y215291D01*
X319721Y215396D01*
X319200Y215857D01*
X319076Y215929D01*
X318960Y216014D01*
X318845Y216069D01*
X318828Y216082D01*
X318748Y216115D01*
X318310Y216340D01*
X318451Y216681D01*
Y216965D01*
X318872D01*
X319601Y217267D01*
X320159Y217826D01*
X320461Y218555D01*
Y218909D01*
X320815D01*
X321545Y219211D01*
X322103Y219769D01*
X322203Y220012D01*
X322433Y220075D01*
X322753Y220032D01*
X322755Y220028D01*
X322797Y219968D01*
X322801Y219957D01*
X322837Y219911D01*
X323350Y219178D01*
X323446Y219086D01*
X323530Y218982D01*
X323586Y218935D01*
X323593Y218926D01*
X323639Y218890D01*
X324324Y218315D01*
X324441Y218251D01*
X324549Y218172D01*
X324615Y218141D01*
X324624Y218134D01*
X324678Y218112D01*
X325488Y217734D01*
X325618Y217702D01*
X325742Y217654D01*
X325814Y217641D01*
X325825Y217637D01*
X325883Y217629D01*
X326764Y217474D01*
X326897Y217477D01*
X327029Y217462D01*
X327102Y217469D01*
X327114Y217467D01*
X327172Y217475D01*
X328063Y217553D01*
X328191Y217590D01*
X328322Y217610D01*
X328391Y217635D01*
X328403Y217637D01*
X328456Y217659D01*
X329297Y217965D01*
X329411Y218034D01*
X329533Y218088D01*
X329593Y218130D01*
X329604Y218134D01*
X329650Y218170D01*
X330382Y218683D01*
X330475Y218779D01*
X330579Y218862D01*
X330626Y218918D01*
X330635Y218926D01*
X330671Y218972D01*
X332532Y221190D01*
X332546Y221217D01*
X332569Y221237D01*
X333103Y221955D01*
X333326Y222226D01*
X333856Y222966D01*
X335579Y225280D01*
X335592Y225307D01*
X335613Y225328D01*
X336324Y226410D01*
X336667Y226889D01*
X337155Y227674D01*
X338383Y229540D01*
X338394Y229568D01*
X338414Y229590D01*
X339279Y231089D01*
X339696Y231760D01*
X340069Y232457D01*
X340934Y233956D01*
X340944Y233984D01*
X340962Y234008D01*
X341965Y236004D01*
X342400Y236819D01*
X342643Y237355D01*
X343224Y238512D01*
X343232Y238541D01*
X343249Y238566D01*
X344391Y241213D01*
X344768Y242044D01*
X344892Y242372D01*
X345246Y243194D01*
X345252Y243224D01*
X345268Y243249D01*
X346627Y246984D01*
X346789Y247413D01*
X346815Y247500D01*
X346992Y247986D01*
X346996Y248015D01*
X347010Y248042D01*
X348456Y252871D01*
X348459Y252901D01*
X348471Y252928D01*
X349634Y257833D01*
X349635Y257863D01*
X349646Y257891D01*
X349735Y258400D01*
X349756Y258489D01*
X349831Y258940D01*
X350521Y262855D01*
X350520Y262885D01*
X350530Y262913D01*
X350634Y263802D01*
X350691Y264148D01*
X350780Y265056D01*
X351115Y267920D01*
X351112Y267950D01*
X351120Y267979D01*
X351195Y269271D01*
X351253Y269857D01*
X351283Y270781D01*
X351413Y273011D01*
X351409Y273041D01*
X351415Y273070D01*
X351415Y274801D01*
X351441Y275590D01*
X351415Y276380D01*
X351415Y278078D01*
X351409Y278107D01*
X351413Y278136D01*
X351284Y280392D01*
X351253Y281324D01*
X351198Y281886D01*
X351128Y283102D01*
X351120Y283131D01*
X351123Y283160D01*
X350776Y286164D01*
X350691Y287033D01*
X350642Y287326D01*
X350553Y288101D01*
X350544Y288130D01*
X350544Y288159D01*
X349763Y292650D01*
X349756Y292692D01*
X349755Y292699D01*
X349692Y293060D01*
X349681Y293087D01*
X349680Y293117D01*
X348548Y297960D01*
X348536Y297988D01*
X348533Y298017D01*
X347125Y302788D01*
X347111Y302814D01*
X347107Y302843D01*
X346863Y303522D01*
X346789Y303768D01*
X346496Y304545D01*
X345427Y307525D01*
X345412Y307551D01*
X345406Y307579D01*
X344954Y308642D01*
X344768Y309137D01*
X344379Y309995D01*
X343460Y312157D01*
X343443Y312182D01*
X343436Y312210D01*
X342715Y313668D01*
X342400Y314362D01*
X342015Y315082D01*
X341231Y316669D01*
X341213Y316692D01*
X341203Y316721D01*
X340130Y318609D01*
X339696Y319421D01*
X339380Y319930D01*
X338746Y321045D01*
X338727Y321068D01*
X338716Y321095D01*
X337144Y323525D01*
X336667Y324292D01*
X336471Y324567D01*
X336014Y325272D01*
X335994Y325293D01*
X335981Y325320D01*
X333487Y328730D01*
X333326Y328955D01*
X333295Y328993D01*
X333045Y329335D01*
X333023Y329355D01*
X333009Y329381D01*
X331428Y331301D01*
X331428Y331301D01*
X331098Y331701D01*
X330995Y331786D01*
X330904Y331883D01*
X330060Y332485D01*
X329938Y332540D01*
X329825Y332611D01*
X328854Y332974D01*
X328722Y332996D01*
X328594Y333034D01*
X327562Y333134D01*
X327429Y333121D01*
X327296Y333125D01*
X326273Y332954D01*
X326148Y332907D01*
X326019Y332876D01*
X325075Y332447D01*
X324966Y332369D01*
X324849Y332306D01*
X324048Y331647D01*
X323964Y331543D01*
X323867Y331452D01*
X323264Y330608D01*
X323209Y330487D01*
X323139Y330373D01*
X322905Y330271D01*
X322405Y330488D01*
Y330683D01*
X322103Y331412D01*
X321545Y331970D01*
X320815Y332272D01*
X320461D01*
Y332626D01*
X320159Y333355D01*
X319601Y333914D01*
X319331Y334025D01*
X319319Y334572D01*
X319359Y334590D01*
X319413Y334612D01*
X319423Y334620D01*
X319528Y334669D01*
X319645Y334754D01*
X319770Y334826D01*
X320313Y335303D01*
X320444Y335404D01*
X320478Y335448D01*
X320615Y335568D01*
X320703Y335683D01*
X320803Y335787D01*
X321119Y336282D01*
X321236Y336435D01*
X321273Y336524D01*
X321407Y336735D01*
X321459Y336870D01*
X321526Y336998D01*
X321662Y337464D01*
X321733Y337636D01*
X321751Y337769D01*
X321841Y338077D01*
X321853Y338221D01*
X321882Y338363D01*
X321882Y338761D01*
X321903Y338925D01*
X321882Y339089D01*
Y339356D01*
X321860Y339465D01*
X321857Y339577D01*
X321759Y340023D01*
X321733Y340214D01*
X321696Y340303D01*
X321671Y340419D01*
X321626Y340521D01*
X321599Y340629D01*
X321258Y341360D01*
X321236Y341415D01*
X321167Y341504D01*
X321119Y341601D01*
X320594Y342285D01*
X320513Y342357D01*
X320444Y342446D01*
X320397Y342482D01*
X318193Y344332D01*
X318166Y344347D01*
X318146Y344369D01*
X317426Y344906D01*
X317144Y345137D01*
X316397Y345672D01*
X314131Y347361D01*
X314104Y347373D01*
X314083Y347394D01*
X312979Y348122D01*
X312481Y348478D01*
X311704Y348962D01*
X309901Y350149D01*
X309874Y350160D01*
X309851Y350180D01*
X308304Y351076D01*
X307610Y351507D01*
X306938Y351867D01*
X305518Y352689D01*
X305489Y352698D01*
X305466Y352717D01*
X303379Y353769D01*
X302551Y354211D01*
X302058Y354435D01*
X300995Y354971D01*
X300966Y354979D01*
X300941Y354996D01*
X298109Y356224D01*
X297326Y356579D01*
X297060Y356679D01*
X296347Y356988D01*
X296318Y356994D01*
X296293Y357010D01*
X291997Y358584D01*
X291957Y358599D01*
X291951Y358601D01*
X291591Y358733D01*
X291562Y358738D01*
X291535Y358752D01*
X286742Y360201D01*
X286713Y360204D01*
X286686Y360216D01*
X281817Y361386D01*
X281787Y361387D01*
X281759Y361398D01*
X281093Y361518D01*
X280881Y361567D01*
X280120Y361693D01*
X276831Y362285D01*
X276801Y362284D01*
X276773Y362293D01*
X275695Y362423D01*
X275222Y362502D01*
X274280Y362595D01*
X271802Y362894D01*
X271772Y362892D01*
X271743Y362899D01*
X270221Y362994D01*
X269513Y363064D01*
X268656Y363092D01*
X266745Y363211D01*
X266716Y363207D01*
X266687Y363213D01*
X264666Y363223D01*
X263779Y363252D01*
D02*
G37*
G36*
X4811Y367142D02*
X3063D01*
X1349Y366801D01*
X-266Y366132D01*
X-1720Y365161D01*
X-2956Y363925D01*
X-3927Y362471D01*
X-4596Y360856D01*
X-4937Y359142D01*
Y357394D01*
X-4596Y355679D01*
X-3927Y354064D01*
X-2956Y352611D01*
X-1720Y351375D01*
X-266Y350404D01*
X1349Y349735D01*
X3063Y349394D01*
X4811D01*
X6526Y349735D01*
X8140Y350404D01*
X9594Y351375D01*
X10830Y352611D01*
X11801Y354064D01*
X12470Y355679D01*
X12811Y357394D01*
Y359142D01*
X12470Y360856D01*
X11801Y362471D01*
X10830Y363925D01*
X9594Y365161D01*
X8140Y366132D01*
X6526Y366801D01*
X4811Y367142D01*
D02*
G37*
G36*
X343394Y367142D02*
X341646D01*
X339931Y366801D01*
X338316Y366132D01*
X336863Y365161D01*
X335627Y363925D01*
X334656Y362471D01*
X333987Y360856D01*
X333646Y359142D01*
Y357394D01*
X333987Y355679D01*
X334656Y354064D01*
X335627Y352611D01*
X336863Y351375D01*
X338316Y350404D01*
X339931Y349735D01*
X341646Y349394D01*
X343394D01*
X345108Y349735D01*
X346723Y350404D01*
X348177Y351375D01*
X349413Y352611D01*
X350384Y354064D01*
X351053Y355679D01*
X351394Y357394D01*
Y359142D01*
X351053Y360856D01*
X350384Y362471D01*
X349413Y363925D01*
X348177Y365161D01*
X346723Y366132D01*
X345108Y366801D01*
X343394Y367142D01*
D02*
G37*
G36*
X78740Y186086D02*
X78073Y186065D01*
X76640Y186071D01*
X76611Y186065D01*
X76581Y186070D01*
X73948Y185929D01*
X73007Y185899D01*
X72580Y185857D01*
X71581Y185803D01*
X71552Y185796D01*
X71522Y185799D01*
X67956Y185401D01*
X67298Y185336D01*
X67139Y185310D01*
X66546Y185244D01*
X66517Y185235D01*
X66487Y185236D01*
X61551Y184395D01*
X61523Y184384D01*
X61493Y184383D01*
X56614Y183258D01*
X56587Y183246D01*
X56557Y183243D01*
X56114Y183114D01*
X56052Y183099D01*
X55719Y182998D01*
X51751Y181839D01*
X51725Y181825D01*
X51695Y181820D01*
X50886Y181532D01*
X50562Y181434D01*
X49716Y181116D01*
X46978Y180140D01*
X46952Y180125D01*
X46923Y180119D01*
X45745Y179621D01*
X45194Y179413D01*
X44351Y179032D01*
X42311Y178169D01*
X42286Y178153D01*
X42257Y178145D01*
X40697Y177376D01*
X39969Y177046D01*
X39281Y176678D01*
X37766Y175932D01*
X37742Y175914D01*
X37714Y175904D01*
X35732Y174782D01*
X34910Y174342D01*
X34431Y174044D01*
X33357Y173436D01*
X33334Y173416D01*
X33307Y173405D01*
X30788Y171779D01*
X30038Y171313D01*
X29786Y171132D01*
X29100Y170689D01*
X29079Y170668D01*
X29052Y170656D01*
X25541Y168090D01*
X25376Y167971D01*
X25349Y167950D01*
X25009Y167701D01*
X24989Y167679D01*
X24962Y167665D01*
X22629Y165744D01*
X22545Y165641D01*
X22448Y165549D01*
X21845Y164705D01*
X21790Y164584D01*
X21720Y164470D01*
X21357Y163499D01*
X21335Y163368D01*
X21297Y163240D01*
X21197Y162208D01*
X21210Y162075D01*
X21206Y161942D01*
X21376Y160919D01*
X21424Y160794D01*
X21454Y160664D01*
X21884Y159720D01*
X21962Y159612D01*
X22025Y159495D01*
X22684Y158694D01*
X22787Y158610D01*
X22879Y158512D01*
X23722Y157910D01*
X23844Y157855D01*
X23957Y157785D01*
X24059Y157550D01*
X23843Y157050D01*
X23648D01*
X22919Y156748D01*
X22361Y156190D01*
X22058Y155461D01*
Y155107D01*
X21704D01*
X20975Y154805D01*
X20417Y154247D01*
X20320Y154011D01*
X20028Y153956D01*
X19767Y153984D01*
X19723Y154048D01*
X19718Y154059D01*
X19682Y154106D01*
X19119Y154910D01*
X19007Y155017D01*
X18905Y155134D01*
X17943Y155872D01*
X17804Y155940D01*
X17671Y156021D01*
X16749Y156356D01*
X16695Y156379D01*
X16683Y156380D01*
X16532Y156436D01*
X16378Y156459D01*
X16228Y156496D01*
X15597Y156524D01*
X15406Y156549D01*
X15310Y156536D01*
X15016Y156549D01*
X14863Y156525D01*
X14708Y156515D01*
X14280Y156401D01*
X14117Y156379D01*
X13965Y156316D01*
X13537Y156201D01*
X13398Y156133D01*
X13253Y156076D01*
X13005Y155919D01*
X12916Y155882D01*
X12763Y155764D01*
X12230Y155425D01*
X12118Y155318D01*
X11997Y155220D01*
X11894Y155097D01*
X11885Y155090D01*
X11849Y155043D01*
X9998Y152838D01*
X9984Y152812D01*
X9962Y152792D01*
X9425Y152071D01*
X9194Y151790D01*
X8659Y151043D01*
X6970Y148777D01*
X6957Y148750D01*
X6936Y148728D01*
X6209Y147624D01*
X5853Y147127D01*
X5370Y146350D01*
X4182Y144547D01*
X4170Y144519D01*
X4151Y144497D01*
X3255Y142949D01*
X2823Y142256D01*
X2465Y141584D01*
X1642Y140163D01*
X1632Y140135D01*
X1614Y140112D01*
X562Y138024D01*
X119Y137197D01*
X-104Y136705D01*
X-640Y135640D01*
X-648Y135612D01*
X-665Y135587D01*
X-1894Y132754D01*
X-2248Y131972D01*
X-2348Y131706D01*
X-2657Y130993D01*
X-2664Y130964D01*
X-2679Y130938D01*
X-4255Y126640D01*
X-4269Y126603D01*
X-4270Y126597D01*
X-4403Y126237D01*
X-4407Y126207D01*
X-4421Y126181D01*
X-5870Y121388D01*
X-5873Y121358D01*
X-5886Y121331D01*
X-7055Y116463D01*
X-7057Y116433D01*
X-7067Y116405D01*
X-7187Y115738D01*
X-7237Y115527D01*
X-7362Y114767D01*
X-7954Y111477D01*
X-7953Y111447D01*
X-7963Y111418D01*
X-8093Y110340D01*
X-8171Y109867D01*
X-8264Y108926D01*
X-8563Y106447D01*
X-8561Y106418D01*
X-8568Y106389D01*
X-8664Y104866D01*
X-8733Y104158D01*
X-8761Y103302D01*
X-8881Y101391D01*
X-8877Y101362D01*
X-8883Y101332D01*
X-8892Y99311D01*
X-8921Y98425D01*
X-8899Y97758D01*
X-8906Y96325D01*
X-8900Y96296D01*
X-8904Y96266D01*
X-8764Y93632D01*
X-8733Y92692D01*
X-8691Y92266D01*
X-8638Y91266D01*
X-8631Y91237D01*
X-8633Y91207D01*
X-8236Y87640D01*
X-8171Y86983D01*
X-8145Y86825D01*
X-8079Y86231D01*
X-8070Y86202D01*
X-8070Y86172D01*
X-7229Y81236D01*
X-7219Y81208D01*
X-7218Y81178D01*
X-6093Y76299D01*
X-6081Y76272D01*
X-6078Y76242D01*
X-5948Y75799D01*
X-5934Y75737D01*
X-5833Y75406D01*
X-4673Y71436D01*
X-4659Y71410D01*
X-4655Y71380D01*
X-4367Y70571D01*
X-4269Y70248D01*
X-3951Y69402D01*
X-2975Y66663D01*
X-2960Y66637D01*
X-2954Y66608D01*
X-2456Y65430D01*
X-2248Y64879D01*
X-1867Y64037D01*
X-1004Y61996D01*
X-987Y61971D01*
X-979Y61942D01*
X-210Y60382D01*
X119Y59654D01*
X487Y58966D01*
X1233Y57451D01*
X1252Y57427D01*
X1261Y57399D01*
X2384Y55417D01*
X2823Y54595D01*
X3121Y54116D01*
X3729Y53042D01*
X3749Y53020D01*
X3760Y52992D01*
X5387Y50473D01*
X5853Y49723D01*
X6033Y49471D01*
X6476Y48785D01*
X6497Y48764D01*
X6510Y48737D01*
X9076Y45225D01*
X9194Y45061D01*
X9215Y45034D01*
X9464Y44694D01*
X9486Y44674D01*
X9500Y44647D01*
X11092Y42715D01*
X11092Y42715D01*
X11479Y42245D01*
X11599Y42146D01*
X11711Y42038D01*
X12280Y41668D01*
X12429Y41554D01*
X12505Y41523D01*
X12732Y41376D01*
X12877Y41318D01*
X13016Y41248D01*
X13471Y41123D01*
X13630Y41057D01*
X13785Y41036D01*
X14189Y40925D01*
X14345Y40914D01*
X14499Y40889D01*
X14813Y40901D01*
X14919Y40887D01*
X15111Y40912D01*
X15715Y40935D01*
X15867Y40971D01*
X16021Y40994D01*
X16187Y41054D01*
X16208Y41057D01*
X16294Y41093D01*
X17166Y41405D01*
X17300Y41486D01*
X17440Y41554D01*
X18408Y42292D01*
X18511Y42408D01*
X18624Y42516D01*
X19208Y43347D01*
X19232Y43377D01*
X19234Y43383D01*
X19324Y43511D01*
X19387Y43654D01*
X19462Y43790D01*
X19594Y43851D01*
X19830Y43753D01*
X20115D01*
Y43333D01*
X20417Y42604D01*
X20975Y42046D01*
X21704Y41743D01*
X22058D01*
Y41390D01*
X22361Y40660D01*
X22919Y40102D01*
X23162Y40001D01*
X23225Y39772D01*
X23182Y39452D01*
X23177Y39450D01*
X23117Y39408D01*
X23107Y39403D01*
X23060Y39368D01*
X22328Y38855D01*
X22235Y38759D01*
X22131Y38675D01*
X22085Y38619D01*
X22075Y38612D01*
X22039Y38565D01*
X21465Y37881D01*
X21401Y37764D01*
X21322Y37656D01*
X21291Y37590D01*
X21284Y37581D01*
X21261Y37527D01*
X20884Y36716D01*
X20852Y36587D01*
X20804Y36462D01*
X20791Y36391D01*
X20786Y36380D01*
X20779Y36322D01*
X20624Y35441D01*
X20626Y35308D01*
X20612Y35175D01*
X20618Y35102D01*
X20617Y35091D01*
X20624Y35033D01*
X20702Y34142D01*
X20740Y34014D01*
X20760Y33882D01*
X20785Y33814D01*
X20786Y33802D01*
X20809Y33748D01*
X21114Y32908D01*
X21184Y32794D01*
X21237Y32672D01*
X21279Y32612D01*
X21284Y32601D01*
X21319Y32555D01*
X21832Y31822D01*
X21929Y31730D01*
X22012Y31626D01*
X22068Y31579D01*
X22075Y31570D01*
X22122Y31534D01*
X22409Y31293D01*
X22409Y31293D01*
X24327Y29683D01*
X24353Y29669D01*
X24373Y29647D01*
X25094Y29110D01*
X25376Y28879D01*
X26122Y28344D01*
X28389Y26655D01*
X28416Y26642D01*
X28437Y26621D01*
X29541Y25894D01*
X30038Y25538D01*
X30815Y25055D01*
X32618Y23867D01*
X32646Y23855D01*
X32668Y23836D01*
X34216Y22940D01*
X34910Y22508D01*
X35581Y22150D01*
X37002Y21327D01*
X37030Y21317D01*
X37054Y21299D01*
X39141Y20247D01*
X39969Y19804D01*
X40461Y19581D01*
X41525Y19045D01*
X41554Y19037D01*
X41578Y19020D01*
X44412Y17791D01*
X45194Y17437D01*
X45459Y17337D01*
X46172Y17028D01*
X46202Y17021D01*
X46227Y17006D01*
X50524Y15430D01*
X50562Y15416D01*
X50568Y15415D01*
X50928Y15282D01*
X50958Y15278D01*
X50984Y15264D01*
X55777Y13815D01*
X55807Y13812D01*
X55834Y13799D01*
X60703Y12630D01*
X60733Y12629D01*
X60760Y12618D01*
X61427Y12498D01*
X61638Y12449D01*
X62399Y12323D01*
X65689Y11731D01*
X65719Y11732D01*
X65747Y11722D01*
X66825Y11592D01*
X67298Y11514D01*
X68239Y11421D01*
X70718Y11122D01*
X70748Y11124D01*
X70777Y11117D01*
X72299Y11022D01*
X73007Y10952D01*
X73864Y10924D01*
X75774Y10804D01*
X75804Y10808D01*
X75833Y10802D01*
X77855Y10793D01*
X78740Y10764D01*
X79408Y10786D01*
X80840Y10779D01*
X80870Y10785D01*
X80899Y10781D01*
X83533Y10921D01*
X84474Y10952D01*
X84900Y10994D01*
X85899Y11047D01*
X85928Y11054D01*
X85958Y11052D01*
X89525Y11449D01*
X90182Y11514D01*
X90341Y11540D01*
X90935Y11606D01*
X90963Y11615D01*
X90993Y11615D01*
X95929Y12456D01*
X95957Y12466D01*
X95987Y12467D01*
X100866Y13592D01*
X100893Y13604D01*
X100923Y13607D01*
X101366Y13737D01*
X101428Y13751D01*
X101761Y13852D01*
X105729Y15012D01*
X105756Y15026D01*
X105785Y15030D01*
X106594Y15318D01*
X106918Y15416D01*
X107764Y15735D01*
X110502Y16710D01*
X110528Y16725D01*
X110557Y16731D01*
X111735Y17229D01*
X112287Y17437D01*
X113129Y17819D01*
X115169Y18681D01*
X115194Y18698D01*
X115223Y18706D01*
X116783Y19474D01*
X117512Y19804D01*
X118200Y20172D01*
X119715Y20918D01*
X119738Y20937D01*
X119767Y20946D01*
X121748Y22069D01*
X122571Y22508D01*
X123050Y22806D01*
X124123Y23415D01*
X124146Y23434D01*
X124174Y23445D01*
X126692Y25071D01*
X127442Y25538D01*
X127694Y25719D01*
X128380Y26161D01*
X128402Y26182D01*
X128429Y26195D01*
X131939Y28760D01*
X132105Y28879D01*
X132131Y28901D01*
X132471Y29149D01*
X132492Y29171D01*
X132518Y29185D01*
X134450Y30777D01*
X134450Y30777D01*
X134787Y31054D01*
X134796Y31065D01*
X134820Y31083D01*
X134876Y31157D01*
X134943Y31215D01*
X135479Y31903D01*
X135529Y32003D01*
X135597Y32094D01*
X135598Y32097D01*
X135611Y32114D01*
X135647Y32201D01*
X135968Y32882D01*
X135996Y32992D01*
X136041Y33094D01*
X136070Y33222D01*
X136109Y33315D01*
X136134Y33507D01*
X136232Y33945D01*
X136235Y34058D01*
X136257Y34168D01*
Y34441D01*
X136278Y34604D01*
X136257Y34768D01*
X136257Y35164D01*
X136229Y35305D01*
X136216Y35448D01*
X136126Y35759D01*
X136109Y35893D01*
X136037Y36065D01*
X135904Y36524D01*
X135838Y36652D01*
X135786Y36786D01*
X135650Y37001D01*
X135611Y37094D01*
X135494Y37247D01*
X135187Y37732D01*
X135087Y37836D01*
X135000Y37950D01*
X134858Y38076D01*
X134820Y38125D01*
X134682Y38231D01*
X134161Y38691D01*
X134037Y38763D01*
X133921Y38849D01*
X133805Y38904D01*
X133788Y38917D01*
X133709Y38950D01*
X133271Y39175D01*
X133412Y39515D01*
Y39800D01*
X133832D01*
X134562Y40102D01*
X135120Y40660D01*
X135422Y41390D01*
Y41743D01*
X135776D01*
X136505Y42046D01*
X137063Y42604D01*
X137164Y42847D01*
X137393Y42910D01*
X137714Y42867D01*
X137716Y42862D01*
X137758Y42802D01*
X137762Y42792D01*
X137797Y42746D01*
X138311Y42013D01*
X138407Y41921D01*
X138490Y41816D01*
X138546Y41769D01*
X138553Y41760D01*
X138600Y41725D01*
X139285Y41150D01*
X139402Y41086D01*
X139509Y41007D01*
X139576Y40976D01*
X139585Y40969D01*
X139638Y40947D01*
X140449Y40569D01*
X140579Y40537D01*
X140703Y40489D01*
X140775Y40476D01*
X140786Y40471D01*
X140843Y40464D01*
X141724Y40308D01*
X141858Y40311D01*
X141990Y40297D01*
X142063Y40303D01*
X142075Y40302D01*
X142132Y40309D01*
X143023Y40387D01*
X143151Y40425D01*
X143283Y40445D01*
X143352Y40470D01*
X143363Y40471D01*
X143417Y40494D01*
X144257Y40800D01*
X144371Y40869D01*
X144494Y40922D01*
X144553Y40964D01*
X144564Y40969D01*
X144611Y41004D01*
X145343Y41517D01*
X145435Y41614D01*
X145539Y41697D01*
X145586Y41753D01*
X145596Y41760D01*
X145632Y41807D01*
X147493Y44025D01*
X147507Y44051D01*
X147529Y44071D01*
X148064Y44790D01*
X148286Y45061D01*
X148817Y45801D01*
X150539Y48115D01*
X150552Y48142D01*
X150573Y48163D01*
X151285Y49245D01*
X151628Y49723D01*
X152116Y50508D01*
X153343Y52375D01*
X153355Y52402D01*
X153374Y52425D01*
X154240Y53924D01*
X154657Y54595D01*
X155029Y55291D01*
X155895Y56790D01*
X155904Y56819D01*
X155923Y56842D01*
X156925Y58838D01*
X157361Y59654D01*
X157604Y60190D01*
X158185Y61347D01*
X158193Y61376D01*
X158210Y61401D01*
X159352Y64048D01*
X159729Y64879D01*
X159852Y65207D01*
X160206Y66029D01*
X160213Y66058D01*
X160228Y66084D01*
X161588Y69819D01*
X161749Y70248D01*
X161776Y70335D01*
X161952Y70820D01*
X161957Y70850D01*
X161971Y70877D01*
X163417Y75705D01*
X163419Y75735D01*
X163432Y75763D01*
X164594Y80667D01*
X164595Y80698D01*
X164606Y80726D01*
X164696Y81234D01*
X164717Y81323D01*
X164792Y81775D01*
X165482Y85690D01*
X165481Y85720D01*
X165490Y85748D01*
X165594Y86637D01*
X165651Y86983D01*
X165741Y87890D01*
X166076Y90755D01*
X166073Y90785D01*
X166081Y90814D01*
X166156Y92106D01*
X166214Y92692D01*
X166244Y93616D01*
X166374Y95846D01*
X166370Y95876D01*
X166375Y95905D01*
X166375Y97635D01*
X166401Y98425D01*
X166375Y99215D01*
X166375Y100912D01*
X166370Y100941D01*
X166374Y100971D01*
X166244Y103226D01*
X166214Y104158D01*
X166158Y104721D01*
X166088Y105937D01*
X166081Y105965D01*
X166083Y105995D01*
X165737Y108999D01*
X165651Y109867D01*
X165603Y110161D01*
X165513Y110936D01*
X165504Y110964D01*
X165505Y110994D01*
X164724Y115485D01*
X164717Y115527D01*
X164715Y115533D01*
X164653Y115894D01*
X164642Y115922D01*
X164641Y115952D01*
X163509Y120795D01*
X163496Y120822D01*
X163494Y120852D01*
X162085Y125622D01*
X162072Y125648D01*
X162067Y125678D01*
X161824Y126356D01*
X161749Y126603D01*
X161457Y127379D01*
X160388Y130360D01*
X160372Y130385D01*
X160366Y130414D01*
X159915Y131476D01*
X159729Y131972D01*
X159340Y132829D01*
X158421Y134992D01*
X158404Y135017D01*
X158396Y135045D01*
X157676Y136503D01*
X157361Y137197D01*
X156976Y137917D01*
X156191Y139504D01*
X156173Y139527D01*
X156164Y139555D01*
X155091Y141444D01*
X154657Y142256D01*
X154340Y142765D01*
X153707Y143880D01*
X153687Y143903D01*
X153676Y143930D01*
X152105Y146360D01*
X151628Y147127D01*
X151431Y147401D01*
X150975Y148107D01*
X150954Y148128D01*
X150942Y148155D01*
X148448Y151564D01*
X148286Y151790D01*
X148256Y151827D01*
X148005Y152170D01*
X147984Y152190D01*
X147969Y152216D01*
X146388Y154136D01*
X146388Y154136D01*
X146059Y154536D01*
X145956Y154620D01*
X145864Y154717D01*
X145020Y155320D01*
X144899Y155375D01*
X144785Y155445D01*
X143814Y155809D01*
X143683Y155830D01*
X143555Y155869D01*
X142523Y155969D01*
X142390Y155955D01*
X142257Y155959D01*
X141234Y155789D01*
X141109Y155742D01*
X140979Y155711D01*
X140035Y155281D01*
X139927Y155204D01*
X139810Y155141D01*
X139009Y154481D01*
X138925Y154378D01*
X138827Y154287D01*
X138225Y153443D01*
X138170Y153321D01*
X138100Y153208D01*
X137865Y153106D01*
X137365Y153323D01*
Y153517D01*
X137063Y154247D01*
X136505Y154805D01*
X135776Y155107D01*
X135422D01*
Y155461D01*
X135120Y156190D01*
X134562Y156748D01*
X134292Y156860D01*
X134280Y157406D01*
X134320Y157425D01*
X134374Y157447D01*
X134383Y157454D01*
X134489Y157504D01*
X134605Y157589D01*
X134730Y157661D01*
X135274Y158138D01*
X135405Y158238D01*
X135439Y158283D01*
X135576Y158403D01*
X135664Y158517D01*
X135764Y158621D01*
X136079Y159117D01*
X136196Y159270D01*
X136233Y159359D01*
X136368Y159570D01*
X136420Y159704D01*
X136487Y159832D01*
X136623Y160298D01*
X136694Y160471D01*
X136711Y160603D01*
X136801Y160912D01*
X136814Y161056D01*
X136842Y161197D01*
X136842Y161596D01*
X136864Y161760D01*
X136842Y161923D01*
Y162191D01*
X136820Y162300D01*
X136818Y162412D01*
X136719Y162857D01*
X136694Y163048D01*
X136657Y163138D01*
X136631Y163254D01*
X136586Y163356D01*
X136560Y163464D01*
X136219Y164195D01*
X136196Y164249D01*
X136128Y164339D01*
X136080Y164436D01*
X135555Y165120D01*
X135474Y165191D01*
X135405Y165281D01*
X135358Y165317D01*
X133153Y167167D01*
X133127Y167181D01*
X133107Y167203D01*
X132387Y167740D01*
X132105Y167971D01*
X131357Y168507D01*
X129092Y170195D01*
X129065Y170208D01*
X129043Y170229D01*
X127940Y170956D01*
X127442Y171313D01*
X126664Y171796D01*
X124862Y172984D01*
X124834Y172995D01*
X124812Y173015D01*
X123265Y173910D01*
X122571Y174342D01*
X121899Y174701D01*
X120478Y175523D01*
X120450Y175533D01*
X120426Y175551D01*
X118340Y176603D01*
X117512Y177046D01*
X117019Y177269D01*
X115955Y177805D01*
X115927Y177813D01*
X115902Y177831D01*
X113070Y179059D01*
X112287Y179413D01*
X112020Y179514D01*
X111308Y179823D01*
X111279Y179829D01*
X111253Y179844D01*
X106958Y181419D01*
X106918Y181434D01*
X106912Y181436D01*
X106552Y181568D01*
X106523Y181572D01*
X106496Y181587D01*
X101703Y183036D01*
X101673Y183038D01*
X101646Y183051D01*
X96777Y184221D01*
X96748Y184222D01*
X96720Y184233D01*
X96053Y184353D01*
X95842Y184402D01*
X95081Y184528D01*
X91792Y185119D01*
X91762Y185119D01*
X91733Y185128D01*
X90656Y185258D01*
X90182Y185336D01*
X89240Y185429D01*
X86762Y185728D01*
X86733Y185726D01*
X86704Y185734D01*
X85181Y185829D01*
X84474Y185899D01*
X83616Y185927D01*
X81706Y186046D01*
X81676Y186042D01*
X81647Y186048D01*
X79626Y186057D01*
X78740Y186086D01*
D02*
G37*
G36*
X259842Y182149D02*
X259175Y182127D01*
X257742Y182134D01*
X257713Y182128D01*
X257683Y182133D01*
X255050Y181992D01*
X254109Y181962D01*
X253683Y181920D01*
X252683Y181866D01*
X252654Y181859D01*
X252625Y181862D01*
X249059Y181464D01*
X248400Y181399D01*
X248242Y181373D01*
X247648Y181307D01*
X247620Y181298D01*
X247590Y181299D01*
X242654Y180458D01*
X242626Y180447D01*
X242596Y180446D01*
X237717Y179321D01*
X237689Y179309D01*
X237660Y179306D01*
X237216Y179177D01*
X237154Y179162D01*
X236822Y179061D01*
X232853Y177902D01*
X232827Y177888D01*
X232797Y177883D01*
X231988Y177595D01*
X231665Y177497D01*
X230819Y177179D01*
X228080Y176203D01*
X228055Y176188D01*
X228026Y176182D01*
X226848Y175684D01*
X226296Y175477D01*
X225454Y175095D01*
X223413Y174232D01*
X223389Y174215D01*
X223360Y174208D01*
X221799Y173439D01*
X221071Y173109D01*
X220383Y172741D01*
X218868Y171995D01*
X218844Y171977D01*
X218816Y171967D01*
X216834Y170845D01*
X216012Y170405D01*
X215533Y170107D01*
X214459Y169499D01*
X214437Y169479D01*
X214409Y169468D01*
X211891Y167842D01*
X211141Y167376D01*
X210888Y167195D01*
X210203Y166752D01*
X210181Y166731D01*
X210154Y166719D01*
X206643Y164153D01*
X206478Y164034D01*
X206452Y164013D01*
X206111Y163764D01*
X206091Y163742D01*
X206065Y163728D01*
X203732Y161807D01*
X203647Y161704D01*
X203550Y161612D01*
X202948Y160768D01*
X202893Y160647D01*
X202823Y160533D01*
X202459Y159562D01*
X202437Y159431D01*
X202399Y159303D01*
X202299Y158271D01*
X202312Y158138D01*
X202308Y158005D01*
X202479Y156982D01*
X202526Y156857D01*
X202557Y156727D01*
X202986Y155783D01*
X203064Y155675D01*
X203127Y155558D01*
X203786Y154757D01*
X203890Y154673D01*
X203981Y154575D01*
X204825Y153973D01*
X204946Y153918D01*
X205060Y153848D01*
X205162Y153613D01*
X204945Y153113D01*
X204750D01*
X204021Y152811D01*
X203463Y152253D01*
X203161Y151524D01*
Y151170D01*
X202807D01*
X202078Y150868D01*
X201519Y150310D01*
X201422Y150074D01*
X201130Y150019D01*
X200870Y150048D01*
X200825Y150111D01*
X200821Y150122D01*
X200785Y150169D01*
X200222Y150972D01*
X200110Y151080D01*
X200007Y151197D01*
X199046Y151935D01*
X198906Y152003D01*
X198774Y152084D01*
X197851Y152419D01*
X197797Y152442D01*
X197785Y152444D01*
X197634Y152498D01*
X197481Y152522D01*
X197330Y152559D01*
X196699Y152586D01*
X196508Y152612D01*
X196412Y152599D01*
X196119Y152612D01*
X195965Y152588D01*
X195810Y152578D01*
X195383Y152463D01*
X195219Y152442D01*
X195067Y152379D01*
X194639Y152264D01*
X194500Y152196D01*
X194355Y152139D01*
X194108Y151981D01*
X194018Y151944D01*
X193866Y151827D01*
X193333Y151488D01*
X193221Y151381D01*
X193100Y151283D01*
X192996Y151160D01*
X192987Y151153D01*
X192951Y151106D01*
X191101Y148901D01*
X191086Y148875D01*
X191064Y148855D01*
X190527Y148134D01*
X190296Y147853D01*
X189761Y147107D01*
X188073Y144840D01*
X188060Y144813D01*
X188039Y144791D01*
X187311Y143687D01*
X186955Y143190D01*
X186472Y142413D01*
X185284Y140610D01*
X185273Y140582D01*
X185253Y140560D01*
X184357Y139012D01*
X183926Y138319D01*
X183567Y137647D01*
X182744Y136226D01*
X182735Y136198D01*
X182716Y136174D01*
X181664Y134087D01*
X181222Y133260D01*
X180999Y132767D01*
X180462Y131703D01*
X180454Y131675D01*
X180437Y131650D01*
X179209Y128816D01*
X178854Y128035D01*
X178754Y127769D01*
X178445Y127056D01*
X178439Y127027D01*
X178423Y127001D01*
X176848Y122703D01*
X176834Y122666D01*
X176832Y122660D01*
X176700Y122300D01*
X176695Y122271D01*
X176681Y122244D01*
X175232Y117451D01*
X175229Y117421D01*
X175217Y117394D01*
X174047Y112525D01*
X174046Y112496D01*
X174035Y112468D01*
X173915Y111801D01*
X173866Y111590D01*
X173740Y110830D01*
X173148Y107540D01*
X173149Y107510D01*
X173140Y107481D01*
X173010Y106403D01*
X172931Y105930D01*
X172839Y104989D01*
X172539Y102510D01*
X172542Y102480D01*
X172534Y102452D01*
X172439Y100929D01*
X172369Y100222D01*
X172341Y99365D01*
X172222Y97454D01*
X172226Y97425D01*
X172220Y97395D01*
X172210Y95373D01*
X172181Y94488D01*
X172203Y93821D01*
X172197Y92388D01*
X172202Y92359D01*
X172198Y92329D01*
X172338Y89695D01*
X172369Y88755D01*
X172411Y88329D01*
X172464Y87329D01*
X172472Y87300D01*
X172469Y87270D01*
X172867Y83703D01*
X172931Y83046D01*
X172958Y82888D01*
X173024Y82294D01*
X173033Y82265D01*
X173032Y82235D01*
X173873Y77299D01*
X173884Y77271D01*
X173885Y77241D01*
X175009Y72362D01*
X175022Y72335D01*
X175024Y72305D01*
X175154Y71862D01*
X175168Y71800D01*
X175269Y71469D01*
X176429Y67499D01*
X176443Y67473D01*
X176447Y67443D01*
X176735Y66634D01*
X176834Y66311D01*
X177152Y65465D01*
X178127Y62726D01*
X178143Y62700D01*
X178149Y62671D01*
X178647Y61493D01*
X178854Y60942D01*
X179236Y60100D01*
X180098Y58059D01*
X180115Y58034D01*
X180123Y58005D01*
X180892Y56445D01*
X181222Y55717D01*
X181589Y55029D01*
X182336Y53514D01*
X182354Y53490D01*
X182363Y53462D01*
X183486Y51479D01*
X183926Y50658D01*
X184223Y50179D01*
X184832Y49105D01*
X184851Y49083D01*
X184862Y49055D01*
X186489Y46536D01*
X186955Y45786D01*
X187136Y45534D01*
X187578Y44848D01*
X187599Y44827D01*
X187612Y44800D01*
X190178Y41288D01*
X190296Y41124D01*
X190318Y41097D01*
X190567Y40757D01*
X190588Y40737D01*
X190603Y40710D01*
X192194Y38778D01*
X192194Y38778D01*
X192581Y38308D01*
X192702Y38209D01*
X192813Y38101D01*
X193383Y37732D01*
X193532Y37617D01*
X193607Y37586D01*
X193834Y37439D01*
X193979Y37381D01*
X194118Y37311D01*
X194573Y37186D01*
X194733Y37120D01*
X194887Y37099D01*
X195292Y36988D01*
X195447Y36977D01*
X195601Y36952D01*
X195916Y36964D01*
X196021Y36950D01*
X196213Y36975D01*
X196817Y36998D01*
X196969Y37034D01*
X197123Y37057D01*
X197289Y37117D01*
X197310Y37120D01*
X197397Y37156D01*
X198269Y37468D01*
X198402Y37549D01*
X198542Y37617D01*
X199510Y38355D01*
X199613Y38471D01*
X199726Y38579D01*
X200311Y39410D01*
X200334Y39440D01*
X200337Y39446D01*
X200427Y39574D01*
X200490Y39717D01*
X200565Y39853D01*
X200696Y39914D01*
X200933Y39816D01*
X201217D01*
Y39396D01*
X201519Y38667D01*
X202078Y38109D01*
X202807Y37806D01*
X203161D01*
Y37453D01*
X203463Y36723D01*
X204021Y36165D01*
X204264Y36064D01*
X204328Y35835D01*
X204284Y35515D01*
X204279Y35513D01*
X204220Y35471D01*
X204209Y35466D01*
X204162Y35431D01*
X203430Y34918D01*
X203338Y34822D01*
X203234Y34738D01*
X203187Y34682D01*
X203177Y34675D01*
X203142Y34628D01*
X202567Y33944D01*
X202503Y33827D01*
X202424Y33719D01*
X202393Y33653D01*
X202386Y33644D01*
X202364Y33590D01*
X201986Y32779D01*
X201954Y32650D01*
X201906Y32525D01*
X201893Y32454D01*
X201889Y32443D01*
X201881Y32385D01*
X201726Y31504D01*
X201729Y31371D01*
X201714Y31238D01*
X201721Y31166D01*
X201719Y31154D01*
X201727Y31096D01*
X201805Y30205D01*
X201842Y30077D01*
X201862Y29945D01*
X201887Y29877D01*
X201889Y29865D01*
X201911Y29811D01*
X202217Y28971D01*
X202286Y28857D01*
X202340Y28735D01*
X202382Y28675D01*
X202386Y28664D01*
X202422Y28618D01*
X202935Y27885D01*
X203031Y27793D01*
X203114Y27689D01*
X203170Y27642D01*
X203177Y27633D01*
X203224Y27597D01*
X203512Y27356D01*
X203512Y27356D01*
X205430Y25746D01*
X205456Y25732D01*
X205476Y25710D01*
X206197Y25173D01*
X206478Y24942D01*
X207224Y24407D01*
X209491Y22718D01*
X209518Y22705D01*
X209539Y22684D01*
X210644Y21957D01*
X211141Y21601D01*
X211917Y21118D01*
X213721Y19930D01*
X213748Y19918D01*
X213771Y19899D01*
X215318Y19003D01*
X216012Y18571D01*
X216683Y18213D01*
X218104Y17390D01*
X218133Y17380D01*
X218156Y17362D01*
X220244Y16310D01*
X221071Y15867D01*
X221563Y15644D01*
X222627Y15108D01*
X222656Y15100D01*
X222681Y15083D01*
X225514Y13854D01*
X226296Y13500D01*
X226562Y13400D01*
X227275Y13091D01*
X227304Y13084D01*
X227329Y13069D01*
X231627Y11494D01*
X231665Y11479D01*
X231671Y11478D01*
X232031Y11345D01*
X232060Y11341D01*
X232087Y11327D01*
X236880Y9878D01*
X236909Y9875D01*
X236936Y9862D01*
X241805Y8693D01*
X241835Y8692D01*
X241863Y8681D01*
X242530Y8561D01*
X242741Y8512D01*
X243501Y8386D01*
X246791Y7794D01*
X246821Y7795D01*
X246849Y7785D01*
X247927Y7655D01*
X248400Y7577D01*
X249342Y7484D01*
X251820Y7185D01*
X251850Y7187D01*
X251879Y7180D01*
X253402Y7085D01*
X254109Y7015D01*
X254966Y6987D01*
X256877Y6867D01*
X256906Y6871D01*
X256936Y6865D01*
X258957Y6856D01*
X259842Y6827D01*
X260510Y6849D01*
X261943Y6842D01*
X261972Y6848D01*
X262002Y6844D01*
X264635Y6984D01*
X265576Y7015D01*
X266002Y7057D01*
X267002Y7110D01*
X267031Y7117D01*
X267060Y7115D01*
X270627Y7512D01*
X271285Y7577D01*
X271443Y7603D01*
X272037Y7669D01*
X272065Y7678D01*
X272095Y7678D01*
X277031Y8519D01*
X277059Y8529D01*
X277089Y8530D01*
X281968Y9655D01*
X281996Y9667D01*
X282025Y9670D01*
X282469Y9800D01*
X282531Y9814D01*
X282863Y9915D01*
X286832Y11075D01*
X286858Y11089D01*
X286888Y11093D01*
X287697Y11381D01*
X288020Y11479D01*
X288867Y11798D01*
X291605Y12773D01*
X291630Y12788D01*
X291659Y12794D01*
X292837Y13292D01*
X293389Y13500D01*
X294231Y13882D01*
X296272Y14744D01*
X296296Y14761D01*
X296325Y14769D01*
X297886Y15537D01*
X298614Y15867D01*
X299302Y16235D01*
X300817Y16981D01*
X300841Y17000D01*
X300869Y17009D01*
X302850Y18132D01*
X303673Y18571D01*
X304152Y18869D01*
X305225Y19478D01*
X305248Y19497D01*
X305276Y19508D01*
X307794Y21134D01*
X308544Y21601D01*
X308797Y21781D01*
X309483Y22224D01*
X309504Y22245D01*
X309531Y22258D01*
X313041Y24823D01*
X313207Y24942D01*
X313234Y24964D01*
X313574Y25212D01*
X313594Y25234D01*
X313620Y25248D01*
X315553Y26840D01*
X315553Y26840D01*
X315889Y27117D01*
X315898Y27128D01*
X315922Y27146D01*
X315979Y27220D01*
X316046Y27278D01*
X316581Y27966D01*
X316632Y28066D01*
X316699Y28157D01*
X316701Y28160D01*
X316714Y28177D01*
X316749Y28264D01*
X317071Y28945D01*
X317098Y29055D01*
X317144Y29158D01*
X317172Y29285D01*
X317211Y29378D01*
X317236Y29570D01*
X317334Y30008D01*
X317337Y30121D01*
X317359Y30231D01*
Y30504D01*
X317381Y30667D01*
X317359Y30831D01*
X317359Y31227D01*
X317331Y31368D01*
X317319Y31511D01*
X317229Y31822D01*
X317211Y31956D01*
X317140Y32128D01*
X317006Y32587D01*
X316940Y32715D01*
X316888Y32849D01*
X316752Y33064D01*
X316714Y33157D01*
X316596Y33310D01*
X316289Y33795D01*
X316190Y33899D01*
X316103Y34013D01*
X315960Y34139D01*
X315922Y34188D01*
X315784Y34294D01*
X315263Y34754D01*
X315139Y34826D01*
X315023Y34912D01*
X314908Y34967D01*
X314891Y34980D01*
X314811Y35013D01*
X314373Y35238D01*
X314514Y35578D01*
Y35863D01*
X314935D01*
X315664Y36165D01*
X316222Y36723D01*
X316524Y37453D01*
Y37806D01*
X316878D01*
X317607Y38109D01*
X318166Y38667D01*
X318266Y38910D01*
X318496Y38973D01*
X318816Y38930D01*
X318818Y38925D01*
X318860Y38865D01*
X318864Y38855D01*
X318900Y38809D01*
X319413Y38076D01*
X319509Y37984D01*
X319593Y37879D01*
X319649Y37832D01*
X319656Y37823D01*
X319702Y37788D01*
X320387Y37213D01*
X320504Y37149D01*
X320612Y37070D01*
X320678Y37039D01*
X320687Y37032D01*
X320741Y37010D01*
X321551Y36632D01*
X321681Y36600D01*
X321805Y36552D01*
X321877Y36539D01*
X321888Y36534D01*
X321946Y36527D01*
X322827Y36371D01*
X322960Y36374D01*
X323093Y36360D01*
X323165Y36366D01*
X323177Y36365D01*
X323235Y36372D01*
X324126Y36450D01*
X324254Y36488D01*
X324385Y36508D01*
X324454Y36533D01*
X324466Y36534D01*
X324519Y36557D01*
X325360Y36863D01*
X325474Y36932D01*
X325596Y36985D01*
X325656Y37027D01*
X325667Y37032D01*
X325713Y37067D01*
X326446Y37580D01*
X326538Y37677D01*
X326642Y37760D01*
X326689Y37816D01*
X326698Y37823D01*
X326734Y37870D01*
X328595Y40088D01*
X328609Y40114D01*
X328632Y40135D01*
X329166Y40853D01*
X329389Y41124D01*
X329919Y41864D01*
X331642Y44178D01*
X331655Y44205D01*
X331676Y44226D01*
X332387Y45308D01*
X332730Y45786D01*
X333218Y46571D01*
X334446Y48438D01*
X334457Y48465D01*
X334477Y48488D01*
X335342Y49987D01*
X335759Y50658D01*
X336132Y51354D01*
X336997Y52853D01*
X337007Y52882D01*
X337025Y52905D01*
X338028Y54901D01*
X338463Y55717D01*
X338706Y56253D01*
X339287Y57410D01*
X339295Y57439D01*
X339312Y57464D01*
X340454Y60111D01*
X340831Y60942D01*
X340954Y61270D01*
X341309Y62092D01*
X341315Y62121D01*
X341331Y62147D01*
X342690Y65882D01*
X342851Y66311D01*
X342878Y66398D01*
X343055Y66883D01*
X343059Y66913D01*
X343073Y66940D01*
X344519Y71768D01*
X344522Y71798D01*
X344534Y71826D01*
X345697Y76730D01*
X345698Y76761D01*
X345709Y76789D01*
X345798Y77297D01*
X345819Y77386D01*
X345894Y77838D01*
X346584Y81752D01*
X346583Y81783D01*
X346593Y81811D01*
X346696Y82700D01*
X346754Y83046D01*
X346843Y83953D01*
X347178Y86818D01*
X347175Y86848D01*
X347183Y86877D01*
X347258Y88169D01*
X347316Y88755D01*
X347346Y89679D01*
X347476Y91909D01*
X347472Y91938D01*
X347478Y91968D01*
X347478Y93698D01*
X347504Y94488D01*
X347478Y95278D01*
X347478Y96975D01*
X347472Y97004D01*
X347476Y97034D01*
X347346Y99289D01*
X347316Y100222D01*
X347261Y100784D01*
X347191Y101999D01*
X347183Y102028D01*
X347186Y102058D01*
X346839Y105062D01*
X346754Y105930D01*
X346705Y106224D01*
X346616Y106999D01*
X346607Y107027D01*
X346607Y107057D01*
X345826Y111548D01*
X345819Y111590D01*
X345818Y111596D01*
X345755Y111957D01*
X345744Y111985D01*
X345743Y112015D01*
X344611Y116858D01*
X344599Y116885D01*
X344596Y116915D01*
X343188Y121685D01*
X343174Y121712D01*
X343170Y121741D01*
X342926Y122419D01*
X342851Y122666D01*
X342559Y123442D01*
X341490Y126423D01*
X341475Y126448D01*
X341469Y126477D01*
X341017Y127539D01*
X340831Y128035D01*
X340442Y128892D01*
X339523Y131055D01*
X339506Y131079D01*
X339499Y131108D01*
X338778Y132566D01*
X338463Y133260D01*
X338078Y133980D01*
X337294Y135567D01*
X337276Y135590D01*
X337266Y135618D01*
X336193Y137507D01*
X335759Y138319D01*
X335442Y138828D01*
X334809Y139943D01*
X334790Y139965D01*
X334779Y139993D01*
X333207Y142423D01*
X332730Y143190D01*
X332534Y143464D01*
X332077Y144170D01*
X332057Y144191D01*
X332044Y144218D01*
X329550Y147627D01*
X329389Y147853D01*
X329358Y147890D01*
X329108Y148232D01*
X329086Y148253D01*
X329072Y148279D01*
X327491Y150198D01*
X327491Y150199D01*
X327161Y150599D01*
X327058Y150683D01*
X326967Y150780D01*
X326123Y151383D01*
X326001Y151438D01*
X325888Y151508D01*
X324917Y151872D01*
X324785Y151893D01*
X324657Y151932D01*
X323625Y152032D01*
X323492Y152018D01*
X323359Y152023D01*
X322336Y151852D01*
X322211Y151805D01*
X322081Y151774D01*
X321138Y151345D01*
X321029Y151267D01*
X320912Y151204D01*
X320111Y150544D01*
X320027Y150441D01*
X319930Y150350D01*
X319327Y149506D01*
X319272Y149384D01*
X319202Y149271D01*
X318968Y149169D01*
X318468Y149386D01*
Y149580D01*
X318166Y150310D01*
X317607Y150868D01*
X316878Y151170D01*
X316524D01*
Y151524D01*
X316222Y152253D01*
X315664Y152811D01*
X315394Y152923D01*
X315382Y153469D01*
X315422Y153488D01*
X315476Y153510D01*
X315486Y153517D01*
X315591Y153567D01*
X315708Y153652D01*
X315833Y153724D01*
X316376Y154200D01*
X316508Y154302D01*
X316541Y154346D01*
X316678Y154466D01*
X316766Y154580D01*
X316866Y154684D01*
X317182Y155180D01*
X317299Y155333D01*
X317336Y155422D01*
X317470Y155633D01*
X317522Y155767D01*
X317589Y155895D01*
X317725Y156361D01*
X317796Y156534D01*
X317814Y156666D01*
X317904Y156975D01*
X317916Y157119D01*
X317945Y157260D01*
X317945Y157659D01*
X317966Y157823D01*
X317945Y157986D01*
Y158254D01*
X317923Y158363D01*
X317920Y158475D01*
X317822Y158920D01*
X317796Y159111D01*
X317759Y159201D01*
X317734Y159317D01*
X317689Y159419D01*
X317662Y159527D01*
X317321Y160258D01*
X317299Y160312D01*
X317230Y160402D01*
X317182Y160499D01*
X316657Y161183D01*
X316576Y161254D01*
X316508Y161344D01*
X316460Y161380D01*
X314255Y163230D01*
X314229Y163244D01*
X314209Y163267D01*
X313489Y163803D01*
X313207Y164034D01*
X312460Y164570D01*
X310194Y166258D01*
X310167Y166271D01*
X310146Y166292D01*
X309042Y167019D01*
X308544Y167376D01*
X307767Y167859D01*
X305964Y169047D01*
X305937Y169058D01*
X305914Y169078D01*
X304367Y169973D01*
X303673Y170405D01*
X303001Y170764D01*
X301581Y171586D01*
X301552Y171596D01*
X301529Y171614D01*
X299442Y172666D01*
X298614Y173109D01*
X298121Y173332D01*
X297058Y173869D01*
X297029Y173877D01*
X297004Y173893D01*
X294172Y175122D01*
X293389Y175477D01*
X293123Y175577D01*
X292410Y175886D01*
X292381Y175892D01*
X292356Y175908D01*
X288060Y177482D01*
X288020Y177497D01*
X288014Y177499D01*
X287654Y177631D01*
X287625Y177636D01*
X287598Y177650D01*
X282805Y179098D01*
X282776Y179101D01*
X282749Y179114D01*
X277880Y180284D01*
X277850Y180285D01*
X277822Y180296D01*
X277156Y180416D01*
X276944Y180465D01*
X276183Y180591D01*
X272894Y181182D01*
X272864Y181182D01*
X272836Y181191D01*
X271758Y181321D01*
X271285Y181399D01*
X270342Y181492D01*
X267865Y181791D01*
X267835Y181789D01*
X267806Y181797D01*
X266284Y181892D01*
X265576Y181962D01*
X264719Y181990D01*
X262808Y182109D01*
X262779Y182105D01*
X262750Y182111D01*
X260729Y182120D01*
X259842Y182149D01*
D02*
G37*
G36*
X4811Y16748D02*
X3063D01*
X1349Y16407D01*
X-266Y15738D01*
X-1720Y14767D01*
X-2956Y13531D01*
X-3927Y12077D01*
X-4596Y10463D01*
X-4937Y8748D01*
Y7000D01*
X-4596Y5286D01*
X-3927Y3671D01*
X-2956Y2217D01*
X-1720Y981D01*
X-266Y10D01*
X1349Y-659D01*
X3063Y-1000D01*
X4811D01*
X6525Y-659D01*
X8140Y10D01*
X9594Y981D01*
X10830Y2217D01*
X11801Y3671D01*
X12470Y5286D01*
X12811Y7000D01*
Y8748D01*
X12470Y10463D01*
X11801Y12077D01*
X10830Y13531D01*
X9594Y14767D01*
X8140Y15738D01*
X6525Y16407D01*
X4811Y16748D01*
D02*
G37*
G36*
X343394Y16748D02*
X341646D01*
X339931Y16407D01*
X338316Y15738D01*
X336863Y14767D01*
X335627Y13531D01*
X334656Y12077D01*
X333987Y10463D01*
X333646Y8748D01*
Y7000D01*
X333987Y5286D01*
X334656Y3671D01*
X335627Y2217D01*
X336863Y981D01*
X338316Y10D01*
X339931Y-659D01*
X341646Y-1000D01*
X343394D01*
X345108Y-659D01*
X346723Y10D01*
X348177Y981D01*
X349413Y2217D01*
X350384Y3671D01*
X351053Y5286D01*
X351394Y7000D01*
Y8748D01*
X351053Y10463D01*
X350384Y12077D01*
X349413Y13531D01*
X348177Y14767D01*
X346723Y15738D01*
X345108Y16407D01*
X343394Y16748D01*
D02*
G37*
%LPD*%
D13*
X3937Y7874D02*
D03*
X342520Y7874D02*
D03*
X342520Y358268D02*
D03*
X3937Y358268D02*
D03*
X263779Y244094D02*
D03*
X295276Y275590D02*
D03*
X232283D02*
D03*
X82677Y248031D02*
D03*
X114173Y279528D02*
D03*
X51181D02*
D03*
X259842Y62992D02*
D03*
X291339Y94488D02*
D03*
X228346D02*
D03*
X78740Y66929D02*
D03*
X110236Y98425D02*
D03*
X47244D02*
D03*
D14*
X322295Y328278D02*
D03*
X320421Y330288D02*
D03*
X318477Y332231D02*
D03*
X316467Y334106D02*
D03*
X205264Y328278D02*
D03*
X207139Y330288D02*
D03*
X209082Y332231D02*
D03*
X211092Y334106D02*
D03*
Y217075D02*
D03*
X209082Y218950D02*
D03*
X207139Y220893D02*
D03*
X205264Y222903D02*
D03*
X322295D02*
D03*
X320421Y220893D02*
D03*
X318477Y218950D02*
D03*
X316467Y217075D02*
D03*
X141192Y332215D02*
D03*
X139318Y334225D02*
D03*
X137375Y336169D02*
D03*
X135365Y338043D02*
D03*
X24162Y332215D02*
D03*
X26036Y334225D02*
D03*
X27980Y336169D02*
D03*
X29990Y338043D02*
D03*
Y221012D02*
D03*
X27980Y222887D02*
D03*
X26036Y224830D02*
D03*
X24162Y226840D02*
D03*
X141192D02*
D03*
X139318Y224830D02*
D03*
X137375Y222887D02*
D03*
X135365Y221012D02*
D03*
X318358Y147176D02*
D03*
X316483Y149186D02*
D03*
X314540Y151129D02*
D03*
X312530Y153004D02*
D03*
X201327Y147176D02*
D03*
X203202Y149186D02*
D03*
X205145Y151129D02*
D03*
X207155Y153004D02*
D03*
Y35973D02*
D03*
X205145Y37847D02*
D03*
X203202Y39791D02*
D03*
X201327Y41801D02*
D03*
X318358D02*
D03*
X316483Y39791D02*
D03*
X314540Y37847D02*
D03*
X312530Y35973D02*
D03*
X131428Y39910D02*
D03*
X133438Y41784D02*
D03*
X135381Y43728D02*
D03*
X137256Y45738D02*
D03*
X20225D02*
D03*
X22099Y43728D02*
D03*
X24043Y41784D02*
D03*
X26053Y39910D02*
D03*
Y156941D02*
D03*
X24043Y155066D02*
D03*
X22099Y153123D02*
D03*
X20225Y151113D02*
D03*
X131428Y156941D02*
D03*
X133438Y155066D02*
D03*
X135381Y153123D02*
D03*
X137256Y151113D02*
D03*
D15*
X333780Y270590D02*
D03*
X152677Y274528D02*
D03*
X329842Y89488D02*
D03*
X148740Y93425D02*
D03*
D16*
X333780Y275590D02*
D03*
Y280591D02*
D03*
X152677Y279528D02*
D03*
Y284528D02*
D03*
X329842Y94488D02*
D03*
Y99488D02*
D03*
X148740Y98425D02*
D03*
Y103425D02*
D03*
D17*
X303780Y290591D02*
D03*
X122677Y294528D02*
D03*
X299843Y109488D02*
D03*
X118740Y113425D02*
D03*
D18*
X293779Y290591D02*
D03*
X112677Y294528D02*
D03*
X289843Y109488D02*
D03*
X108740Y113425D02*
D03*
D19*
X248780Y300590D02*
D03*
X258780D02*
D03*
X268779D02*
D03*
X67677Y304528D02*
D03*
X77677D02*
D03*
X87677D02*
D03*
X244843Y119488D02*
D03*
X254842D02*
D03*
X264843D02*
D03*
X63740Y123425D02*
D03*
X73740D02*
D03*
X83740D02*
D03*
D20*
X278780Y300590D02*
D03*
X97677Y304528D02*
D03*
X274843Y119488D02*
D03*
X93740Y123425D02*
D03*
D21*
X234646Y250394D02*
D03*
X229921D02*
D03*
Y245669D02*
D03*
X234646D02*
D03*
X53543Y254331D02*
D03*
X48819D02*
D03*
Y249606D02*
D03*
X53543D02*
D03*
X230709Y69291D02*
D03*
X225984D02*
D03*
Y64567D02*
D03*
X230709D02*
D03*
X49606Y73228D02*
D03*
X44882D02*
D03*
Y68504D02*
D03*
X49606D02*
D03*
M02*
