G04*
G04 #@! TF.GenerationSoftware,Altium Limited,Altium Designer,22.4.2 (48)*
G04*
G04 Layer_Color=16711935*
%FSLAX25Y25*%
%MOIN*%
G70*
G04*
G04 #@! TF.SameCoordinates,26249B9F-D8ED-40E7-B964-7C6F937C0492*
G04*
G04*
G04 #@! TF.FilePolarity,Negative*
G04*
G01*
G75*
%ADD29C,0.16548*%
%ADD30C,0.02769*%
%ADD31R,0.04737X0.04737*%
%ADD32C,0.04737*%
%ADD33C,0.07493*%
%ADD34R,0.07493X0.07493*%
%ADD35C,0.06706*%
%ADD36R,0.06706X0.06706*%
%ADD37C,0.03162*%
D29*
X3937Y7874D02*
D03*
X342520Y7874D02*
D03*
X342520Y358268D02*
D03*
X3937Y358268D02*
D03*
X263779Y244094D02*
D03*
X295276Y275590D02*
D03*
X232283D02*
D03*
X82677Y248031D02*
D03*
X114173Y279528D02*
D03*
X51181D02*
D03*
X259842Y62992D02*
D03*
X291339Y94488D02*
D03*
X228346D02*
D03*
X78740Y66929D02*
D03*
X110236Y98425D02*
D03*
X47244D02*
D03*
D30*
X322295Y328278D02*
D03*
X320421Y330288D02*
D03*
X318477Y332231D02*
D03*
X316467Y334106D02*
D03*
X205264Y328278D02*
D03*
X207139Y330288D02*
D03*
X209082Y332231D02*
D03*
X211092Y334106D02*
D03*
Y217075D02*
D03*
X209082Y218950D02*
D03*
X207139Y220893D02*
D03*
X205264Y222903D02*
D03*
X322295D02*
D03*
X320421Y220893D02*
D03*
X318477Y218950D02*
D03*
X316467Y217075D02*
D03*
X141192Y332215D02*
D03*
X139318Y334225D02*
D03*
X137375Y336169D02*
D03*
X135365Y338043D02*
D03*
X24162Y332215D02*
D03*
X26036Y334225D02*
D03*
X27980Y336169D02*
D03*
X29990Y338043D02*
D03*
Y221012D02*
D03*
X27980Y222887D02*
D03*
X26036Y224830D02*
D03*
X24162Y226840D02*
D03*
X141192D02*
D03*
X139318Y224830D02*
D03*
X137375Y222887D02*
D03*
X135365Y221012D02*
D03*
X318358Y147176D02*
D03*
X316483Y149186D02*
D03*
X314540Y151129D02*
D03*
X312530Y153004D02*
D03*
X201327Y147176D02*
D03*
X203202Y149186D02*
D03*
X205145Y151129D02*
D03*
X207155Y153004D02*
D03*
Y35973D02*
D03*
X205145Y37847D02*
D03*
X203202Y39791D02*
D03*
X201327Y41801D02*
D03*
X318358D02*
D03*
X316483Y39791D02*
D03*
X314540Y37847D02*
D03*
X312530Y35973D02*
D03*
X131428Y39910D02*
D03*
X133438Y41784D02*
D03*
X135381Y43728D02*
D03*
X137256Y45738D02*
D03*
X20225D02*
D03*
X22099Y43728D02*
D03*
X24043Y41784D02*
D03*
X26053Y39910D02*
D03*
Y156941D02*
D03*
X24043Y155066D02*
D03*
X22099Y153123D02*
D03*
X20225Y151113D02*
D03*
X131428Y156941D02*
D03*
X133438Y155066D02*
D03*
X135381Y153123D02*
D03*
X137256Y151113D02*
D03*
D31*
X333780Y270590D02*
D03*
X152677Y274528D02*
D03*
X329842Y89488D02*
D03*
X148740Y93425D02*
D03*
D32*
X333780Y275590D02*
D03*
Y280591D02*
D03*
X152677Y279528D02*
D03*
Y284528D02*
D03*
X329842Y94488D02*
D03*
Y99488D02*
D03*
X148740Y98425D02*
D03*
Y103425D02*
D03*
D33*
X303780Y290591D02*
D03*
X122677Y294528D02*
D03*
X299843Y109488D02*
D03*
X118740Y113425D02*
D03*
D34*
X293779Y290591D02*
D03*
X112677Y294528D02*
D03*
X289843Y109488D02*
D03*
X108740Y113425D02*
D03*
D35*
X248780Y300590D02*
D03*
X258780D02*
D03*
X268779D02*
D03*
X67677Y304528D02*
D03*
X77677D02*
D03*
X87677D02*
D03*
X244843Y119488D02*
D03*
X254842D02*
D03*
X264843D02*
D03*
X63740Y123425D02*
D03*
X73740D02*
D03*
X83740D02*
D03*
D36*
X278780Y300590D02*
D03*
X97677Y304528D02*
D03*
X274843Y119488D02*
D03*
X93740Y123425D02*
D03*
D37*
X234646Y250394D02*
D03*
X229921D02*
D03*
Y245669D02*
D03*
X234646D02*
D03*
X53543Y254331D02*
D03*
X48819D02*
D03*
Y249606D02*
D03*
X53543D02*
D03*
X230709Y69291D02*
D03*
X225984D02*
D03*
Y64567D02*
D03*
X230709D02*
D03*
X49606Y73228D02*
D03*
X44882D02*
D03*
Y68504D02*
D03*
X49606D02*
D03*
M02*
