G04*
G04 #@! TF.GenerationSoftware,Altium Limited,Altium Designer,22.4.2 (48)*
G04*
G04 Layer_Color=128*
%FSLAX25Y25*%
%MOIN*%
G70*
G04*
G04 #@! TF.SameCoordinates,26249B9F-D8ED-40E7-B964-7C6F937C0492*
G04*
G04*
G04 #@! TF.FilePolarity,Positive*
G04*
G01*
G75*
%ADD39C,0.00500*%
D39*
X-3937Y7874D02*
X11811D01*
X3937Y0D02*
Y15748D01*
X334646Y7874D02*
X350394D01*
X342520Y0D02*
Y15748D01*
X334646Y358268D02*
X350394D01*
X342520Y350394D02*
Y366142D01*
X-3937Y358268D02*
X11811D01*
X3937Y350394D02*
Y366142D01*
X321311Y328278D02*
X323279D01*
X322295Y327294D02*
Y329262D01*
X319436Y330288D02*
X321405D01*
X320421Y329304D02*
Y331272D01*
X317493Y332231D02*
X319461D01*
X318477Y331247D02*
Y333216D01*
X315483Y334106D02*
X317451D01*
X316467Y333122D02*
Y335090D01*
X204280Y328278D02*
X206248D01*
X205264Y327294D02*
Y329262D01*
X206154Y330288D02*
X208123D01*
X207139Y329304D02*
Y331272D01*
X208098Y332231D02*
X210066D01*
X209082Y331247D02*
Y333216D01*
X210108Y334106D02*
X212076D01*
X211092Y333122D02*
Y335090D01*
X210108Y217075D02*
X212076D01*
X211092Y216091D02*
Y218059D01*
X208098Y218950D02*
X210066D01*
X209082Y217965D02*
Y219934D01*
X206154Y220893D02*
X208123D01*
X207139Y219909D02*
Y221877D01*
X204280Y222903D02*
X206248D01*
X205264Y221919D02*
Y223887D01*
X321311Y222903D02*
X323279D01*
X322295Y221919D02*
Y223887D01*
X319436Y220893D02*
X321405D01*
X320421Y219909D02*
Y221877D01*
X317493Y218950D02*
X319461D01*
X318477Y217965D02*
Y219934D01*
X315483Y217075D02*
X317451D01*
X316467Y216091D02*
Y218059D01*
X140208Y332215D02*
X142177D01*
X141192Y331231D02*
Y333199D01*
X138334Y334225D02*
X140302D01*
X139318Y333241D02*
Y335209D01*
X136390Y336169D02*
X138359D01*
X137375Y335184D02*
Y337153D01*
X134380Y338043D02*
X136349D01*
X135365Y337059D02*
Y339027D01*
X23178Y332215D02*
X25146D01*
X24162Y331231D02*
Y333199D01*
X25052Y334225D02*
X27020D01*
X26036Y333241D02*
Y335209D01*
X26995Y336169D02*
X28964D01*
X27980Y335184D02*
Y337153D01*
X29005Y338043D02*
X30974D01*
X29990Y337059D02*
Y339027D01*
X29005Y221012D02*
X30974D01*
X29990Y220028D02*
Y221996D01*
X26995Y222887D02*
X28964D01*
X27980Y221902D02*
Y223871D01*
X25052Y224830D02*
X27020D01*
X26036Y223846D02*
Y225814D01*
X23178Y226840D02*
X25146D01*
X24162Y225856D02*
Y227824D01*
X140208Y226840D02*
X142177D01*
X141192Y225856D02*
Y227824D01*
X138334Y224830D02*
X140302D01*
X139318Y223846D02*
Y225814D01*
X136390Y222887D02*
X138359D01*
X137375Y221902D02*
Y223871D01*
X134380Y221012D02*
X136349D01*
X135365Y220028D02*
Y221996D01*
X317374Y147176D02*
X319342D01*
X318358Y146191D02*
Y148160D01*
X315499Y149186D02*
X317468D01*
X316483Y148202D02*
Y150170D01*
X313556Y151129D02*
X315524D01*
X314540Y150145D02*
Y152113D01*
X311546Y153004D02*
X313514D01*
X312530Y152019D02*
Y153988D01*
X200343Y147176D02*
X202311D01*
X201327Y146191D02*
Y148160D01*
X202217Y149186D02*
X204186D01*
X203202Y148202D02*
Y150170D01*
X204161Y151129D02*
X206129D01*
X205145Y150145D02*
Y152113D01*
X206171Y153004D02*
X208139D01*
X207155Y152019D02*
Y153988D01*
X206171Y35973D02*
X208139D01*
X207155Y34989D02*
Y36957D01*
X204161Y37847D02*
X206129D01*
X205145Y36863D02*
Y38831D01*
X202217Y39791D02*
X204186D01*
X203202Y38806D02*
Y40775D01*
X200343Y41801D02*
X202311D01*
X201327Y40817D02*
Y42785D01*
X317374Y41801D02*
X319342D01*
X318358Y40817D02*
Y42785D01*
X315499Y39791D02*
X317468D01*
X316483Y38806D02*
Y40775D01*
X313556Y37847D02*
X315524D01*
X314540Y36863D02*
Y38831D01*
X311546Y35973D02*
X313514D01*
X312530Y34989D02*
Y36957D01*
X130443Y39910D02*
X132412D01*
X131428Y38926D02*
Y40894D01*
X132453Y41784D02*
X134422D01*
X133438Y40800D02*
Y42768D01*
X134397Y43728D02*
X136365D01*
X135381Y42743D02*
Y44712D01*
X136271Y45738D02*
X138240D01*
X137256Y44754D02*
Y46722D01*
X19241Y45738D02*
X21209D01*
X20225Y44754D02*
Y46722D01*
X21115Y43728D02*
X23083D01*
X22099Y42743D02*
Y44712D01*
X23058Y41784D02*
X25027D01*
X24043Y40800D02*
Y42768D01*
X25068Y39910D02*
X27037D01*
X26053Y38926D02*
Y40894D01*
X25068Y156941D02*
X27037D01*
X26053Y155956D02*
Y157925D01*
X23058Y155066D02*
X25027D01*
X24043Y154082D02*
Y156050D01*
X21115Y153123D02*
X23083D01*
X22099Y152138D02*
Y154107D01*
X19241Y151113D02*
X21209D01*
X20225Y150128D02*
Y152097D01*
X130443Y156941D02*
X132412D01*
X131428Y155956D02*
Y157925D01*
X132453Y155066D02*
X134422D01*
X133438Y154082D02*
Y156050D01*
X134397Y153123D02*
X136365D01*
X135381Y152138D02*
Y154107D01*
X136271Y151113D02*
X138240D01*
X137256Y150128D02*
Y152097D01*
X332598Y270590D02*
X334961D01*
X333780Y269409D02*
Y271772D01*
X332598Y275590D02*
X334961D01*
X333780Y274410D02*
Y276772D01*
X332598Y280591D02*
X334961D01*
X333780Y279410D02*
Y281772D01*
X302402Y290591D02*
X305157D01*
X303780Y289213D02*
Y291968D01*
X292402Y290591D02*
X295158D01*
X293779Y289213D02*
Y291968D01*
X257874Y244094D02*
X269685D01*
X263779Y238189D02*
Y250000D01*
X289370Y275590D02*
X301181D01*
X295276Y269685D02*
Y281496D01*
X226378Y275590D02*
X238189D01*
X232283Y269685D02*
Y281496D01*
X247008Y300590D02*
X250551D01*
X248780Y298819D02*
Y302362D01*
X257008Y300590D02*
X260551D01*
X258780Y298819D02*
Y302362D01*
X267008Y300590D02*
X270551D01*
X268779Y298819D02*
Y302362D01*
X277008Y300590D02*
X280551D01*
X278780Y298819D02*
Y302362D01*
X234055Y250394D02*
X235236D01*
X234646Y249803D02*
Y250984D01*
X229331Y250394D02*
X230512D01*
X229921Y249803D02*
Y250984D01*
X229331Y245669D02*
X230512D01*
X229921Y245079D02*
Y246260D01*
X234055Y245669D02*
X235236D01*
X234646Y245079D02*
Y246260D01*
X151496Y274528D02*
X153858D01*
X152677Y273346D02*
Y275709D01*
X151496Y279528D02*
X153858D01*
X152677Y278346D02*
Y280709D01*
X151496Y284528D02*
X153858D01*
X152677Y283347D02*
Y285709D01*
X121299Y294528D02*
X124055D01*
X122677Y293150D02*
Y295905D01*
X111299Y294528D02*
X114055D01*
X112677Y293150D02*
Y295905D01*
X76772Y248031D02*
X88583D01*
X82677Y242126D02*
Y253937D01*
X108268Y279528D02*
X120079D01*
X114173Y273622D02*
Y285433D01*
X45276Y279528D02*
X57087D01*
X51181Y273622D02*
Y285433D01*
X65905Y304528D02*
X69449D01*
X67677Y302756D02*
Y306299D01*
X75906Y304528D02*
X79449D01*
X77677Y302756D02*
Y306299D01*
X85905Y304528D02*
X89449D01*
X87677Y302756D02*
Y306299D01*
X95906Y304528D02*
X99449D01*
X97677Y302756D02*
Y306299D01*
X52953Y254331D02*
X54134D01*
X53543Y253740D02*
Y254921D01*
X48228Y254331D02*
X49409D01*
X48819Y253740D02*
Y254921D01*
X48228Y249606D02*
X49409D01*
X48819Y249016D02*
Y250197D01*
X52953Y249606D02*
X54134D01*
X53543Y249016D02*
Y250197D01*
X328661Y89488D02*
X331024D01*
X329842Y88307D02*
Y90669D01*
X328661Y94488D02*
X331024D01*
X329842Y93307D02*
Y95669D01*
X328661Y99488D02*
X331024D01*
X329842Y98307D02*
Y100669D01*
X298465Y109488D02*
X301220D01*
X299843Y108110D02*
Y110866D01*
X288465Y109488D02*
X291220D01*
X289843Y108110D02*
Y110866D01*
X253937Y62992D02*
X265748D01*
X259842Y57087D02*
Y68898D01*
X285433Y94488D02*
X297244D01*
X291339Y88583D02*
Y100394D01*
X222441Y94488D02*
X234252D01*
X228346Y88583D02*
Y100394D01*
X243071Y119488D02*
X246614D01*
X244843Y117717D02*
Y121260D01*
X253071Y119488D02*
X256614D01*
X254842Y117717D02*
Y121260D01*
X263071Y119488D02*
X266614D01*
X264843Y117717D02*
Y121260D01*
X273071Y119488D02*
X276614D01*
X274843Y117717D02*
Y121260D01*
X230118Y69291D02*
X231299D01*
X230709Y68701D02*
Y69882D01*
X225394Y69291D02*
X226575D01*
X225984Y68701D02*
Y69882D01*
X225394Y64567D02*
X226575D01*
X225984Y63976D02*
Y65158D01*
X230118Y64567D02*
X231299D01*
X230709Y63976D02*
Y65158D01*
X147559Y93425D02*
X149921D01*
X148740Y92244D02*
Y94606D01*
X147559Y98425D02*
X149921D01*
X148740Y97244D02*
Y99606D01*
X147559Y103425D02*
X149921D01*
X148740Y102244D02*
Y104606D01*
X117362Y113425D02*
X120118D01*
X118740Y112047D02*
Y114803D01*
X107362Y113425D02*
X110118D01*
X108740Y112047D02*
Y114803D01*
X72835Y66929D02*
X84646D01*
X78740Y61024D02*
Y72835D01*
X104331Y98425D02*
X116142D01*
X110236Y92520D02*
Y104331D01*
X41339Y98425D02*
X53150D01*
X47244Y92520D02*
Y104331D01*
X61968Y123425D02*
X65512D01*
X63740Y121653D02*
Y125197D01*
X71969Y123425D02*
X75512D01*
X73740Y121653D02*
Y125197D01*
X81968Y123425D02*
X85512D01*
X83740Y121653D02*
Y125197D01*
X91969Y123425D02*
X95512D01*
X93740Y121653D02*
Y125197D01*
X49016Y73228D02*
X50197D01*
X49606Y72638D02*
Y73819D01*
X44291Y73228D02*
X45472D01*
X44882Y72638D02*
Y73819D01*
X44291Y68504D02*
X45472D01*
X44882Y67913D02*
Y69095D01*
X49016Y68504D02*
X50197D01*
X49606Y67913D02*
Y69095D01*
M02*
