M48
;Layer_Color=9474304
;FILE_FORMAT=2:5
INCH,LZ
;TYPE=PLATED
T1F00S00C0.01968
T2F00S00C0.02362
T3F00S00C0.03543
T4F00S00C0.11811
T5F00S00C0.15748
%
T01
X-0070801Y-0068372
X-0073144Y-0065859
X-0068372Y-0070801
X-0065859Y-0073144
X0065859
X0068372Y-0070801
X0070801Y-0068372
X0073144Y-0065859
X0149671Y-0064435
X0147328Y-0061922
X0152101Y-0066864
X0154613Y-0069207
X0286332
X0288844Y-0066864
X0291274Y-0064435
X0293617Y-0061922
Y0069796
X0291274Y0072309
X0288844Y0074738
X0286332Y0077081
X0154613
X0152101Y0074738
X0149671Y0072309
X0147328Y0069796
X0070801Y0068372
X0073144Y0065859
X0068372Y0070801
X0065859Y0073144
X-0065859
X-0068372Y0070801
X-0070801Y0068372
X-0073144Y0065859
X-0070801Y0152101
X-0073144Y0154613
X-0068372Y0149671
X-0065859Y0147328
X0065859
X0068372Y0149671
X0070801Y0152101
X0073144Y0154613
X0149671Y0156038
X0147328Y015855
X0152101Y0153608
X0154613Y0151265
X0286332
X0288844Y0153608
X0291274Y0156038
X0293617Y015855
Y0290269
X0291274Y0292781
X0288844Y0295211
X0286332Y0297554
X0154613
X0152101Y0295211
X0149671Y0292781
X0147328Y0290269
X0070801Y0288844
X0073144Y0286332
X0068372Y0291274
X0065859Y0293617
X-0065859
X-0068372Y0291274
X-0070801Y0288844
X-0073144Y0286332
T02
X0212972Y0093937
X0217972
X0222972
X0227972
X00075Y009
X00025
X-00025
X-00075
X0212972Y0314409
X0217972
X0222972
X0227972
X00075Y0310472
X00025
X-00025
X-00075
T03
X-003Y-008
X-002
X-001
X0
X001
Y-007
X002
X003
X004
Y-008
X003
X002
X0Y-007
X-001
X-002
X-003
X0190472Y-0066063
X0200472
X0210472
X0220472
X0230472
Y-0076063
X0240472
X0250472
Y-0066063
X0240472
X0220472Y-0076063
X0210472
X0200472
X0190472
X0260472
Y-0066063
Y0028937
Y0038937
X0250472
Y0028937
X0240472
X0230472
Y0038937
X0240472
X0220472
Y0028937
X0210472
Y0038937
X0200472
Y0028937
X0190472
Y0038937
X004Y0035
Y0025
X003
Y0035
X002
X001
Y0025
X002
X0
Y0035
X-001
Y0025
X-002
Y0035
X-003
Y0025
Y0140472
X-002
X-001
X0
X001
Y0150472
X002
X003
X004
Y0140472
X003
X002
X0Y0150472
X-001
X-002
X-003
Y0245472
X-002
X-001
X0
X001
X002
X003
X004
X0190472Y024941
X0200472
X0210472
X0220472
X0230472
X0240472
X0250472
Y0154409
Y0144409
X0240472
X0230472
Y0154409
X0240472
X0220472
Y0144409
X0210472
Y0154409
X0200472
Y0144409
X0190472
Y0154409
X0260472
Y0144409
Y024941
Y0259409
X0250472
X0240472
X0230472
X0220472
X0210472
X0200472
X0190472
X004Y0255472
X003
X002
X001
X0
X-001
X-002
X-003
T04
X0264797Y-0021654
X0176148
X0220472Y0055118
X0Y0051181
X-0044324Y-0025591
X0044324
Y0194882
X-0044324
X0176148Y0198819
X0264797
X0220472Y027559
X0Y0271654
T05
X-0110236Y-0106299
X0330709
Y0330709
X-0110236
M30
